<?xml version="1.0" encoding="UTF-8" standalone="no"?>
<svg
   inkscape:version="1.1 (c68e22c387, 2021-05-23)"
   sodipodi:docname="carrer.svg"
   id="svg141"
   viewBox="0 0 1000 1000"
   version="1.1"
   width="100%"
   xml:space="preserve"
   style="fill-rule:evenodd;clip-rule:evenodd;stroke-linecap:round;stroke-linejoin:round;"
   height="100%"
   xmlns:inkscape="http://www.inkscape.org/namespaces/inkscape"
   xmlns:sodipodi="http://sodipodi.sourceforge.net/DTD/sodipodi-0.dtd"
   xmlns="http://www.w3.org/2000/svg"
   xmlns:svg="http://www.w3.org/2000/svg"
   xmlns:rdf="http://www.w3.org/1999/02/22-rdf-syntax-ns#"
   xmlns:cc="http://creativecommons.org/ns#"
   xmlns:dc="http://purl.org/dc/elements/1.1/"
   xmlns:vectornator="http://vectornator.io"><sodipodi:namedview
   inkscape:current-layer="svg141"
   inkscape:window-maximized="1"
   inkscape:window-y="-8"
   inkscape:window-x="-8"
   inkscape:cy="500.61625"
   inkscape:cx="299.80006"
   inkscape:zoom="0.70213462"
   showgrid="false"
   id="namedview143"
   inkscape:window-height="1017"
   inkscape:window-width="1920"
   inkscape:pageshadow="2"
   inkscape:pageopacity="0"
   guidetolerance="10"
   gridtolerance="10"
   objecttolerance="10"
   borderopacity="1"
   bordercolor="#666666"
   pagecolor="#ffffff"
   inkscape:pagecheckerboard="0" />
<metadata
   id="metadata2">
<vectornator:setting
   value="0"
   key="DimensionsVisible" />
<vectornator:setting
   value="0"
   key="PencilOnly" />
<vectornator:setting
   value="0"
   key="SnapToPoints" />
<vectornator:setting
   value="0"
   key="OutlineMode" />
<vectornator:setting
   value="0"
   key="CMYKEnabledKey" />
<vectornator:setting
   value="1"
   key="RulersVisible" />
<vectornator:setting
   value="0"
   key="SnapToEdges" />
<vectornator:setting
   value="1"
   key="GuidesVisible" />
<vectornator:setting
   value="0"
   key="DisplayWhiteBackground" />
<vectornator:setting
   value="0"
   key="doHistoryDisabled" />
<vectornator:setting
   value="1"
   key="SnapToGuides" />
<vectornator:setting
   value="0"
   key="TimeLapseWatermarkDisabled" />
<vectornator:setting
   value="Points"
   key="Units" />
<vectornator:setting
   value="1"
   key="DynamicGuides" />
<vectornator:setting
   value="0"
   key="IsolateActiveLayer" />
<vectornator:setting
   value="0"
   key="SnapToGrid" />
<rdf:RDF><cc:Work
     rdf:about=""><dc:format>image/svg+xml</dc:format><dc:type
       rdf:resource="http://purl.org/dc/dcmitype/StillImage" /></cc:Work></rdf:RDF></metadata>
<defs
   id="defs4" />




<g
   id="g664"
   transform="matrix(2.9790168,0,0,2.9619878,24.259167,6.5215292)"><g
     transform="matrix(1.6425271,0,0,1.6253814,-190.71877,-250.78449)"
     vectornator:layerName="Color "
     id="Color ">
<path
   id="path9"
   stroke-linejoin="round"
   opacity="0"
   stroke-linecap="round"
   fill="#23518c"
   d="m 131.116,256.912 c 0,-2.427 0.086,-4.804 0.256,-7.13 1.973,-26.963 16.473,-47.141 38.174,-61.736 3.228,-2.171 8.674,-4.184 12.629,-5.958 10.207,-4.577 20.472,-7.564 31.228,-7.564 10.88,0 22.687,2.832 31.825,6.808 10.517,4.577 18.072,10.862 26.089,19.264 4.61,4.831 8.809,10.159 12.373,15.913 7.348,11.865 12,25.541 12,40.403 0,45.502 -36.841,82.388 -82.287,82.388 -33.144,0 -62.436,-19.03 -75.473,-47.302 -4.839,-10.494 -6.814,-22.769 -6.814,-35.086 z"
   stroke-width="1"
   stroke="#23518c" />
<path
   id="path11"
   stroke-linejoin="round"
   opacity="1"
   stroke-linecap="round"
   fill="#23518c"
   d="m 131.116,256.912 c 0,-2.427 0.086,-4.804 0.256,-7.13 1.973,-26.963 16.473,-47.141 38.174,-61.736 3.228,-2.171 8.674,-4.184 12.629,-5.958 10.207,-4.577 20.472,-7.564 31.228,-7.564 10.88,0 22.687,2.832 31.825,6.808 10.517,4.577 18.072,10.862 26.089,19.264 4.61,4.831 8.809,10.159 12.373,15.913 7.348,11.865 11.91,25.541 11.91,40.403 0,7.393 -1.11,14.519 -3.034,21.282 -4.156,14.616 -12.257,27.536 -22.929,37.787 -14.785,14.2 -34.129,23.319 -56.234,23.319 -19.169,0 -35.285,-6.365 -49.478,-17.203 -10.347,-7.901 -20.498,-18.178 -25.995,-30.099 -4.839,-10.494 -6.814,-22.769 -6.814,-35.086 z"
   stroke-width="1"
   stroke="#23518c" />
<path
   id="path13"
   stroke-linejoin="round"
   opacity="1"
   stroke-linecap="round"
   fill="#5fc2d9"
   d="m 130.961,256.52 c 0,-2.427 0.086,-4.804 0.256,-7.13 1.972,-26.963 61.494,-4.861 72.25,-4.861 4.071,0 12.043,-0.176 27.044,-2.632 1.966,-0.321 4.607,0.473 6.672,0.055 4.531,-0.916 8.852,-3.331 14.086,-3.592 2.061,-0.103 4.765,1.023 6.873,1.206 2.238,0.194 4.406,0.019 6.301,-0.276 2.52,-0.392 4.18,-0.229 5.79,-0.185 4.593,0.127 6.616,1.204 10.224,0.572 1.33,-0.234 4.495,1.602 6.565,1.275 1.212,-0.192 1.368,-0.192 2.844,0.055 1.657,0.277 3.48,0.682 3.594,1.052 2.065,6.736 2.14,9.501 2.14,16.902 0,16.507 -7.069,32.084 -15.178,44.539 -3.857,5.924 -8.73,10.634 -13.919,15.231 -13.975,12.38 -32.138,20.177 -53.255,20.177 -17.764,0 -34.197,-6.066 -47.838,-15.492 -11.811,-8.161 -21.586,-18.691 -27.636,-31.81 -4.839,-10.494 -6.813,-22.769 -6.813,-35.086 z"
   stroke-width="1"
   stroke="#5fc2d9" />
<path
   id="path15"
   stroke-linejoin="round"
   opacity="1"
   stroke-linecap="round"
   fill="#242259"
   d="m 213.403,243.03 -75.093,-24.679 8.319,-9.446 0.11,1.155 6.629,-1.208 6.359,-0.519 7.287,-2.366 10.574,5.773 3.197,2.125 6.591,3.016 1.735,-0.003 2.46,-2 2.962,-0.564 13.703,4.196 12.584,4.986 8.68,0.153 3.954,-0.564 5.137,-0.336 5.547,-0.536 5.833,2.44 9.47,0.216 8.155,-1.124 5.743,2.94 11.068,-1.303 3.884,0.169 4.073,9.011 1.306,6.053 -7.144,0.117 -6.167,-2.611 -13.007,0.29 -6.715,0.377 -6.059,-0.447 -3.916,-0.277 -12.491,2.921 z"
   stroke-width="1"
   stroke="#242259" />
<path
   id="path17"
   stroke-linejoin="round"
   opacity="1"
   stroke-linecap="round"
   fill="#f2ae30"
   d="m 148.25,218.51 8.212,2.212 9.947,-0.182 4.983,0.65 3.085,-2.017 3.737,0.787 0.656,0.854 v 5.396 l 13.902,-0.105 0.57,5.761 9.838,0.294 2.6,1.44 c 0,0 9.966,-0.927 11.36,0 0.245,0.163 -1.576,8.11 0.66,8.459 1.463,0.229 4.204,-0.16 6.127,-0.221 6.155,-0.196 4.89,-0.646 5.54,-0.533 1.553,0.268 -4.296,1.578 -4.296,1.578 l -3.046,3.277 -12.409,4.235 -2.96,2.023 -1.375,1.4 -4.437,1.841 -2.43,4.336 -3.285,1.736 -6.258,3.052 -1.868,2.497 0.05,2.626 1.26,4.982 3.824,6.171 9.817,4.536 -1.171,4.322 c 0,0 -1.022,2.887 -0.981,4.535 0.045,1.811 1.147,2.415 1.01,2.828 -0.132,0.399 -1.047,1.823 -0.855,3.22 0.215,1.569 1.549,3.103 1.549,3.103 l 4.174,2.997 4.218,3.903 c 0,0 5.018,2.986 8.002,7.127 1.271,1.765 17.851,1.339 20.221,3.552 1.202,1.123 23.021,1.978 23.021,1.978 -2.984,3.043 -19.1,12.967 -39.174,15.56 -6.148,0.794 -13.472,1.449 -19.881,0.311 -38.667,-6.86 -61.391,-36.212 -67.042,-53.826 -5.214,-16.254 -4.487,-23.772 -4.332,-35.995 l -13.853,-30.7 z"
   stroke-width="1"
   stroke="#f2ae30" />
<path
   id="path19"
   stroke-linejoin="round"
   opacity="1"
   stroke-linecap="round"
   fill="#f2ae30"
   d="m 244.33,242.059 -5.987,-0.619 -0.122,-5.77 4.045,-2.07 h 9.003 l 3.672,1.284 0.124,3.597 -4.117,-0.345 -3.803,1.739 z"
   stroke-width="1"
   stroke="#f2ae30" />
<path
   id="path21"
   stroke-linejoin="round"
   opacity="1"
   stroke-linecap="round"
   fill="#d93b3b"
   d="m 162.507,276.499 c 0,0 1.76,-0.743 3.022,-0.559 1.263,0.184 5.789,0.321 5.789,2.853 v 13.537 c 0,1.612 -0.759,0.937 -2.752,1.444 -1.994,0.508 -3.068,0 -3.988,0 0,0 -3.365,-0.826 -4.828,-1.444 l -0.032,-11.99 c 0,-2.532 0.257,-3.841 2.789,-3.841 z"
   stroke-width="1"
   stroke="#d93b3b" />
</g><g
     transform="matrix(1.6425271,0,0,1.6253814,-190.71877,-250.78449)"
     vectornator:layerName="Capa 2"
     id="Capa 2">
<path
   id="path100"
   stroke-linejoin="round"
   opacity="1"
   fill-opacity="0"
   stroke-linecap="round"
   fill="#23518c"
   d="m 174.03,232.21 c 1.53,0.05 2.76,0 3.61,0 3.25,0 4.88,0 5.26,0 0.713,-0.047 1.427,-0.047 2.14,0 0.628,-0.016 1.255,0.078 1.85,0.28 0.357,0.12 0.694,0.292 1,0.51 1.05,0.8 0.88,2.85 0.78,4 -0.12,1.55 -0.26,3.75 -0.38,6.75 -0.07,1.88 -2.85,0.16 -7.12,1.1 -3.35,0.73 -3.63,1.78 -7,2.58 -2.343,0.471 -4.742,0.592 -7.12,0.36 -5.71,-0.14 -7,0.66 -12.76,1 -10.08,0.58 -23.39,-0.86 -23.62,0.38 0,0.09 -0.1,1 -0.16,2.08 v 0 c -0.07,1.38 -0.14,3.43 -0.11,5.9 0,0 0.23,17.47 6.49,33 6.36,15.8 34.42,50 76.11,49.58 41.69,-0.42 82.6,-35.21 82.6,-82.6 0,-49.77 -45.17,-83.1 -82.6,-82.6 -18.739,0.257 -37.445,9.034 -48.989,17.07 -9.567,6.661 -13.626,12.799 -14.011,13.27 -1.18,1.39 -2.3,2.84 -2.3,2.84 -0.58,0.73 -1,1.39 -1.43,1.89"
   stroke-width="1"
   stroke="#000000" />
<path
   id="path102"
   stroke-linejoin="round"
   opacity="1"
   fill-opacity="0"
   stroke-linecap="round"
   fill="#000000"
   d="m 288.26,224.499 c -1.913,0.584 -2.774,1.052 -4.77,0.93 -0.833,-0.091 -4.88,0.53 -6.39,0.73 -2.521,0.244 -5.048,-0.396 -7.15,-1.81 -0.563,-0.429 -1.186,-0.773 -1.85,-1.02 -0.516,-0.195 -9.6,0.87 -13.89,0.62 -1.75,-0.1 -1.71,0.16 -3.67,0 -2.013,-0.059 -3.979,-0.619 -5.72,-1.63 -0.277,-0.224 -2.87,-0.91 -4.45,-0.69 -3.07,0.44 -5.08,0.34 -6.15,1.14 -0.242,0.191 -11.4,1.45 -14.08,0.61 -0.94,-0.3 -6.544,-3.206 -8.25,-3.68 -2,-0.33 -14.296,-4.956 -15.2,-5.5 -1.56,-0.75 -4.16,-0.66 -5.37,0.27 -1.71,1.3 -2.56,2 -3,2 -1.19,0.15 -5.51,-2.29 -6.24,-2.55 -2.66,-0.95 -2.87,-1.82 -5.56,-3.22 -2.69,-1.4 -7.909,-4.917 -8.92,-4.97 -2,-0.21 -6.68,2.03 -11.07,2.58 -7.48,0.92 -8.94,2.09 -9.93,1.06"
   stroke-width="1"
   stroke="#000000" />
<path
   id="path104"
   stroke-linejoin="round"
   opacity="1"
   fill-opacity="0"
   stroke-linecap="round"
   fill="#000000"
   d="m 117.04,218.51 c 3.62,0.15 6.54,0.14 8.49,0.11 2.61,-0.05 5.56,0 11.46,0 1.657,-0.029 3.31,0.177 4.91,0.61 1.373,0.343 2.686,0.896 3.89,1.64 2.68,1.93 2.8,6.1 2.86,9.82 0.11,7 0.08,13.07 0,18"
   stroke-width="1"
   stroke="#000000" />
<path
   id="path106"
   stroke-linejoin="round"
   opacity="1"
   fill-opacity="0"
   stroke-linecap="round"
   fill="#000000"
   d="m 247,239.29 c 0,-1 0,-1.81 -0.06,-2.45 0,-1.44 0.05,-1.77 0.29,-2.09 0.11,-0.15 0.28,-0.3 1.81,-0.8 0.738,-0.301 1.516,-0.493 2.31,-0.57 0.69,0.095 1.364,0.287 2,0.57 0.588,0.156 1.148,0.403 1.66,0.73 1,0.92 0.46,3 0.29,3.53"
   stroke-width="1"
   stroke="#000000" />
<path
   id="path108"
   stroke-linejoin="round"
   opacity="1"
   fill-opacity="0"
   stroke-linecap="round"
   fill="#000000"
   d="m 205.78,232.92 h 1.26 c 3.25,0 4.88,0 5.26,0 0.713,-0.036 1.427,-0.036 2.14,0 0.624,-0.02 1.248,0.054 1.85,0.22 0.356,0.061 0.696,0.194 1,0.39 0.69,0.55 0.53,1.77 0.38,3.13 -0.49,4.58 -0.2,5 0,5.21 0.2,0.21 1,0.43 2.8,-0.44 0,0 1.24,-0.27 3.32,-0.51 1.584,-0.133 3.176,-0.133 4.76,0 2.77,0.12 4.72,0.68 7.31,0.68"
   stroke-width="1"
   stroke="#000000" />
<path
   id="path110"
   stroke-linejoin="round"
   opacity="1"
   fill-opacity="0"
   stroke-linecap="round"
   fill="#000000"
   d="m 186.76,232.41 c -0.048,-0.275 0.021,-0.558 0.19,-0.78 0.21,-0.22 0.52,-0.22 1.06,-0.22 h 1.54 c 0.62,0.06 0.45,0 3.08,0 1.35,0 2,0 2.85,0 2.11,0 3.25,0 3.58,0 0.873,-0.047 1.747,-0.047 2.62,0 0.766,-0.022 1.532,0.073 2.27,0.28 0.409,0.122 0.802,0.293 1.17,0.51 1.08,0.68 1,2.49 1,4.06 -0.07,1.87 -0.2,4.15 -0.47,6.77"
   stroke-width="1"
   stroke="#000000" />
<path
   id="path112"
   stroke-linejoin="round"
   opacity="1"
   fill-opacity="0"
   stroke-linecap="round"
   fill="#000000"
   d="m 294.1,241.46 c -0.724,-0.324 -1.493,-0.537 -2.28,-0.63 -0.38,0 -4.57,-0.11 -5.01,-0.06 -2.6,0 -3.33,-1.19 -6,-1.64 -1.817,-0.088 -11.628,-0.216 -12.08,-0.32 -0.613,-0.087 -7.64,1.18 -9.67,0.47 0,0 -7.23,-0.97 -8.22,-0.59 -2,0.75 -4.6,1.96 -5.27,2.67 -1.18,1.27 -3.26,0.8 -6.8,0.49 -2.689,-0.37 -5.414,-0.397 -8.11,-0.08 -2.137,0.221 -4.192,0.941 -6,2.1 -1.47,1 -1.35,1.46 -2.75,2.68 0,0 -2,1.72 -10.78,4.21 -1.244,-0.02 -4.204,1.715 -4.49,2.11 -1.06,1.25 -2,1.13 -4.54,2.4 -1.6,0.8 -2.75,3.74 -3.48,4.81 -0.661,0.791 -6.11,3.18 -7.05,3.7 -1.845,1 -3.323,2.562 -4.22,4.46 -1.009,3.661 4.49,11.4 4.49,11.59 0,0.89 3.2,2.21 4.91,3.1 0.69,0.35 3.99,1.49 4.57,1.76 1,0.47 1.47,2.54 0.81,4 -0.19,0.41 -1.208,1.172 -1.434,3.97 -0.227,2.798 -0.226,3.3 0.174,3.97 0.56,0.94 0.07,1.42 0.13,3.49 -0.035,1.765 0.844,2.585 1.374,3.245 0.515,0.644 2.098,1.913 4.146,3.471 1.653,1.257 3.363,3.11 5.27,4.499 1.604,1.169 3.488,1.81 4.2,3.488 1.242,2.928 4.038,2.465 4.83,3.375 0.719,0.843 4.178,0.221 7.858,0.474 3.154,0.217 6.343,1.281 9.543,2.15 10.442,2.834 21.758,0.873 23.021,1.588"
   stroke-width="1"
   stroke="#000000" />
<path
   id="path114"
   stroke-linejoin="round"
   opacity="1"
   fill-opacity="0"
   stroke-linecap="round"
   fill="#000000"
   d="m 237.54,240.76 c 0,-0.41 0.05,-1.18 0.08,-2.15 0.08,-2.22 0.07,-2.62 0.4,-3.07 0.33,-0.45 0.34,-0.21 2.17,-1.16 0.7,-0.464 1.465,-0.821 2.27,-1.06 0.583,-0.08 1.173,-0.097 1.76,-0.05 h 2.53 l 4.37,0.05"
   stroke-width="1"
   stroke="#000000" />
<path
   id="path116"
   opacity="1"
   fill="#000000"
   fill-opacity="0"
   d="m 188.16,233.3 c 0.68,0 1.24,0 1.63,0.06 l 1.54,0.12 1.17,0.08 c 0.412,0.015 0.823,0.055 1.23,0.12 l 0.62,0.14 c 1,0.31 1.33,2.33 1.59,4 0,0.29 0.13,1.24 0.28,3.14 0.14,1.59 0.18,2.33 -0.3,2.73 -0.292,0.202 -0.646,0.294 -1,0.26 -2.33,0.06 -3.6,0 -3.6,0 -0.71,-0.06 -1.77,-0.13 -3.1,-0.16" />
<path
   id="path118"
   stroke-linejoin="round"
   opacity="1"
   fill-opacity="0"
   stroke-linecap="round"
   fill="#000000"
   d="m 148.27,225.38 c 1.07,0.07 2,0.15 2.89,0.23 3.38,0.32 5.77,0.7 8.66,1.16 1.2,0.19 2.46,0.41 4,0.79 1,0.24 0.92,0.25 2,0.51 3.27,0.8 4.73,0.82 7,1.88 0.261,0.101 0.504,0.243 0.72,0.42 1.17,1.07 0.19,3.13 -0.3,6.72 -0.344,2.803 -0.421,5.632 -0.23,8.45 0,0.87 0.11,1.61 0.16,2.16"
   stroke-width="1"
   stroke="#000000" />
<path
   id="path120"
   stroke-linejoin="round"
   opacity="1"
   fill-opacity="0"
   stroke-linecap="round"
   fill="#000000"
   d="m 148.27,218.51 c 0,0 1.59,0.336 3.203,0.716 1.954,0.46 4.54,0.985 6.427,1.054 2.65,0.06 8.28,-0.3 10.41,0 l 3.64,0.52 c 0.24,-0.31 0.62,-0.79 1.06,-1.41 0.44,-0.62 0.57,-0.83 0.76,-0.93 0.63,-0.35 1.27,0.21 2.84,0.78 2,0.72 2.45,0.42 2.88,1 0.43,0.58 0.26,1.28 0,2.78 -0.26,1.74 -0.55,1.71 -0.56,2.68 0,1.42 0.62,1.45 0.78,3.31 0,0.34 0,0.32 0,2.48 v 0.67"
   stroke-width="1"
   stroke="#000000" />
<path
   id="path122"
   stroke-linejoin="round"
   opacity="1"
   fill-opacity="0"
   stroke-linecap="round"
   fill="#000000"
   d="m 178.87,225.69 5.85,-0.1 c 6.12,-0.09 7.78,-0.08 8.62,0.66 0.53,0.47 0.5,1.23 0.44,2.74 -0.037,0.824 -0.175,1.64 -0.41,2.43"
   stroke-width="1"
   stroke="#000000" />
<path
   id="path124"
   stroke-linejoin="round"
   opacity="1"
   stroke-linecap="round"
   fill="#000000"
   d="m 157.99,237.64 -3.12,-0.16 c -0.355,-0.005 -0.64,-0.295 -0.64,-0.65 v -4.57 c -0.019,-0.373 0.25,-0.699 0.62,-0.75 l 2.73,0.18 c 0.36,0 0.62,0.41 0.62,0.77 v 4.37 c 0.05,0.36 0.14,0.81 -0.21,0.81 z"
   stroke-width="1"
   stroke="#000000" />
<path
   id="path126"
   fill="#000000"
   opacity="1"
   d="m 167.28,238.36 -3.12,-0.15 c -0.333,0.017 -0.619,-0.237 -0.64,-0.57 v -4 c -0.001,-0.349 0.271,-0.639 0.62,-0.66 l 2.73,0.16 c 0.352,0.031 0.621,0.327 0.62,0.68 v 3.84 c 0.05,0.3 0.14,0.7 -0.21,0.7 z" />
<path
   id="path128"
   fill="#000000"
   opacity="1"
   d="m 127.49,235.4 -4.87,-0.13 c -0.552,0 -1,-0.448 -1,-1 l 0.05,-6.92 c -0.014,-0.582 0.421,-1.078 1,-1.14 l 4.47,0.12 c 0.58,0 0.94,0.78 0.94,1.32 v 6.62 c 0.02,0.56 0.02,1.13 -0.59,1.13 z" />
<path
   id="path130"
   fill="#000000"
   opacity="1"
   d="m 140.81,235.86 -4.48,-0.13 c -0.533,-0.027 -0.951,-0.467 -0.95,-1 l 0.05,-6.82 c 0,-0.54 0.38,-1.13 0.9,-1.13 l 4,0.15 c 0.52,0 0.88,0.74 0.88,1.27 v 6.53 c 0.04,0.56 0.12,1.13 -0.4,1.13 z" />
<path
   id="path132"
   stroke-linejoin="round"
   opacity="1"
   stroke-linecap="round"
   fill="#d93b3b"
   d="m 171.35,277.75 c -0.31,0.71 -3.52,1.59 -7.24,1.07 -3.91,-0.55 -4.33,-1 -4.39,-1.51 -0.09,-0.83 2.44,-1.37 6.45,-1.37 4.01,0 5.5,1.04 5.18,1.81 z"
   stroke-width="1"
   stroke="#000000" />
<path
   id="path134"
   stroke-linejoin="round"
   opacity="1"
   stroke-linecap="round"
   fill="#000000"
   d="m 159.72,277.31 v 14.91"
   stroke-width="1"
   stroke="#000000" />
<path
   id="path136"
   stroke-linejoin="round"
   opacity="1"
   stroke-linecap="round"
   fill="#000000"
   d="m 171.35,277.75 v 14.91"
   stroke-width="1"
   stroke="#000000" />
<path
   id="path138"
   stroke-linejoin="round"
   opacity="1"
   fill-opacity="0"
   stroke-linecap="round"
   fill="#000000"
   d="m 171.35,292.77 c 0.04,0.113 0.04,0.237 0,0.35 -0.32,0.71 -3.56,1.48 -7.26,0.85 -3.9,-0.67 -4.3,-1.13 -4.34,-1.64"
   stroke-width="1"
   stroke="#000000" />
</g></g>
</svg>
