<?xml version="1.0" encoding="UTF-8" standalone="no"?>
<svg
   inkscape:version="1.1 (c68e22c387, 2021-05-23)"
   sodipodi:docname="gallo.svg"
   id="svg339"
   viewBox="0 0 1000 1000"
   version="1.1"
   width="100%"
   xml:space="preserve"
   style="fill-rule:evenodd;clip-rule:evenodd;stroke-linecap:round;stroke-linejoin:round;"
   height="100%"
   xmlns:inkscape="http://www.inkscape.org/namespaces/inkscape"
   xmlns:sodipodi="http://sodipodi.sourceforge.net/DTD/sodipodi-0.dtd"
   xmlns:xlink="http://www.w3.org/1999/xlink"
   xmlns="http://www.w3.org/2000/svg"
   xmlns:svg="http://www.w3.org/2000/svg"
   xmlns:rdf="http://www.w3.org/1999/02/22-rdf-syntax-ns#"
   xmlns:cc="http://creativecommons.org/ns#"
   xmlns:dc="http://purl.org/dc/elements/1.1/"
   xmlns:vectornator="http://vectornator.io"><sodipodi:namedview
   inkscape:current-layer="g345"
   inkscape:window-maximized="1"
   inkscape:window-y="-8"
   inkscape:window-x="-8"
   inkscape:cy="542.34074"
   inkscape:cx="163.08148"
   inkscape:zoom="0.65917969"
   showgrid="false"
   id="namedview341"
   inkscape:window-height="1017"
   inkscape:window-width="1920"
   inkscape:pageshadow="2"
   inkscape:pageopacity="0"
   guidetolerance="10"
   gridtolerance="10"
   objecttolerance="10"
   borderopacity="1"
   bordercolor="#666666"
   pagecolor="#ffffff"
   inkscape:document-rotation="0"
   inkscape:pagecheckerboard="0"
   showguides="true"
   inkscape:guide-bbox="true"><sodipodi:guide
     position="505.17333,464.48593"
     orientation="1,0"
     id="guide174" /><sodipodi:guide
     position="-122.88,499.37778"
     orientation="0,-1"
     id="guide176" /></sodipodi:namedview>
<metadata
   id="metadata2">
<vectornator:setting
   value="1"
   key="DimensionsVisible" />
<vectornator:setting
   value="0"
   key="SnapToGrid" />
<vectornator:setting
   value="0"
   key="SnapToPoints" />
<vectornator:setting
   value="1"
   key="GuidesVisible" />
<vectornator:setting
   value="1"
   key="RulersVisible" />
<vectornator:setting
   value="0"
   key="SnapToEdges" />
<vectornator:setting
   value="0"
   key="DisplayWhiteBackground" />
<vectornator:setting
   value="1"
   key="SnapToGuides" />
<vectornator:setting
   value="36"
   key="GridSpacing" />
<vectornator:setting
   value="Pixels"
   key="Units" />
<vectornator:setting
   value="0"
   key="DynamicGuides" />
<vectornator:setting
   value="1"
   key="New" />
<rdf:RDF><cc:Work
     rdf:about=""><dc:format>image/svg+xml</dc:format><dc:type
       rdf:resource="http://purl.org/dc/dcmitype/StillImage" /></cc:Work></rdf:RDF></metadata>
<defs
   id="defs5">
</defs>





<g
   id="g345"><g
     id="g437"
     transform="matrix(0.99957971,0,0,1.0000004,-7.9658101,-38.21776)"><g
       vectornator:layerName="Pintura"
       id="Pintura"
       transform="matrix(2.1622826,0,0,2.1517024,-534.78483,-599.95207)">

<path
   id="path12"
   stroke-linejoin="round"
   opacity="1"
   stroke-linecap="round"
   fill="#23518c"
   d="m 546.15,459.892 c 0.691,0.761 -1.655,79.464 0.069,90.157 3.231,-0.145 17.579,2.352 32.355,4.626 17.013,2.62 34.496,5.098 34.627,5.434 0.17,0.435 -0.995,2.486 0.193,3.593 12.976,12.094 20.371,3.595 22.533,3 1.428,-0.393 0.083,-2.549 1.053,-2.425 2.035,0.262 6.991,0.018 8.779,1.59 13.192,11.598 21.154,25.135 21.717,38.333 0.98,22.963 -7.6,46.092 -11.529,54.424 -9.061,19.218 -24.997,36.892 -42.563,49.796 -22.855,16.789 -48.184,26.31 -61.808,28.918 C 422.615,759.937 348.731,698.642 308.78,622.78 282.709,573.273 279.666,521.094 292.738,475.654 c 14.913,-51.836 50.484,-95.16 91.281,-120.256 20.876,-12.115 101.793,-60.751 201.162,-14.546 0,0 -12.507,14.375 -15.727,20.404 l 9.838,-2.656 c -2.315,5.2 -6.223,11.85 -8.534,17.098 l -3.398,9.939"
   stroke-width="1"
   stroke="#23518c" />

<path
   id="path16"
   stroke-linejoin="round"
   opacity="1"
   stroke-linecap="round"
   fill="#f2ae30"
   d="m 404.166,563.412 c 48.617,-12.797 81.352,-11.463 124.096,-14.751 6.029,-0.464 11.051,-0.554 17.023,0.452 27.795,4.678 63.144,9.743 67.747,11.095 0.717,0.211 -0.238,0.191 0.762,3.462 0.282,0.92 9.995,10.577 22.433,3.08 1.977,-1.192 0.453,-2.436 0.512,-2.437 3.142,-0.057 4.972,-0.299 8.633,0.521 1.305,0.293 31.632,28.746 20.382,66.302 -1.73,5.776 -8.109,29.214 -18.189,35.178 -61.241,36.235 -227.742,116.635 -293.133,-48.091 -3.928,-9.897 -5.642,-20.519 0.442,-29.065 6.863,-9.64 23.077,-18.502 48.986,-25.738"
   stroke-width="1"
   stroke="#f2ae30" />

<path
   id="path20"
   stroke-linejoin="round"
   opacity="1"
   stroke-linecap="round"
   fill="#242259"
   d="m 299.495,601.722 c 0.983,0.344 4.018,-3.923 2.407,-9.01 -3.557,-11.237 -2.339,-23.602 8.238,-26.515 5.208,-1.435 8.461,4.148 11.8,10.827 0.759,1.517 0.976,5.504 0.272,9.101 -0.718,3.663 -2.375,6.933 -3.456,8.063 -1.953,2.041 -2.177,4.525 -1.72,6.661 0.218,1.018 0.111,2.256 0.942,2.769 4.351,2.686 6.112,8.959 7.302,9.288 0.573,0.158 0.852,-1.149 1.62,-3.075 0.761,-1.909 1.992,-4.425 7.027,-7.316 4.708,-2.704 -0.827,-9.275 -0.05,-15.119 0.493,-3.714 1.344,-6.937 2.921,-8.989 2.1,-2.735 5.022,-3.662 5.59,-3.528 0.488,0.116 5.524,1.48 7.018,7.481 0.622,2.502 2.118,4.422 1.069,9.252 -0.527,2.426 -3.031,6.323 -4.043,9.266 -0.594,1.727 -0.05,2.929 0.046,3.838 0.13,1.232 0.644,0.393 1.488,0.777 0.921,0.419 2.187,2.036 2.575,2.914 2.117,4.789 2.569,8.962 3.061,9.078 1.024,0.239 2.104,-0.973 3.244,-1.42 1.253,-0.491 2.696,-0.562 3.715,0.018 15.761,8.962 8.115,24.227 9.767,23.44 3.266,-1.557 7.034,-5.352 11.266,-4.248 18.693,4.88 13.188,27.07 10.286,29.415 -1.312,1.06 1.301,1.981 4.008,4.032 3.468,2.627 7.645,6.349 9.82,6.499 1.787,0.123 -10.674,-18.197 10.459,-25.387 2.941,-1.001 10.662,6.618 11.746,15.862 0.728,6.205 -3.637,9.647 -5.645,12.915 -1.206,1.963 -1.206,5.192 0.26,5.186 3.449,-0.014 12.169,6.151 11.075,2.821 -4.907,-14.934 5.931,-24.067 9.529,-23.294 7.092,1.524 10.163,6.084 11.735,10.802 1.226,3.678 1.741,7.298 1.245,10.651 -0.763,5.153 -4.074,7.355 -2.192,7.112 1.682,-0.218 4.107,-1.556 5.75,-3.284 0.629,-0.66 1.963,-1.753 1.362,-6.831 -0.374,-3.159 -1.944,-7.034 -2.407,-11.328 -0.454,-4.21 0.598,-8.468 1.717,-11.461 0.997,-2.667 11.153,-9.65 13.978,-10.219 0.87,-0.175 11.98,4.702 13.128,12.768 0.532,3.742 2.585,6.094 1.635,10.047 -0.98,4.081 -6.371,10.418 -8.049,13.601 -0.75,1.422 -0.385,4.986 0.994,7.682 1.525,2.98 4.165,5.028 5.183,4.811 1.573,-0.334 5.461,-0.082 7.13,0.064 3.934,0.344 5.776,1.176 9.472,0.094 2.112,-0.618 1.375,-5.864 4.039,-9.823 2.321,-3.446 7.461,-6.132 10.603,-8.242 1.876,-1.259 1.046,-3.128 2.133,-3.522 0.433,-0.156 1.361,-2.628 0.546,-6.126 -1.289,-5.534 -3.495,-13.076 -1.819,-18.416 1.903,-6.063 8.386,-10.531 12.374,-12.106 2.492,-0.983 3.2,-0.102 3.707,-0.041 7.274,0.867 14.313,11.145 13.575,20.013 -0.478,5.753 -5.493,11.135 -7.725,15.072 -1.315,2.318 -0.566,4.166 -0.142,5.178 3.432,8.187 3.326,5.046 7.81,10.489 4.773,5.793 -0.81,4.061 2.26,1.833 13.951,-10.124 13.931,-1.99 17.415,-1.948 1.23,0.015 -0.876,-4.396 10.472,-9.685 0.186,-0.086 0.694,-2.769 0.043,-5.497 -0.895,-3.752 -3.025,-8.358 -2.516,-13.397 0.682,-6.757 3.874,-10.24 11.3,-13.392 1.299,-0.552 6.746,0.372 9.491,4.482 2.531,3.787 3.045,9.946 3.361,12.362 0.756,5.781 -4.222,8.877 -5.953,12.063 -1.353,2.489 0.994,7.656 2.368,7.953 3.925,0.849 12.783,-6.839 17.822,-7.815 1.115,-0.216 -6.436,-11.325 -0.696,-23.019 0.851,-1.734 2.342,-2.831 3.164,-3.805 1.716,-2.034 2.812,-3.02 5.194,-4.565 0.809,-0.524 0.223,1.691 1.392,0.542 3.103,-3.053 11.274,3.843 11.184,4.62 -0.246,2.13 0.758,0.654 0.751,-3.115 -0.008,-4.255 -3.181,-9.146 -2.124,-15.018 1.264,-7.027 7.162,-14.679 12.505,-13.734 1.438,0.254 8.459,2.878 9.707,8.811 0.525,2.5 3.172,6.69 1.813,11.403 -1.169,4.059 -6.326,8.66 -6.487,11.079 -0.218,3.277 1.68,4.334 2.677,5.419 1.199,1.305 1.589,2.293 1.967,2.483 0.401,0.638 -1.551,2.863 -3.306,5.991 -2.417,4.306 -7.023,12.735 -13.256,19.917 -15.933,18.358 -44.007,40.506 -84.473,53.155 -31.737,9.92 -74.498,9.427 -119.869,-4.288 -21.394,-6.776 -95.717,-33.785 -135.214,-130.716"
   stroke-width="1"
   stroke="#242259" />

<path
   id="path24"
   stroke-linejoin="round"
   opacity="1"
   stroke-linecap="round"
   fill="#242259"
   d="m 354.811,587.608 c -0.511,-0.632 0.375,-1.991 0.477,-2.687 0.305,-2.088 1.892,-3.786 4.253,-6.586 1.942,-2.301 3.951,-4.71 3.597,-7.94 -0.321,-2.917 -1.566,-5.746 -1.505,-8.315 0.105,-4.379 2.03,-7.588 4.369,-9.598 1.781,-1.531 4.971,-1.669 5.708,-1.222 12.089,7.312 4.098,15.676 7.049,19.955 0,0 -3.549,1.482 -6.822,3.116 -3.272,1.633 -6.267,3.42 -6.267,3.42"
   stroke-width="1"
   stroke="#242259" />

<path
   id="path28"
   stroke-linejoin="round"
   opacity="1"
   stroke-linecap="round"
   fill="#242259"
   d="m 382.786,569.777 c -0.511,-0.632 3.184,-3.726 3.286,-4.422 0.305,-2.089 4.025,-3.777 3.67,-7.006 -0.321,-2.918 -1.952,-8.538 -1.891,-11.107 0.105,-4.379 3.47,-7.167 5.809,-9.177 1.782,-1.532 6.075,-0.497 6.813,-0.051 3.116,1.885 4.399,5.059 5.331,7.115 1.2,2.652 1.166,7.933 0.104,11.347 -0.679,2.183 -2.325,2.726 -2.549,4.198 -0.208,1.364 1.325,1.562 1.863,1.934 0,0 0.313,-0.346 -3.225,0.581 -5.754,1.508 -8.049,2.526 -8.049,2.526"
   stroke-width="1"
   stroke="#242259" />

<path
   id="path32"
   stroke-linejoin="round"
   opacity="1"
   stroke-linecap="round"
   fill="#242259"
   d="m 413.616,560.351 c -0.955,-0.227 0.256,-0.09 0.357,-0.786 0.305,-2.088 2.924,-2.623 2.57,-5.852 -0.321,-2.918 -2.034,-10.889 -1.972,-13.458 0.104,-4.379 2.559,-8.37 4.898,-10.38 1.782,-1.531 6.114,-0.232 6.852,0.214 3.116,1.885 5.271,5.997 6.202,8.053 1.2,2.652 -0.573,9.231 -1.635,12.645 -0.679,2.183 0.214,3.711 1.785,5.138 1.57,1.428 0.39,0.413 0.927,0.786 0,0 -0.285,-0.215 -4.282,0.642 -3.997,0.856 -8.651,1.375 -8.651,1.375"
   stroke-width="1"
   stroke="#242259" />

<path
   id="path36"
   stroke-linejoin="round"
   opacity="1"
   stroke-linecap="round"
   fill="#d93b3b"
   d="m 636.524,563.253 8.652,0.763 c 0,0 -0.156,-25.224 -0.222,-32.929 -0.205,-23.902 -0.561,-95.956 -0.561,-95.956 0,0 -5.611,-3.952 -7.902,-1.682 -1.584,1.569 -0.035,10.054 -0.28,8.726 -0.143,-0.777 -0.279,-1.478 -0.405,-2.096 -0.436,-2.136 -0.762,-3.284 -0.929,-3.207"
   stroke-width="1"
   stroke="#d93b3b" />
<path
   id="path38"
   stroke-linejoin="round"
   opacity="1"
   stroke-linecap="round"
   fill="#d93b3b"
   d="m 497.532,547.807 c 6.648,-1.118 -7.784,-1.08 -13.585,2.354 -7.059,4.178 14.056,7.41 21.367,5.91 17.971,-3.687 13.334,-7.596 -8.018,-8.559"
   stroke-width="1"
   stroke="#d93b3b" />
<path
   id="path40"
   stroke-linejoin="round"
   opacity="1"
   stroke-linecap="round"
   fill="#5fc2d9"
   d="m 613.668,563.158 c 6.163,5.316 12.114,7.87 18.307,4.823 1.072,-0.527 3.9,-1.715 3.895,-2.887 -0.176,-41.66 -1.247,-60.881 -2.248,-151.662 -0.404,-36.632 -3.286,-73.689 -4.989,-77.096 -1.607,-3.214 -5.597,13.725 -8.406,69.929 -1.706,34.143 -6.244,153.433 -6.244,153.433 0,0 -0.118,1.408 -0.139,2.842"
   stroke-width="1"
   stroke="#5fc2d9" />
<path
   id="path42"
   stroke-linejoin="round"
   opacity="1"
   stroke-linecap="round"
   fill="#d93b3b"
   d="m 613.259,559.969 c -6.911,-2.319 -14.727,-2.628 -20.81,-3.553 -11.897,-1.809 -22.675,-3.293 -45.68,-7.994 0.898,-3.831 36.051,-75.511 -0.806,-88.92 -45.215,-16.451 -74.264,-27.351 -129.597,-47.557 -6.509,-2.377 99.873,-29.255 99.873,-29.255 l 122.289,46.766 21.238,8.122 c -3.251,1.292 -14.668,3.93 -14.668,3.93 l 0.023,-7.046 c -3.586,0.708 -10.305,2.302 -10.305,2.302 l 0.128,-6.138 c -0.43,-0.014 -4.129,-0.745 -7.806,-0.776 -2.584,-0.022 -5.619,-0.197 -7.345,0.029 -1.094,0.142 -1.479,0.721 -1.479,0.721 0,0 -0.79,1.701 -0.844,3.289 -0.107,3.135 0.154,6.504 0.173,6.505"
   stroke-width="1"
   stroke="#d93b3b" />
<path
   id="path44"
   stroke-linejoin="round"
   opacity="1"
   stroke-linecap="round"
   fill="#d93b3b"
   d="m 518.171,366.565 c -15.106,26.082 37.916,96.057 77.638,63.66 2.537,-2.069 5.432,-6.224 16.238,-5.751 8.433,0.369 48.73,12.717 48.73,12.717 0,0 -1.21,-9.205 -0.547,-14.402"
   stroke-width="1"
   stroke="#d93b3b" />

<path
   id="path48"
   stroke-linejoin="round"
   opacity="1"
   stroke-linecap="round"
   fill="#5fc2d9"
   d="m 579.759,358.051 c -0.258,-0.102 -2.248,0.116 -4.435,0.809 -2.465,0.782 -5.141,2.057 -5.141,2.057 -0.538,0.186 6.759,-10.327 9.957,-13.923 3.96,-4.454 8.243,-8.021 13.421,-10.086 4.565,-1.821 9.439,-2.309 13.879,-2.751 11.107,-1.106 19.951,0.739 17.766,2.265 -2.974,2.076 -10.098,8.352 -15.915,12.387 -2.103,1.459 -8.095,6.318 -7.536,5.842 0.724,-0.616 5.101,-9.574 3.264,-7.862 -13.653,12.725 -7.423,6.098 -33.403,28.234"
   stroke-width="1"
   stroke="#5fc2d9" />
<path
   id="path50"
   stroke-linejoin="round"
   opacity="1"
   stroke-linecap="round"
   fill="#5fc2d9"
   d="m 590.237,320.494 c -0.028,-0.073 5.22,-2.238 12.098,-2.314 5.84,-0.064 13.48,1.954 13.48,1.954 2.294,-0.028 -2.908,-4.171 -3.233,-4.4 -1.391,-0.979 -1.33,-1.295 -1.33,-1.295 -0.31,-0.207 0.711,-0.506 3.578,-0.358 3.55,0.183 3.647,0.838 6.743,2.711 9.561,5.782 8.528,16.132 6.322,15.424 -2.145,-0.689 -6.501,-0.579 -10.685,-1.938 -1.513,-0.491 -10.024,-2.67 -9.586,-2.578 0.568,0.12 3.947,-2.472 2.446,-2.71 -11.158,-1.774 0.479,-0.085 -19.899,-4.364"
   stroke-width="1"
   stroke="#5fc2d9" />
<path
   id="path52"
   stroke-linejoin="round"
   opacity="1"
   stroke-linecap="round"
   fill="#5fc2d9"
   d="m 644.82,356.665 c 1.113,1.143 5.103,7.414 5.152,7.3 2.939,-6.907 4.315,-4.226 4.315,-4.226 0.033,0.02 1.521,1.809 2.702,3.85 3.263,5.641 8.778,16.428 9.98,21.816 0.219,0.985 0.74,-1.379 1.516,-4.108 0.624,-2.195 1.365,-4.562 1.85,-6.91 0.606,-2.923 0.14,-4.282 0.75,-3.84 1.546,1.12 2.795,4.585 2.85,4.335 0.246,-1.109 1.479,-8.513 -0.702,-17.008 -0.497,-1.937 -3.266,-4.952 -6.784,-7.726 -4.702,-3.708 -10.455,-7.042 -11.144,-7.325 -6.33,-2.599 -14.88,-4.675 -19.326,-4.142 -0.771,0.092 -1.266,0.508 -1.707,0.688 -0.752,0.306 -1.105,0.464 -0.638,1.077 l 11.771,16.965"
   stroke-width="1"
   stroke="#5fc2d9" />
<path
   id="path54"
   stroke-linejoin="round"
   opacity="1"
   stroke-linecap="round"
   fill="#5fc2d9"
   d="m 657.978,331.193 c -0.43,-0.473 -1.939,-0.294 -1.939,-0.294 0,0 -1.348,-0.666 -1.866,-0.946 -2.898,-1.564 -4.223,-1.728 -4.223,-1.728 0,0 1.18,-0.207 3.207,-0.009 3.259,0.319 8.114,1.089 9.295,0.97 2.923,-0.293 17.177,1.659 20.026,0.553 0.644,-0.25 -1.433,-1.876 -2.068,-2.454 -1.644,-1.497 -13.359,-6.21 -17.498,-6.21 -1.872,0 4.358,-2.912 4.892,-3.22 1.354,-0.78 2.467,-0.709 2.3,-0.836 -0.741,-0.563 -4.323,-1.671 -11.373,-2.927 -1.608,-0.286 -5.909,0.223 -9.157,1.924 -4.342,2.272 -6.959,4.261 -7.401,4.683 -4.066,3.874 -8.528,8.331 -9.63,11.857 -0.191,0.612 -0.048,1.125 -0.064,1.518 -0.026,0.671 -0.026,0.99 0.587,0.848 0,0 21.595,-2.483 24.201,-3.645"
   stroke-width="1"
   stroke="#5fc2d9" />
</g><g
       vectornator:layerName="Círculo"
       id="Círculo"
       transform="matrix(2.1622826,0,0,2.1517024,-534.28967,-599.74981)">
<path
   id="path57"
   stroke-linejoin="round"
   opacity="1"
   stroke-linecap="round"
   fill="none"
   d="m 645.427,564.615 c 0.54,0.877 24.318,20.419 22.825,49.004 -1.035,19.806 -8.27,43.288 -24.433,65.582 -4.972,6.858 -19.942,21.203 -28.933,27.968 -13.402,10.085 -32.836,19.96 -36.97,21.861 -13.371,6.147 -27.281,9.482 -40.48,11.281 -18.573,2.531 -31.58,2.488 -43.852,2.488 -34.918,0 -71.633,-10.862 -101.356,-29.22 C 328.881,674.455 284.22,603.692 285.317,525.071 286.884,412.725 388.561,320.586 498.288,320.586 c 30.779,0 59.923,7.167 85.927,19.959 0.616,0.303 0.61,0.308 1.223,0.617"
   stroke-width="1"
   stroke="#000000" />

</g><g
       vectornator:layerName="Escenario"
       id="Escenario"
       transform="matrix(2.1622826,0,0,2.1517024,-534.28967,-599.74981)">
<path
   id="path62"
   stroke-linejoin="round"
   opacity="1"
   stroke-linecap="round"
   fill="#d93b3b"
   d="m 415.695,412.569 101.613,-29.723 1.037,-16.244 -102.304,29.032 z"
   stroke-width="1"
   stroke="#000000" />

<path
   id="path66"
   stroke-linejoin="round"
   opacity="1"
   stroke-linecap="round"
   fill="#d93b3b"
   d="M 546.318,459.679 415.934,412.754"
   stroke-width="1"
   stroke="#000000" />

<path
   id="path70"
   stroke-linejoin="round"
   opacity="1"
   stroke-linecap="round"
   fill="#d93b3b"
   d="m 617.641,440.721 -71.115,16.435 -0.615,92.265"
   stroke-width="1"
   stroke="#000000" />

<path
   id="path74"
   stroke-linejoin="round"
   opacity="1"
   stroke-linecap="round"
   fill="#d93b3b"
   d="m 644.777,434.701 -9.933,2.118"
   stroke-width="1"
   stroke="#000000" />

<path
   id="path78"
   stroke-linejoin="round"
   opacity="1"
   stroke-linecap="round"
   fill="none"
   d="M 517.272,382.925 661.106,437.576 660.467,422.72 518.296,366.703"
   stroke-width="1"
   stroke="#000000" />

<path
   id="path82"
   stroke-linejoin="round"
   opacity="1"
   stroke-linecap="round"
   fill="#d93b3b"
   d="m 644.758,434.777 -0.024,7.259 0.719,122.13"
   stroke-width="1"
   stroke="#000000" />

<path
   id="path86"
   stroke-linejoin="round"
   opacity="1"
   stroke-linecap="round"
   fill="none"
   d="m 636.435,563.651 8.878,0.922"
   stroke-width="1"
   stroke="#000000" />

<path
   id="path90"
   stroke-linejoin="round"
   opacity="1"
   stroke-linecap="round"
   fill="#d93b3b"
   d="m 545.992,549.472 67.151,10.366"
   stroke-width="1"
   stroke="#000000" />

<path
   id="path94"
   stroke-linejoin="round"
   opacity="1"
   stroke-linecap="round"
   fill="none"
   d="m 660.808,437.777 -16.047,3.987"
   stroke-width="1"
   stroke="#000000" />

<path
   id="path98"
   stroke-linejoin="round"
   opacity="1"
   stroke-linecap="round"
   fill="none"
   d="m 512.632,548.609 c 13.577,-0.521 27.502,-0.391 33.055,-0.037"
   stroke-width="1"
   stroke="#000000" />

<path
   id="path102"
   stroke-linejoin="round"
   opacity="1"
   stroke-linecap="round"
   fill="none"
   d="m 350.918,608.899 c 0,-2.838 -2.244,-13.67 5.018,-22.545 6.877,-8.405 23.151,-14.894 27.625,-16.789 11.156,-4.724 24.412,-8.132 39.388,-11.001 18.933,-3.626 40.624,-6.118 59.731,-7.731"
   stroke-width="1"
   stroke="#000000" />

<path
   id="path106"
   stroke-linejoin="round"
   opacity="1"
   stroke-linecap="round"
   fill="none"
   d="m 513.977,549.157 c 1.859,0.75 2.944,1.654 2.944,2.627 0,2.597 -7.726,4.702 -17.257,4.702 -9.531,0 -17.257,-2.105 -17.257,-4.702 0,-0.337 0.131,-0.667 0.379,-0.984"
   stroke-width="1"
   stroke="#000000" />

<path
   id="path110"
   stroke-linejoin="round"
   opacity="1"
   stroke-linecap="round"
   fill="none"
   d="m 511.846,548.454 c 0.79,0.215 1.504,0.45 2.131,0.703"
   stroke-width="1"
   stroke="#000000" />

<path
   id="path114"
   stroke-linejoin="round"
   opacity="1"
   stroke-linecap="round"
   fill="none"
   d="m 482.786,550.8 c 1.662,-2.124 8.587,-3.717 16.878,-3.717 4.755,0 9.06,0.524 12.182,1.371"
   stroke-width="1"
   stroke="#000000" />

<path
   id="path118"
   stroke-linejoin="round"
   opacity="1"
   stroke-linecap="round"
   fill="none"
   d="m 482.605,574.588 -9.101,38.817"
   stroke-width="1"
   stroke="#000000" />

<path
   id="path122"
   stroke-linejoin="round"
   opacity="1"
   stroke-linecap="round"
   fill="none"
   d="m 487.099,555.417 -4.494,19.171"
   stroke-width="1"
   stroke="#000000" />

<path
   id="path126"
   stroke-linejoin="round"
   opacity="1"
   stroke-linecap="round"
   fill="none"
   d="m 512.123,555.898 17.565,53.176"
   stroke-width="1"
   stroke="#000000" />

<path
   id="path130"
   stroke-linejoin="round"
   opacity="1"
   stroke-linecap="round"
   fill="none"
   d="m 500.573,556.74 1.444,55.943"
   stroke-width="1"
   stroke="#000000" />

<path
   id="path134"
   stroke-linejoin="round"
   opacity="1"
   stroke-linecap="round"
   fill="none"
   d="m 501.953,592.557 18.583,-8.668"
   stroke-width="1"
   stroke="#000000" />

<path
   id="path138"
   stroke-linejoin="round"
   opacity="1"
   stroke-linecap="round"
   fill="none"
   d="m 480.762,582.507 20.57,4.584"
   stroke-width="1"
   stroke="#000000" />

<path
   id="path142"
   stroke-linejoin="round"
   opacity="1"
   stroke-linecap="round"
   fill="none"
   d="m 453.943,534.051 1.107,74.685 -17.42,12.029"
   stroke-width="1"
   stroke="#000000" />

<path
   id="path146"
   stroke-linejoin="round"
   opacity="1"
   stroke-linecap="round"
   fill="none"
   d="m 459.219,628.869 -3.896,-19.904 15.9,9.614"
   stroke-width="1"
   stroke="#000000" />

<path
   id="path150"
   stroke-linejoin="round"
   opacity="1"
   stroke-linecap="round"
   fill="#000000"
   d="m 453.968,534.101 1.62,-1.799 c 0,0 7.23,-3.011 8.106,-6.19 0.131,-0.475 -2.372,-5.684 -2.372,-5.684 0,0 -7.67,4.349 -9.454,7.268 -1.453,2.376 0.479,2.658 0.479,2.658 l 1.294,2.244 -0.777,10.435 0.663,0.991 1.591,-0.692 0.322,-11.144"
   stroke-width="0.61"
   stroke="#000000" />

<path
   id="path154"
   stroke-linejoin="round"
   opacity="1"
   fill-opacity="0"
   stroke-linecap="round"
   fill="#000000"
   d="m 453.287,532.086 c -0.908,-1.313 -2.539,0.548 -2.994,1.425 -1.6,3.08 -2.183,7.089 -3.112,10.431 -1.321,4.752 -3.212,9.157 -3.785,14.123 -0.392,3.393 0.102,6.832 -0.342,10.237 -0.325,2.488 -0.822,4.998 -0.928,7.524 -0.172,4.097 -0.171,7.991 -2.133,11.691 -5.493,10.358 -14.346,17.965 -21.527,27.034 -5.669,7.158 -3.975,16.036 -1.191,23.943 0.92,2.61 1.825,5.904 4.275,7.583 4.31,2.952 10.323,4.306 15.465,4.793 3.963,0.374 8.144,-0.227 12.112,-0.524 0.3,-0.022 3.871,-0.264 4.028,0.226 0.97,3.041 0.88,6.89 3.277,8.997"
   stroke-width="0.61"
   stroke="#000000" />

</g><g
       vectornator:layerName="Palmera"
       id="Palmera"
       transform="matrix(2.1622826,0,0,2.1517024,-534.28967,-599.74981)">
<path
   id="path159"
   stroke-linejoin="round"
   opacity="1"
   fill-opacity="0"
   stroke-linecap="round"
   fill="#000000"
   d="m 617.923,440.798 c 0.162,-3.396 0.329,-6.783 0.5,-10.149"
   stroke-width="0.61"
   stroke="#000000" />

<path
   id="path163"
   stroke-linejoin="round"
   opacity="1"
   fill-opacity="0"
   stroke-linecap="round"
   fill="#000000"
   d="m 613.493,562.422 c 0.214,-8.191 1.772,-66.148 4.43,-121.624"
   stroke-width="0.61"
   stroke="#000000" />

<path
   id="path167"
   stroke-linejoin="round"
   opacity="1"
   fill-opacity="0"
   stroke-linecap="round"
   fill="#000000"
   d="m 636.303,564.229 c -0.002,0.422 0.03,1.169 -0.008,1.564 -0.041,0.426 -0.106,0.348 -0.578,0.681 -11.493,8.117 -22.249,-3.068 -22.249,-3.068 0,0 0.008,-0.336 0.025,-0.984"
   stroke-width="0.61"
   stroke="#000000" />

<path
   id="path171"
   stroke-linejoin="round"
   opacity="1"
   fill-opacity="0"
   stroke-linecap="round"
   fill="#000000"
   d="m 634.54,430.918 c -0.04,0.918 1.858,109.876 1.763,133.311"
   stroke-width="0.61"
   stroke="#000000" />
<path
   id="path175"
   stroke-linejoin="round"
   opacity="1"
   fill-opacity="0"
   stroke-linecap="round"
   fill="#000000"
   d="m 619.757,404.869 c 2.342,-38.616 5.296,-69.123 8.789,-69.367 2.456,-0.171 4.291,34.151 5.561,76.676"
   stroke-width="0.61"
   stroke="#000000" />

<path
   id="path179"
   stroke-linejoin="round"
   opacity="1"
   fill-opacity="0"
   stroke-linecap="round"
   fill="#000000"
   d="m 619.683,406.092 c 0.024,-0.408 0.049,-0.816 0.074,-1.223"
   stroke-width="0.61"
   stroke="#000000" />

<path
   id="path183"
   stroke-linejoin="round"
   opacity="1"
   fill-opacity="0"
   stroke-linecap="round"
   fill="#000000"
   d="m 625.821,335.93 c 0.187,0.369 -5.089,4.523 -10.787,8.862 -6.553,4.99 -13.665,10.224 -13.665,10.224 0,0 3.858,-10.022 4.034,-8.401 0.175,1.622 -34.322,29.262 -34.322,29.262 0,0 7.046,-15.674 8.47,-17.05 2.153,-2.081 -9.916,2.539 -9.916,2.539 0,0 8.718,-17.731 22.668,-24.299 7.858,-3.7 31.252,-5.625 33.518,-1.137 z"
   stroke-width="0.61"
   stroke="#000000" />

<path
   id="path187"
   stroke-linejoin="round"
   opacity="1"
   fill-opacity="0"
   stroke-linecap="round"
   fill="#000000"
   d="m 632.975,340.254 c -0.304,1.041 17.186,24.222 17.186,24.222 0,0 1.961,-5.978 3.677,-4.674 4.457,3.385 13.265,26.944 13.265,26.944 0,0 4.647,-13.854 3.728,-15.738 -1.389,-2.848 2.958,4.73 2.958,4.73 0,0 3.112,-13.348 -0.53,-19.085 -9.487,-14.941 -38.567,-22.278 -40.284,-16.399 z"
   stroke-width="0.61"
   stroke="#000000" />

<path
   id="path191"
   stroke-linejoin="round"
   opacity="1"
   fill-opacity="0"
   stroke-linecap="round"
   fill="#000000"
   d="m 632.236,335.079 c 0.898,1.489 26.682,-3.793 26.682,-3.793 0,0 -9.712,-4.18 -8.415,-3.329 1.298,0.851 33.86,3.847 32.436,1.584 -3.937,-6.254 -17.519,-8.864 -19.329,-8.658 -2.735,0.311 7.172,-4.022 7.172,-4.022 0,0 -10.628,-6.242 -22.487,-1.038 -6.679,2.931 -18.333,15.485 -16.059,19.256 z"
   stroke-width="0.61"
   stroke="#000000" />

<path
   id="path195"
   stroke-linejoin="round"
   opacity="1"
   fill-opacity="0"
   stroke-linecap="round"
   fill="#000000"
   d="m 628.775,332.456 c -0.978,1.162 -21.678,-4.725 -21.678,-4.725 0,0 2.468,-2.072 3.202,-2.137 0.713,-0.062 -22.353,-4.223 -20.307,-5.351 7.28,-4.017 23.725,-1.383 25.339,-0.967 2.439,0.628 -4.762,-4.863 -4.762,-4.863 0,0 2.607,-3.268 12.752,2.772 5.714,3.402 7.931,12.33 5.454,15.271 z"
   stroke-width="0.61"
   stroke="#000000" />

<path
   id="path199"
   stroke-linejoin="round"
   opacity="1"
   fill-opacity="0"
   stroke-linecap="round"
   fill="#000000"
   d="m 618.272,431.651 c -0.684,-0.168 -1.069,-0.352 -1.066,-0.539 0.012,-0.611 4.142,-1.027 9.225,-0.931 5.083,0.096 9.194,0.67 9.183,1.28 -0.004,0.187 -0.392,0.355 -1.075,0.496"
   stroke-width="0.61"
   stroke="#000000" />

</g><g
       vectornator:layerName="Público"
       id="Público"
       transform="matrix(2.1622826,0,0,2.1517024,-534.28967,-599.74981)">
<path
   id="path204"
   stroke-linejoin="round"
   opacity="1"
   stroke-linecap="round"
   fill="none"
   d="m 440.842,735.153 c 0.168,-11.249 1.636,-25.734 6.156,-35.242 4.974,-10.462 13.524,-8.261 14.014,-15.452 0.489,-7.191 -3.478,-9.081 -2.689,-18.637 0.796,-9.65 11.068,-18.224 17.738,-16.644 8.908,2.11 12.99,11.971 13.309,20.503 0.122,3.279 -2.63,9.038 -6.856,14.022 -3.601,4.247 -0.226,8.935 -0.226,8.935 0,0 1.216,3.031 10.549,10.912 4.74,4.002 6.745,30.015 6.286,38.189"
   stroke-width="1"
   stroke="#000000" />

<path
   id="path208"
   stroke-linejoin="round"
   opacity="1"
   stroke-linecap="round"
   fill="none"
   d="m 353.948,683.661 c 4.974,-10.463 12.775,-6.539 13.264,-13.73 0.49,-7.191 -3.477,-9.08 -2.689,-18.637 0.797,-9.65 11.069,-18.224 17.739,-16.644 8.907,2.11 12.989,11.971 13.308,20.503 0.123,3.279 -2.63,9.038 -6.855,14.022 -3.601,4.247 -0.226,8.935 -0.226,8.935 0,0 1.215,3.032 10.548,10.912 3.912,3.303 5.797,20.679 6.136,31.565"
   stroke-width="1"
   stroke="#000000" />

<path
   id="path212"
   stroke-linejoin="round"
   opacity="1"
   stroke-linecap="round"
   fill="none"
   d="m 612.707,686.512 c 1.364,-1.213 2.276,-2.624 2.289,-5.009 0.037,-7.194 -3.829,-8.828 -3.649,-18.396 0.182,-9.661 9.398,-18.841 15.805,-17.683 8.556,1.546 13.004,11.114 13.811,19.593 0.31,3.257 -1.955,9.165 -5.659,14.393 -3.157,4.455 -0.591,8.075 -0.591,8.075"
   stroke-width="1"
   stroke="#000000" />

<path
   id="path216"
   stroke-linejoin="round"
   opacity="1"
   stroke-linecap="round"
   fill="none"
   d="m 603.522,691.705 c 3.324,-3.106 6.799,-3.886 9.277,-5.315"
   stroke-width="1"
   stroke="#000000" />

<path
   id="path220"
   stroke-linejoin="round"
   opacity="1"
   stroke-linecap="round"
   fill="none"
   d="m 593.628,720.665 c 1.265,-9.519 3.565,-18.31 7.571,-25.488 0.929,-1.666 1.933,-2.982 2.966,-4.052"
   stroke-width="1"
   stroke="#000000" />

<path
   id="path224"
   stroke-linejoin="round"
   opacity="1"
   stroke-linecap="round"
   fill="none"
   d="m 498.528,726.855 c 0.167,-11.249 3.956,-27.542 8.477,-37.05 4.974,-10.463 13.524,-8.261 14.013,-15.452 0.49,-7.192 -3.477,-9.081 -2.689,-18.638 0.796,-9.649 11.069,-18.223 17.739,-16.643 8.907,2.11 12.989,11.971 13.308,20.503 0.122,3.278 -2.63,9.037 -6.855,14.021 -3.601,4.248 -0.226,8.936 -0.226,8.936 l 8.446,9.062"
   stroke-width="1"
   stroke="#000000" />

<path
   id="path228"
   stroke-linejoin="round"
   opacity="1"
   stroke-linecap="round"
   fill="none"
   d="m 601.642,690.087 1.246,1.348"
   stroke-width="1"
   stroke="#000000" />

<path
   id="path232"
   stroke-linejoin="round"
   opacity="1"
   stroke-linecap="round"
   fill="none"
   d="m 568.797,689.711 c 3.73,-8.849 9.97,-6.116 10.214,-12.143 0.244,-6.028 -2.934,-7.534 -2.501,-15.547 0.438,-8.09 8.4,-15.46 13.712,-14.263 7.095,1.597 10.524,9.773 10.947,16.907 0.162,2.741 -1.902,7.613 -5.148,11.864 -2.767,3.622 -10e-4,7.482 -10e-4,7.482 l 1.622,1.753 4,4.323"
   stroke-width="1"
   stroke="#000000" />

<path
   id="path236"
   stroke-linejoin="round"
   opacity="1"
   stroke-linecap="round"
   fill="none"
   d="m 418.246,725.655 c 0.31,-0.866 4.927,-18.445 5.251,-19.216 3.73,-8.849 10.543,-7.168 10.787,-13.196 0.244,-6.027 -2.934,-7.533 -2.501,-15.546 0.438,-8.091 8.4,-15.46 13.712,-14.264 7.095,1.598 10.524,9.773 10.947,16.908 0.162,2.741 -0.379,8.327 -3.625,12.578"
   stroke-width="1"
   stroke="#000000" />

<path
   id="path240"
   stroke-linejoin="round"
   opacity="1"
   stroke-linecap="round"
   fill="none"
   d="m 398.069,688.219 c 3.459,-3.392 7.636,-4.412 7.816,-8.865 0.244,-6.028 -2.934,-7.534 -2.5,-15.547 0.229,-4.233 2.518,-8.27 5.41,-10.984 2.635,-2.473 5.769,-3.85 8.302,-3.279 7.095,1.597 10.523,9.773 10.946,16.907 0.162,2.741 -1.902,7.613 -5.148,11.864 -2.766,3.623 0.303,7.816 0.303,7.816 0,0 2.926,1.934 5.017,4.913 2.09,2.979 2.801,7.166 2.801,7.166"
   stroke-width="1"
   stroke="#000000" />

<path
   id="path244"
   stroke-linejoin="round"
   opacity="1"
   stroke-linecap="round"
   fill="none"
   d="m 382.011,570.379 c 2.122,-3.177 3.843,-4.425 6.521,-9.315 2.247,-4.103 -1.034,-6.139 -1.106,-12.361 -0.039,-3.288 1.555,-6.531 3.692,-8.784 1.946,-2.052 4.343,-3.281 6.366,-2.973 5.669,0.863 8.791,7.008 9.492,12.506 0.27,2.112 0.077,5.94 -2.258,9.399 -1.991,2.949 -0.172,1.806 0.949,3.526"
   stroke-width="1"
   stroke="#000000" />

<path
   id="path248"
   stroke-linejoin="round"
   opacity="1"
   stroke-linecap="round"
   fill="none"
   d="m 412.917,560.634 c 1.74,-3.401 3.819,-5.152 3.598,-6.707 -0.66,-4.631 -1.737,-5.978 -2.528,-12.15 -0.419,-3.262 0.79,-6.668 2.652,-9.152 1.696,-2.263 3.934,-3.762 5.98,-3.69 5.73,0.202 9.542,5.945 10.874,11.325 0.512,2.067 -0.404,6.078 -2.325,9.784 -1.636,3.159 2.955,6.863 2.203,6.573"
   stroke-width="1"
   stroke="#000000" />

<path
   id="path252"
   stroke-linejoin="round"
   opacity="1"
   stroke-linecap="round"
   fill="none"
   d="m 353.367,590.407 c 1.389,-1.531 0.563,-5.456 3.109,-9.269 2.122,-3.177 6.13,-5.812 6.09,-7.382 -0.12,-4.676 -1.034,-6.139 -1.107,-12.361 -0.038,-3.288 1.736,-7.529 5.443,-9.579 5.3,-2.932 10.036,0.796 12.037,8.455 1.189,4.551 -2.863,9.476 0.426,10.818"
   stroke-width="1"
   stroke="#000000" />

<path
   id="path256"
   stroke-linejoin="round"
   opacity="1"
   stroke-linecap="round"
   fill="none"
   d="m 325.579,611.991 c 1.337,-1.565 0.955,-3.971 3.117,-6.166 1.878,-1.906 6.411,-3.575 6.472,-5.361 0.176,-5.198 -2.12,-6.497 -1.807,-13.407 0.166,-3.651 1.819,-7.132 3.908,-9.473 1.903,-2.133 4.167,-3.32 5.996,-2.828 5.125,1.378 7.601,8.429 7.906,14.581 0.118,2.364 -1.373,6.566 -3.718,10.231 -1.998,3.124 -0.217,5.601 -0.217,5.601 0,0 2.1,1.092 3.61,3.661 1.509,2.569 2.473,7.896 2.473,7.896"
   stroke-width="1"
   stroke="#000000" />

<path
   id="path260"
   stroke-linejoin="round"
   opacity="1"
   stroke-linecap="round"
   fill="none"
   d="m 299.303,601.927 c 0.517,-0.17 2.528,-2.58 2.631,-5.347 0.231,-6.192 -2.78,-7.74 -2.369,-15.971 0.217,-4.35 2.386,-8.496 5.125,-11.285 2.495,-2.54 5.464,-3.954 7.862,-3.368 6.72,1.641 9.968,10.04 10.368,17.369 0.154,2.816 -1.801,7.821 -4.876,12.188 -2.62,3.721 0.287,8.03 0.287,8.03 0,0 2.772,1.986 4.752,5.046 0.439,0.678 2.009,3.393 2.363,4.548"
   stroke-width="1"
   stroke="#000000" />

<path
   id="path264"
   stroke-linejoin="round"
   opacity="1"
   stroke-linecap="round"
   fill="none"
   d="m 311.193,627.266 c 0.23,-4.234 1.908,-8.568 4.8,-11.283 2.635,-2.473 5.769,-3.849 8.302,-3.279 7.094,1.598 10.523,9.773 10.946,16.907 0.162,2.742 -1.902,7.614 -5.148,11.864 -2.766,3.623 0.303,7.817 0.303,7.817 0,0 2.926,1.933 5.017,4.912 2.09,2.979 2.15,6.019 2.15,6.019"
   stroke-width="1"
   stroke="#000000" />

<path
   id="path268"
   stroke-linejoin="round"
   opacity="1"
   stroke-linecap="round"
   fill="none"
   d="m 635.589,650.28 c 0.244,-6.027 -2.409,-8.987 -1.976,-17 0.438,-8.091 8.4,-15.46 13.712,-14.264 7.095,1.598 10.524,9.774 10.947,16.908 0.162,2.741 -1.902,7.613 -5.148,11.863 -2.767,3.623 -10e-4,7.483 -10e-4,7.483 l 3.161,3.416"
   stroke-width="1"
   stroke="#000000" />

<path
   id="path272"
   stroke-linejoin="round"
   opacity="1"
   stroke-linecap="round"
   fill="none"
   d="m 337.624,660.637 c 0.272,-0.888 0.517,-1.658 0.641,-1.952 0.625,-1.483 1.336,-2.671 2.089,-3.648 3.739,-4.855 8.494,-4.531 8.697,-9.548 0.244,-6.027 -2.934,-7.534 -2.5,-15.546 0.437,-8.091 8.399,-15.46 13.712,-14.264 7.095,1.597 10.523,9.773 10.946,16.907 0.162,2.742 -0.408,4.274 -1.153,7.149"
   stroke-width="1"
   stroke="#000000" />

<path
   id="path276"
   stroke-linejoin="round"
   opacity="0"
   stroke-linecap="round"
   fill="none"
   d="m 336.478,664.363 c 0.191,-0.535 0.705,-2.286 1.146,-3.726"
   stroke-width="1"
   stroke="#000000" />
<path
   id="path278"
   stroke-linejoin="round"
   opacity="1"
   stroke-linecap="round"
   fill="none"
   d="m 550.582,692.416 c 3.701,-3.911 8.584,-6.227 12.331,-5.339 8.907,2.11 12.989,11.971 13.308,20.503 0.122,3.278 -2.63,9.038 -6.855,14.021 -0.548,0.646 0.427,3.432 1.988,4.562 2.536,1.833 5.649,1.979 5.727,2.912"
   stroke-width="1"
   stroke="#000000" />

<path
   id="path282"
   stroke-linejoin="round"
   opacity="1"
   stroke-linecap="round"
   fill="none"
   d="m 532.127,740.763 c 4.974,-10.462 15.247,-11.214 15.736,-18.405 0.489,-7.191 -2.689,-18.638 -2.689,-18.638 0,0 2.519,-8.252 5.408,-11.304"
   stroke-width="1"
   stroke="#000000" />

<path
   id="path286"
   stroke-linejoin="round"
   opacity="1"
   stroke-linecap="round"
   fill="none"
   d="m 319.689,551.131 c 1.541,-7.333 1.429,-6.652 2.447,-8.884 1.484,-3.254 11.53,-14.018 19.694,-2.848 2.288,3.13 3.567,5.882 2.849,14.058"
   stroke-width="1"
   stroke="#000000" />

<path
   id="path290"
   stroke-linejoin="round"
   opacity="1"
   stroke-linecap="round"
   fill="none"
   d="m 296.561,563.797 c -1.793,-4.864 0.648,-10.01 1.665,-12.241 1.484,-3.255 11.531,-14.019 19.695,-2.849 2.287,3.13 3.567,5.882 2.849,14.058"
   stroke-width="1"
   stroke="#000000" />

<path
   id="path294"
   stroke-linejoin="round"
   opacity="1"
   stroke-linecap="round"
   fill="none"
   d="m 466.122,542.502 c -0.286,-4.589 1.46,-6.854 2.295,-8.413 1.218,-2.274 8.415,-9.827 15.118,-2.022 1.878,2.186 2.929,4.109 2.339,9.822"
   stroke-width="1"
   stroke="#000000" />

<path
   id="path298"
   stroke-linejoin="round"
   opacity="1"
   stroke-linecap="round"
   fill="none"
   d="m 285.951,525.72 c 0,0 5.683,-12.861 16.45,0.599 0.346,0.432 7.433,-17.98 19.915,-11.116 1.004,0.552 6.056,4.877 6.384,13.62"
   stroke-width="1"
   stroke="#000000" />

<path
   id="path302"
   stroke-linejoin="round"
   opacity="1"
   stroke-linecap="round"
   fill="none"
   d="m 402.919,524.253 c 0,0 -6.405,-16.531 -20.016,0.144 -0.472,0.579 -13.965,-28.061 -23.806,2.078"
   stroke-width="1"
   stroke="#000000" />

<path
   id="path306"
   stroke-linejoin="round"
   opacity="1"
   stroke-linecap="round"
   fill="none"
   d="m 348.464,542.133 c 0,0 1.449,-6.336 4.522,-8.294 1.817,-1.156 4.603,-2.192 7.23,0.5 2.02,2.07 2.709,3.363 3.009,5.669 0.105,0.809 0.504,-1.139 3.079,-3.628 5.361,-5.184 15.024,-8.578 17.467,8.378"
   stroke-width="1"
   stroke="#000000" />

<path
   id="path310"
   stroke-linejoin="round"
   opacity="1"
   stroke-linecap="round"
   fill="none"
   d="m 319.454,569.301 c 0,0 1.616,-6.024 5.045,-7.884 2.025,-1.099 5.133,-2.084 8.063,0.475 2.254,1.968 3.524,9.665 3.858,11.857 0.117,0.77 2.941,-9.608 5.813,-11.974 5.98,-4.928 13.879,-6.098 16.604,10.022"
   stroke-width="1"
   stroke="#000000" />

<path
   id="path314"
   stroke-linejoin="round"
   opacity="1"
   stroke-linecap="round"
   fill="none"
   d="m 412.855,521.633 c 0,0 7.577,-11.845 16.167,3.099 0.124,0.215 2.145,-2.61 5.354,-5.016 4.534,-3.4 11.438,-5.964 18.706,2.068"
   stroke-width="1"
   stroke="#000000" />

<path
   id="path318"
   stroke-linejoin="round"
   opacity="1"
   stroke-linecap="round"
   fill="none"
   d="m 486.104,538.296 c 0.242,0.547 5.669,-18.456 23.283,-2.019"
   stroke-width="1"
   stroke="#000000" />

<path
   id="path322"
   stroke-linejoin="round"
   opacity="1"
   stroke-linecap="round"
   fill="none"
   d="m 405.206,675.266 c -4.658,-2.831 -8.94,-6.061 -13.316,-10.2"
   stroke-width="1"
   stroke="#000000" />

<path
   id="path326"
   stroke-linejoin="round"
   opacity="1"
   stroke-linecap="round"
   fill="none"
   d="m 433.143,687.386 c -3.905,-1.3 -7.326,-2.594 -11.083,-4.155"
   stroke-width="1"
   stroke="#000000" />

<path
   id="path330"
   stroke-linejoin="round"
   opacity="1"
   stroke-linecap="round"
   fill="none"
   d="m 503.66,697.562 c -6.121,0.053 -11.666,-0.028 -17.591,-0.386"
   stroke-width="1"
   stroke="#000000" />

<path
   id="path334"
   stroke-linejoin="round"
   opacity="1"
   stroke-linecap="round"
   fill="none"
   d="m 613.957,677.733 c -5.476,2.653 -10.71,4.945 -17.076,7.213"
   stroke-width="1"
   stroke="#000000" />

</g></g></g>
</svg>
