<?xml version="1.0" encoding="UTF-8" standalone="no"?>
<svg
   inkscape:version="1.1 (c68e22c387, 2021-05-23)"
   sodipodi:docname="iglesia.svg"
   id="svg147"
   viewBox="0 0 1000 1000"
   version="1.1"
   width="100%"
   xml:space="preserve"
   style="fill-rule:evenodd;clip-rule:evenodd;stroke-linecap:round;stroke-linejoin:round;"
   height="100%"
   xmlns:inkscape="http://www.inkscape.org/namespaces/inkscape"
   xmlns:sodipodi="http://sodipodi.sourceforge.net/DTD/sodipodi-0.dtd"
   xmlns:xlink="http://www.w3.org/1999/xlink"
   xmlns="http://www.w3.org/2000/svg"
   xmlns:svg="http://www.w3.org/2000/svg"
   xmlns:rdf="http://www.w3.org/1999/02/22-rdf-syntax-ns#"
   xmlns:cc="http://creativecommons.org/ns#"
   xmlns:dc="http://purl.org/dc/elements/1.1/"
   xmlns:vectornator="http://vectornator.io"><sodipodi:namedview
   inkscape:current-layer="svg147"
   inkscape:window-maximized="1"
   inkscape:window-y="-8"
   inkscape:window-x="-8"
   inkscape:cy="552.96"
   inkscape:cx="512"
   inkscape:zoom="0.65917969"
   showgrid="false"
   id="namedview149"
   inkscape:window-height="1017"
   inkscape:window-width="1920"
   inkscape:pageshadow="2"
   inkscape:pageopacity="0"
   guidetolerance="10"
   gridtolerance="10"
   objecttolerance="10"
   borderopacity="1"
   bordercolor="#666666"
   pagecolor="#ffffff"
   inkscape:document-rotation="0"
   inkscape:pagecheckerboard="0" />
<metadata
   id="metadata2">
<vectornator:setting
   value="1"
   key="DimensionsVisible" />
<vectornator:setting
   value="0"
   key="PencilOnly" />
<vectornator:setting
   value="0"
   key="SnapToPoints" />
<vectornator:setting
   value="0"
   key="OutlineMode" />
<vectornator:setting
   value="0"
   key="CMYKEnabledKey" />
<vectornator:setting
   value="1"
   key="RulersVisible" />
<vectornator:setting
   value="0"
   key="SnapToEdges" />
<vectornator:setting
   value="1"
   key="GuidesVisible" />
<vectornator:setting
   value="0"
   key="DisplayWhiteBackground" />
<vectornator:setting
   value="0"
   key="doHistoryDisabled" />
<vectornator:setting
   value="1"
   key="SnapToGuides" />
<vectornator:setting
   value="0"
   key="TimeLapseWatermarkDisabled" />
<vectornator:setting
   value="Pixels"
   key="Units" />
<vectornator:setting
   value="0"
   key="DynamicGuides" />
<vectornator:setting
   value="0"
   key="IsolateActiveLayer" />
<vectornator:setting
   value="0"
   key="SnapToGrid" />
<rdf:RDF><cc:Work
     rdf:about=""><dc:format>image/svg+xml</dc:format><dc:type
       rdf:resource="http://purl.org/dc/dcmitype/StillImage" /></cc:Work></rdf:RDF></metadata>
<defs
   id="defs5">
</defs>
<g
   vectornator:layerName="Azul 1"
   id="Azul 1">



</g>




<g
   id="g352"
   transform="matrix(0.89752352,0,0,0.8810213,30.92887,71.064977)"><path
     id="path7"
     stroke-linejoin="round"
     opacity="1"
     stroke-linecap="round"
     fill="#23518c"
     d="m 69.134775,486.61908 c 0,-246.95786 200.812195,-447.156586 448.527945,-447.156586 247.71379,0 448.52592,200.198726 448.52592,447.156586 0,246.95786 -200.81213,447.15664 -448.52592,447.15664 -247.71575,0 -448.527945,-200.19878 -448.527945,-447.15664 z"
     stroke-width="1.96848"
     stroke="#23518c"
     style="clip-rule:evenodd;fill-rule:evenodd;stroke-linecap:round;stroke-linejoin:round" /><path
     id="path9"
     stroke-linejoin="round"
     opacity="0"
     stroke-linecap="round"
     fill="#5e65a3"
     d="m 707.39497,124.50645 c 0,-5.99031 2.44211,-10.84424 5.45476,-10.84424 3.01071,0 5.45282,4.85393 5.45282,10.84424 0,5.98842 -2.44211,10.84433 -5.45282,10.84433 -3.01265,0 -5.45476,-4.85591 -5.45476,-10.84433 z"
     stroke-width="1.96848"
     stroke="#5e65a3"
     style="clip-rule:evenodd;fill-rule:evenodd;stroke-linecap:round;stroke-linejoin:round" /><path
     id="path11"
     stroke-linejoin="round"
     opacity="0"
     stroke-linecap="round"
     fill="#5e65a3"
     d="m 582.55887,378.15148 c 0,-0.99906 0.54291,-1.80773 1.21215,-1.80773 0.66929,0 1.21219,0.80867 1.21219,1.80773 0,0.99708 -0.5429,1.80574 -1.21219,1.80574 -0.66924,0 -1.21215,-0.80866 -1.21215,-1.80574 z"
     stroke-width="1.96848"
     stroke="#5e65a3"
     style="clip-rule:evenodd;fill-rule:evenodd;stroke-linecap:round;stroke-linejoin:round" /><g
     transform="matrix(1.974224,0,0,1.9627717,-610.04225,-567.14272)"
     vectornator:layerName="Color "
     id="Color ">
<path
   id="path14"
   stroke-linejoin="round"
   opacity="1"
   stroke-linecap="round"
   fill="#d93b3b"
   d="m 576.188,625.276 c -14.728,-21.21 8.131,24.509 0,0"
   stroke-width="1"
   stroke="#d93b3b" />
<path
   id="path16"
   stroke-linejoin="round"
   opacity="1"
   stroke-linecap="round"
   fill="#d93b3b"
   d="m 364.867,693.686 215.529,0.051 c 2.21,1.592 0.385,1.146 2.905,1.344 9.142,0.721 36.407,0.153 52.965,-0.031 8.931,-0.099 10.606,0.717 13.523,-0.008 1.844,-0.458 0.323,-19.446 0.985,-36.218 0.271,-6.868 0.353,-15.604 -0.065,-22.122 -0.19,-2.953 0.758,0.67 -1.908,-0.519 -0.294,-23.751 1.322,-82.731 1.562,-127.715 0.043,-7.956 -0.501,-15.666 -0.376,-22.567 0.044,-2.399 0.067,-4.776 0.08,-7.076 0.03,-5.112 0.011,-9.845 0.061,-13.598 0.043,-3.168 0.435,-5.177 0.159,-7.332 -0.123,-0.954 -1.436,-0.517 -3.709,-0.429 -1.796,0.07 -5.218,-0.018 -7.55,0.031 -5.903,0.122 -15.404,-0.063 -23.65,0.193 -5.007,0.156 -9.627,-0.317 -14.103,-0.244 -2.318,0.038 -4.462,0.832 -6.888,0.647 -2.589,-0.197 -10.593,-0.511 -10.593,-0.511 l -0.972,67.583 -220.069,1.247"
   stroke-width="1"
   stroke="#d93b3b" />
<path
   id="path18"
   stroke-linejoin="round"
   opacity="1"
   stroke-linecap="round"
   fill="#d93b3b"
   d="m 600.494,473.824 c 12.268,10.999 10.02,-13.614 0,0"
   stroke-width="1"
   stroke="#d93b3b" />
<path
   id="path20"
   stroke-linejoin="round"
   opacity="1"
   stroke-linecap="round"
   fill="#d93b3b"
   d="m 572.253,465.794 c 0,0 -1.139,34.489 0.081,47.921 0.15,1.652 -0.455,2.922 -0.244,3.905 -7.168,0.546 -16.683,0.08 -28.624,0.176 -41.019,0.333 -102.761,-0.592 -127.636,0.302 -4.528,0.163 -3.676,-0.303 -4.192,0.612 -0.859,1.524 -0.569,4.907 0.961,6.923 0.833,1.099 16.92,-0.125 34.836,-0.042 22.547,0.105 56.893,-0.419 86.437,-0.409 18.685,0.007 34.348,1.269 48.94,0.027 1.211,-3.383 0.16,-6.286 0.184,-10.315 0.028,-4.686 0.288,-10.764 0.019,-16.586 -0.255,-5.542 0.516,-13.132 0.413,-18.983 -0.151,-8.592 -1.058,-15.318 -0.598,-21.749"
   stroke-width="1"
   stroke="#d93b3b" />
<path
   id="path22"
   stroke-linejoin="round"
   opacity="1"
   stroke-linecap="round"
   fill="#d93b3b"
   d="m 589.89,424.543 c -0.599,1.294 -0.19,2.723 -0.276,4.1 -0.24,3.818 0.302,7.814 0.217,11.864 -0.079,3.714 0.14,7.847 -0.104,10.744 -0.207,2.468 -0.024,3.883 0.937,4.918 1.808,1.945 5.041,0.602 8.435,0.544 4.432,-0.076 7.982,0.667 7.979,-0.286 -0.006,-3.073 -0.073,-11.243 -0.794,-16.064 -0.23,-1.538 0.034,-6.744 -0.063,-10.812 -0.052,-2.21 0.333,-3.843 -0.775,-4.922 -0.646,-0.629 -2.212,-0.308 -3.656,-0.493 -2.407,-0.308 -5.085,-0.8 -7.079,-0.481 -2.172,0.346 -2.018,1.208 -2.844,0.286"
   stroke-width="1"
   stroke="#d93b3b" />
<path
   id="path24"
   stroke-linejoin="round"
   opacity="1"
   stroke-linecap="round"
   fill="#d93b3b"
   d="m 606.723,425.023 c -0.429,1.072 0.068,5.832 0.096,10.897 0.047,8.281 -0.383,18.437 0.669,20.775 8.857,-0.565 26.558,1.116 34.343,0.075 0.93,-0.124 0.342,-2.406 0.507,-6.873 0.048,-1.305 -0.046,-3.218 -0.08,-4.899 -0.088,-4.315 -0.281,-8.918 -0.359,-11.239 -0.115,-3.38 -0.367,-10.561 -1.446,-10.998 -5.695,-2.302 -25.32,-4.537 -33.988,1.304"
   stroke-width="1"
   stroke="#d93b3b" />
<path
   id="path26"
   stroke-linejoin="round"
   opacity="1"
   stroke-linecap="round"
   fill="#f2ae30"
   d="m 615.255,400.284 c -1.358,2.718 -4.398,11.177 -6.792,16.792 -0.851,1.995 -1.994,4.36 -2.497,5.432 -0.305,0.65 -0.344,0.339 -0.025,0.573 0.85,0.623 2.864,-1.16 5.707,-2.04 2.974,-0.919 6.838,-0.957 10.43,-1.151 9.401,-0.508 18.985,2.493 21.329,3.875 -1.964,-2.369 -4.075,-5.998 -6.467,-9.579 -1.159,-1.736 -2.761,-3.347 -3.724,-5.014 -1.127,-1.951 -2.269,-3.667 -3.103,-5.137 -0.481,-0.847 -1.157,-1.366 -1.538,-1.966 -0.314,-0.495 -0.295,-1.131 -0.969,-1.305"
   stroke-width="1"
   stroke="#f2ae30" />
<path
   id="path28"
   stroke-linejoin="round"
   opacity="1"
   stroke-linecap="round"
   fill="#f2ae30"
   d="m 618.62,379.914 c -1.133,1.845 -1.204,3.589 -1.842,5.825 -0.659,2.309 -1.103,3.951 -1.31,5.322 -0.058,0.386 3.309,-0.974 5.7,-1.223 2.967,-0.308 6.57,2.249 6.166,1.207 -0.912,-2.358 -3.314,-8.121 -5.423,-11.047 -0.334,-0.463 -2.464,0.459 -2.967,-0.084"
   stroke-width="1"
   stroke="#f2ae30" />
<path
   id="path30"
   stroke-linejoin="round"
   opacity="1"
   stroke-linecap="round"
   fill="#f2ae30"
   d="m 617.422,379.818 c -1.048,-0.105 -1.816,0.039 -2.885,1.815 -1.824,3.033 -4.842,8.983 -6.42,11.338 -0.501,0.749 1.045,5.744 -0.973,8.473 -7.508,10.153 -17.762,19.376 -20.188,22.981 1.498,1.117 6.318,-2.009 9.225,-1.809 4.116,0.284 7.067,2.099 8.865,1.257 0.991,-0.464 2.79,-6.87 4.956,-12.527 2.239,-5.848 4.829,-10.944 4.828,-10.977 -0.148,-4.386 -0.464,-5.947 0.107,-8.845 0.991,-5.025 2.766,-9.894 2.66,-11.48"
   stroke-width="1"
   stroke="#f2ae30" />
<path
   id="path32"
   stroke-linejoin="round"
   opacity="1"
   stroke-linecap="round"
   fill="#d93b3b"
   d="m 615.802,391.919 c -0.542,2.679 -0.979,6.792 -0.275,8.016 0.081,0.141 1.297,-0.012 2.16,0.049 2.784,0.194 7.945,0.303 10.016,0.41 0.28,0.014 -0.109,-7.047 -0.002,-7.871 0.2,-1.542 -8.052,-2.691 -11.899,-0.818"
   stroke-width="1"
   stroke="#d93b3b" />
<path
   id="path34"
   stroke-linejoin="round"
   opacity="1"
   stroke-linecap="round"
   fill="#e4c296"
   d="m 490.553,576.97 c 14.553,-7.077 -9.898,-12.671 0,0"
   stroke-width="1"
   stroke="#e4c296" />
<path
   id="path36"
   stroke-linejoin="round"
   opacity="1"
   stroke-linecap="round"
   fill="#f2ae30"
   d="m 495.259,549.396 c -1.507,1.827 -3.396,3.567 -5.356,8.891 -3.406,9.249 -6.129,23.543 -4.542,23.566 2.214,0.031 19.508,1.108 19.679,-0.256 0.17,-1.364 1.065,-0.661 0.388,-3.762 -0.767,-3.513 -1.971,-10.739 -2.691,-14.615 -0.891,-4.792 -3.692,-10.286 -6.019,-13.505"
   stroke-width="1"
   stroke="#f2ae30" />
<path
   id="path38"
   stroke-linejoin="round"
   opacity="1"
   stroke-linecap="round"
   fill="#f2ae30"
   d="m 537.334,549.825 c -1.507,1.827 -3.396,3.567 -5.356,8.891 -3.406,9.249 -6.129,23.544 -4.542,23.566 1.396,0.02 9.083,0.063 14.418,0.065 3.131,0.002 6.08,1.06 5.403,-2.041 -0.767,-3.513 -1.725,-12.781 -2.445,-16.656 -0.89,-4.793 -3.692,-10.287 -6.019,-13.506"
   stroke-width="1"
   stroke="#f2ae30" />
<path
   id="path40"
   stroke-linejoin="round"
   opacity="1"
   stroke-linecap="round"
   fill="#f2ae30"
   d="m 619.303,472.302 c -2.146,2.572 -4.587,1.747 -7.378,9.241 -2.954,7.929 -5.996,21.388 -7.602,28.543 -1.031,4.593 -2.076,9.08 -1.192,9.092 2.127,0.03 14.655,0.328 23.326,0.373 4.182,0.021 8.386,0.198 8.347,-0.149 -0.224,-2.013 -0.269,-1.858 -1.233,-6.224 -0.55,-2.488 -0.81,-7.269 -1.508,-11.137 -0.689,-3.819 -1.816,-6.725 -2.325,-9.435 -1.268,-6.746 -4.175,-18.516 -9.541,-19.708"
   stroke-width="1"
   stroke="#f2ae30" />
<path
   id="path42"
   stroke-linejoin="round"
   opacity="1"
   stroke-linecap="round"
   fill="#f2ae30"
   d="m 516.148,549.169 c -1.507,1.827 -3.396,3.567 -5.356,8.891 -3.406,9.249 -6.13,23.543 -4.542,23.566 2.214,0.031 19.508,1.108 19.678,-0.256 0.171,-1.364 1.066,-0.661 0.389,-3.762 -0.767,-3.513 -1.971,-10.739 -2.691,-14.615 -0.891,-4.792 -3.692,-10.286 -6.019,-13.505"
   stroke-width="1"
   stroke="#f2ae30" />
<path
   id="path44"
   stroke-linejoin="round"
   opacity="1"
   stroke-linecap="round"
   fill="#f2ae30"
   d="m 479.506,615.673 h 77.8 v 77.334 h -77.8 z"
   stroke-width="1"
   stroke="#f2ae30" />
<path
   id="path46"
   stroke-linejoin="round"
   opacity="1"
   stroke-linecap="round"
   fill="#f2ae30"
   d="m 399.005,634.732 h 32.876 v 58.399 h -32.876 z"
   stroke-width="1"
   stroke="#f2ae30" />
<path
   id="path48"
   stroke-linejoin="round"
   opacity="1"
   stroke-linecap="round"
   fill="#f2ae30"
   d="m 581.36,635.522 h 70.041 l -0.599,59.635 -69.881,0.236 z"
   stroke-width="1"
   stroke="#f2ae30" />
<path
   id="path50"
   stroke-linejoin="round"
   opacity="1"
   stroke-linecap="round"
   fill="#242259"
   d="m 650.026,593.068 c 0.232,10.005 0.243,25.502 -0.692,41.542 -0.053,0.909 0.684,0.018 1.174,0.629 0.179,0.223 0.579,-1.019 0.559,0.805 -0.192,17.838 -0.681,43.256 0.01,47.001 7.242,4.233 20.487,16.315 30.031,21.507 4.897,2.664 11.071,8.166 15.333,11.439 1.48,1.136 5.241,9.226 10.782,5.02 12.627,-9.586 30.589,-25.399 47.234,-48.405 15.337,-21.197 29.802,-49.342 32.434,-65.332 -1.009,-0.4 -1.583,-0.275 -3.066,-0.36 -1.482,-0.085 -2.046,-0.126 -3.013,-0.216 -3.16,-0.293 -5.871,-0.765 -8.765,-0.842 -4.077,-0.109 -8.295,-1.132 -12.094,-1.547 -14.309,-1.561 -25.057,-0.939 -36.749,-3.163 -2.198,-0.418 -42.104,-3.805 -62.17,-6.57 -7.675,-1.058 -9.857,-0.033 -9.734,-1.651"
   stroke-width="1"
   stroke="#242259" />
<path
   id="path52"
   stroke-linejoin="round"
   opacity="1"
   stroke-linecap="round"
   fill="#f2ae30"
   d="m 721.806,647.805 c -0.541,-0.052 -1.058,0.992 -1.659,1.901 -3.074,4.656 -6.884,19.555 -10.237,27.317 -0.189,0.438 -0.444,1.275 -0.717,1.524 -1.123,1.025 -2.427,-0.141 -2.216,-1.719 0.126,-0.949 1.303,-1.72 1.859,-2.924 0.879,-1.906 0.766,-3.537 0.043,-3.618 -0.222,-0.025 -0.962,1.093 -1.49,3.155 -0.362,1.414 -0.084,3.151 -0.688,4.308 -0.537,1.031 -0.596,0.744 -1.984,1.074 -1.389,0.33 -3.05,-0.693 -3.246,-1.361 -0.529,-1.801 0.384,0.487 1.035,-1.1 0.147,-0.357 0.555,-0.734 0.62,-1.6 0.277,-3.718 0.963,-10.311 0.733,-15.364 -0.241,-5.308 -1.419,-8.988 -1.975,-8.846 -0.159,0.041 -1.916,2.435 -1.958,8.279 -0.055,7.693 1.615,19.327 1.38,19.16 -0.288,-0.205 -0.588,-0.516 -0.904,-0.952 -0.208,-0.287 -0.347,-0.495 -0.555,-1.115 -0.144,-0.428 -0.351,-1.174 -0.513,-1.781 -0.209,-0.78 -0.339,-1.782 -0.339,-1.782 0,0 -2.033,-9.313 -2.285,-10.051 -0.422,-1.239 -5.02,-11.649 -6.1,-12.332 -1.035,-0.655 -1.005,0.6 -1.833,1.185 0.518,2.643 3.565,8.535 6.862,15.123 2.257,4.509 4.37,9.379 4.425,10.31 0.134,2.29 1.849,28.377 -2.719,39.214 -2.313,5.485 -3.995,9.127 -5.493,15.75 5.952,-3.168 7.285,-5.198 11.506,-7.274 0.642,-0.315 2.137,-1.37 2.39,-1.987 0.253,-0.618 -1.459,1.428 1.124,-0.588 0.506,-0.395 -0.056,-1.19 -0.106,-1.934 -0.114,-1.664 0.398,-4.175 0.326,-6.384 -0.224,-6.883 -0.304,-14.972 -0.355,-15.598 -0.077,-0.917 1.039,-14.904 2.212,-19.004 0.252,-0.883 0.732,-0.78 1.067,-1.375 4.431,-7.852 7.695,-14.041 9.881,-19.182 0.752,-1.768 1.319,-3.294 1.543,-4.902 0.185,-1.336 0.812,-3.688 0.428,-4.745"
   stroke-width="1"
   stroke="#f2ae30" />
</g><g
     transform="matrix(1.974224,0,0,1.9627717,-610.04225,-567.14272)"
     vectornator:layerName="Edificios"
     id="Edificios">
<path
   id="path58"
   stroke-linejoin="round"
   opacity="1"
   stroke-linecap="round"
   fill="none"
   d="m 649.86,593.114 138.423,14.304"
   stroke-width="1"
   stroke="#000000" />
<path
   id="path60"
   stroke-linejoin="round"
   opacity="1"
   stroke-linecap="round"
   fill="none"
   d="m 651.37,683.043 45.529,33.6"
   stroke-width="1"
   stroke="#000000" />
<path
   id="path62"
   stroke-linejoin="round"
   opacity="1"
   stroke-linecap="round"
   fill="none"
   d="m 683.863,596.646 -2.11,108.649"
   stroke-width="1"
   stroke="#000000" />
<path
   id="path64"
   stroke-linejoin="round"
   opacity="1"
   stroke-linecap="round"
   fill="none"
   d="m 750.186,603.758 -2.339,78.847"
   stroke-width="1"
   stroke="#000000" />
<path
   id="path66"
   stroke-linejoin="round"
   opacity="1"
   stroke-linecap="round"
   fill="none"
   d="m 696.839,716.84 c 1.645,-4.238 2.466,-9.313 2.754,-13.858 0.558,-8.813 1.048,-17.794 0.221,-26.629 -0.211,-2.254 -6.952,-15.492 -9.632,-20.331 -0.864,-1.56 -2.518,-4.796 -0.878,-6.284 1.826,-1.657 4.484,4.275 5.031,5.316 1.873,3.564 4.629,14.419 4.895,16.229 0.181,1.228 0.039,5.778 2.016,6.08 2.012,0.308 2.048,-4.037 2.212,-5.222 0.738,-5.321 1.032,-10.617 0.531,-15.965 -0.087,-0.927 -0.848,-5.997 -2.189,-5.871 -0.883,0.082 -1.967,6.44 -2.015,7.326 -0.285,5.291 0.185,10.786 1.016,16.012 0.261,1.637 0.6,4.911 2.796,5.14 4.516,0.472 8.609,-10.043 4.954,-8.683 -2.028,0.755 -2.374,7.69 -0.851,8.203 2.287,0.77 4.187,-3.181 5.056,-4.718 3.331,-5.892 6.594,-11.777 8.611,-18.264 0.611,-1.964 1.179,-3.895 0.984,-5.976 -0.039,-0.42 0.109,-1.711 -0.552,-1.78 -1.125,-0.118 -3.719,5.304 -4.149,6.175 -3.251,6.591 -4.956,13.751 -7.126,20.729 -4.586,14.751 -3.57,31.666 -3.13,46.872"
   stroke-width="1"
   stroke="#000000" />
<path
   id="path68"
   stroke-linejoin="round"
   opacity="1"
   stroke-linecap="round"
   fill="none"
   d="m 691.22,732.347 c 0.309,-1.097 0.634,-2.194 0.974,-3.305 1.296,-4.229 3.055,-8.107 4.645,-12.202"
   stroke-width="1"
   stroke="#000000" />

<path
   id="path72"
   stroke-linejoin="round"
   opacity="1"
   stroke-linecap="round"
   fill="none"
   d="m 788.236,607.348 c 0.037,-0.018 0.074,-0.037 0.111,-0.055"
   stroke-width="1"
   stroke="#000000" />
<path
   id="path74"
   stroke-linejoin="round"
   opacity="1"
   stroke-linecap="round"
   fill="none"
   d="m 788.458,607.237 c -0.037,0.037 -0.074,0.074 -0.111,0.111"
   stroke-width="1"
   stroke="#000000" />
<path
   id="path76"
   stroke-linejoin="round"
   opacity="1"
   stroke-linecap="round"
   fill="none"
   d="m 478.341,693.251 1.295,-77.836 78.09,0.12 0.058,77.999"
   stroke-width="1"
   stroke="#000000" />
<path
   id="path78"
   stroke-linejoin="round"
   opacity="1"
   stroke-linecap="round"
   fill="none"
   d="m 518.127,615.602 -0.504,77.503"
   stroke-width="1"
   stroke="#000000" />
<path
   id="path80"
   stroke-linejoin="round"
   opacity="1"
   stroke-linecap="round"
   fill="none"
   d="m 484.518,582.126 62.74,0.517"
   stroke-width="1"
   stroke="#000000" />
<path
   id="path82"
   stroke-linejoin="round"
   opacity="1"
   stroke-linecap="round"
   fill="none"
   d="m 505.284,582.152 c 0.757,-6.685 -3.995,-32.231 -9.49,-32.888 -3.191,-0.381 -11.287,18.602 -11.044,32.651"
   stroke-width="1"
   stroke="#000000" />
<path
   id="path84"
   stroke-linejoin="round"
   opacity="1"
   stroke-linecap="round"
   fill="none"
   d="m 526.3,581.907 c 0.726,-6.688 -4.143,-32.213 -9.64,-32.844 -3.193,-0.367 -11.202,18.653 -10.896,32.701"
   stroke-width="1"
   stroke="#000000" />
<path
   id="path86"
   stroke-linejoin="round"
   opacity="1"
   stroke-linecap="round"
   fill="none"
   d="m 547.318,582.096 c 0.73,-6.688 -4.124,-32.216 -9.621,-32.85 -3.193,-0.369 -11.213,18.647 -10.914,32.694"
   stroke-width="1"
   stroke="#000000" />
<path
   id="path88"
   stroke-linejoin="round"
   opacity="1"
   stroke-linecap="round"
   fill="none"
   d="m 432.684,693.681 0.16,-59.096 -34.124,0.248 -0.223,58.848"
   stroke-width="1"
   stroke="#000000" />
<path
   id="path90"
   stroke-linejoin="round"
   opacity="1"
   stroke-linecap="round"
   fill="none"
   d="m 699.539,622.847 28.27,2.449 -0.51,20.106 -28.271,-2.552 z"
   stroke-width="1"
   stroke="#000000" />
<path
   id="path92"
   stroke-linejoin="round"
   opacity="1"
   stroke-linecap="round"
   fill="none"
   d="m 769.944,650.186 -2.534,-0.301 1.133,-20.127 10.506,1.211"
   stroke-width="1"
   stroke="#000000" />
<path
   id="path94"
   stroke-linejoin="round"
   opacity="1"
   stroke-linecap="round"
   fill="none"
   d="m 649.813,612.544 15.71,1.326 -0.501,19.224 -15.132,-1.331"
   stroke-width="1"
   stroke="#000000" />
<path
   id="path96"
   stroke-linejoin="round"
   opacity="1"
   stroke-linecap="round"
   fill="none"
   d="m 602.59,519.687 c 0,0 5.534,-46.821 16.821,-47.297 10.704,-0.45 15.445,47.524 15.445,47.524 z"
   stroke-width="1"
   stroke="#000000" />
</g><g
     transform="matrix(1.974224,0,0,1.9627717,-610.04225,-567.14272)"
     vectornator:layerName="Circulo 1"
     id="Circulo 1">
<path
   id="path99"
   stroke-linejoin="round"
   opacity="1"
   stroke-linecap="round"
   fill="none"
   d="m 364.113,631.836 c -12.707,-28.422 -19.774,-59.93 -19.774,-93.093 0,-125.837 101.757,-227.848 227.282,-227.848 125.524,0 227.281,102.011 227.281,227.848 0,125.837 -101.757,227.847 -227.281,227.847 -65.498,0 -124.524,-27.774 -166,-72.214"
   stroke-width="1"
   stroke="#000000" />
<path
   id="path101"
   stroke-linejoin="round"
   opacity="0"
   stroke-linecap="round"
   fill="#e4c296"
   d="m 604.622,480.959 c 16.425,-16.262 16.425,-16.262 0,0"
   stroke-width="1"
   stroke="#e4c296" />
</g><g
     transform="matrix(1.974224,0,0,1.9627717,-610.04225,-567.14272)"
     vectornator:layerName="Iglesia"
     id="Iglesia">
<path
   id="path104"
   stroke-linejoin="round"
   opacity="1"
   stroke-linecap="round"
   fill="none"
   d="m 364.452,676.619 -1.3,-150.537 55.578,-0.129"
   stroke-width="1"
   stroke="#000000" />
<path
   id="path106"
   stroke-linejoin="round"
   opacity="1"
   stroke-linecap="round"
   fill="none"
   d="m 418.73,525.953 164.357,-0.38 -2.545,168.515 -215.941,-0.184 -0.149,-17.285"
   stroke-width="1"
   stroke="#000000" />
<path
   id="path108"
   stroke-linejoin="round"
   opacity="1"
   stroke-linecap="round"
   fill="none"
   d="m 581.58,634.997 69.975,0.462 -0.361,59.83 -70.676,0.471 0.08,-5.222"
   stroke-width="1"
   stroke="#000000" />
<path
   id="path110"
   stroke-linejoin="round"
   opacity="1"
   stroke-linecap="round"
   fill="none"
   d="m 649.54,634.836 1.395,-177.83 -67.685,0.044 -0.185,68.502"
   stroke-width="1"
   stroke="#000000" />
<path
   id="path112"
   stroke-linejoin="round"
   opacity="1"
   stroke-linecap="round"
   fill="none"
   d="m 583.19,457.173 -11.289,8.206 -0.171,52.198 -160.66,0.342"
   stroke-width="1"
   stroke="#000000" />
<path
   id="path114"
   stroke-linejoin="round"
   opacity="1"
   stroke-linecap="round"
   fill="none"
   d="M 642.502,457.048 641.963,423.8"
   stroke-width="1"
   stroke="#000000" />
<path
   id="path116"
   stroke-linejoin="round"
   opacity="1"
   stroke-linecap="round"
   fill="none"
   d="m 589.752,456.609 -0.441,-32.303"
   stroke-width="1"
   stroke="#000000" />
<path
   id="path118"
   stroke-linejoin="round"
   opacity="1"
   stroke-linecap="round"
   fill="none"
   d="m 606.924,456.779 -0.603,-32.864"
   stroke-width="1"
   stroke="#000000" />
<path
   id="path120"
   stroke-linejoin="round"
   opacity="1"
   stroke-linecap="round"
   fill="none"
   d="m 585.693,425.395 c 2.573,-2.294 15.21,-2.842 19.418,-1.015"
   stroke-width="1"
   stroke="#000000" />
<path
   id="path122"
   stroke-linejoin="round"
   opacity="1"
   stroke-linecap="round"
   fill="none"
   d="m 607.715,392.896 c 0.627,-0.922 2.815,-1.562 4.715,-1.594 1.043,-0.018 1.999,0.148 2.563,0.551"
   stroke-width="1"
   stroke="#000000" />
<path
   id="path124"
   stroke-linejoin="round"
   opacity="1"
   stroke-linecap="round"
   fill="none"
   d="m 605.034,424.318 c 8.376,-5.491 31.952,-5.598 39.299,0.578 l -16.264,-24.348"
   stroke-width="1"
   stroke="#000000" />
<path
   id="path126"
   stroke-linejoin="round"
   opacity="1"
   stroke-linecap="round"
   fill="none"
   d="m 615.162,400.169 12.886,0.276 0.228,-8.294"
   stroke-width="1"
   stroke="#000000" />
<path
   id="path128"
   stroke-linejoin="round"
   opacity="1"
   stroke-linecap="round"
   fill="none"
   d="m 614.94,400.257 0.146,-8.164"
   stroke-width="1"
   stroke="#000000" />
<path
   id="path130"
   stroke-linejoin="round"
   opacity="1"
   stroke-linecap="round"
   fill="none"
   d="m 607.703,400.521 0.016,-7.458"
   stroke-width="1"
   stroke="#000000" />
<path
   id="path132"
   stroke-linejoin="round"
   opacity="1"
   stroke-linecap="round"
   fill="none"
   d="m 615.117,391.822 c 2.76,-2.054 10.147,-1.93 12.836,0.114"
   stroke-width="1"
   stroke="#000000" />
<path
   id="path134"
   stroke-linejoin="round"
   opacity="1"
   stroke-linecap="round"
   fill="none"
   d="m 614.833,400.238 -9.655,24.094 9.728,-24.276"
   stroke-width="1"
   stroke="#000000" />
<path
   id="path136"
   stroke-linejoin="round"
   opacity="1"
   stroke-linecap="round"
   fill="none"
   d="m 614.906,400.056 -0.073,0.182"
   stroke-width="1"
   stroke="#000000" />
<path
   id="path138"
   stroke-linejoin="round"
   opacity="1"
   stroke-linecap="round"
   fill="none"
   d="m 585.761,425.372 21.86,-24.45"
   stroke-width="1"
   stroke="#000000" />
<path
   id="path140"
   stroke-linejoin="round"
   opacity="1"
   stroke-linecap="round"
   fill="none"
   d="m 607.832,392.736 7.857,-13.072 2.448,-0.391 -2.986,11.959"
   stroke-width="1"
   stroke="#000000" />
<path
   id="path142"
   stroke-linejoin="round"
   opacity="1"
   stroke-linecap="round"
   fill="none"
   d="m 628.316,392.047 -6.266,-12.706 -3.846,-0.028"
   stroke-width="1"
   stroke="#000000" />
<path
   id="path144"
   stroke-linejoin="round"
   opacity="1"
   stroke-linecap="round"
   fill="none"
   d="m 619.267,353.501 0.229,25.677"
   stroke-width="1"
   stroke="#000000" />
</g></g>
</svg>
