<?xml version="1.0" encoding="UTF-8" standalone="no"?>
<svg
   inkscape:version="1.1 (c68e22c387, 2021-05-23)"
   sodipodi:docname="raco.svg"
   id="svg141"
   viewBox="0 0 1000 1000"
   version="1.1"
   width="100%"
   xml:space="preserve"
   style="fill-rule:evenodd;clip-rule:evenodd;stroke-linecap:round;stroke-linejoin:round;"
   height="100%"
   xmlns:inkscape="http://www.inkscape.org/namespaces/inkscape"
   xmlns:sodipodi="http://sodipodi.sourceforge.net/DTD/sodipodi-0.dtd"
   xmlns="http://www.w3.org/2000/svg"
   xmlns:svg="http://www.w3.org/2000/svg"
   xmlns:rdf="http://www.w3.org/1999/02/22-rdf-syntax-ns#"
   xmlns:cc="http://creativecommons.org/ns#"
   xmlns:dc="http://purl.org/dc/elements/1.1/"
   xmlns:vectornator="http://vectornator.io"><sodipodi:namedview
   inkscape:current-layer="g227"
   inkscape:window-maximized="1"
   inkscape:window-y="-8"
   inkscape:window-x="-8"
   inkscape:cy="218.4234"
   inkscape:cx="287.44272"
   inkscape:zoom="2.4196125"
   showgrid="false"
   id="namedview143"
   inkscape:window-height="1017"
   inkscape:window-width="1920"
   inkscape:pageshadow="2"
   inkscape:pageopacity="0"
   guidetolerance="10"
   gridtolerance="10"
   objecttolerance="10"
   borderopacity="1"
   bordercolor="#666666"
   pagecolor="#ffffff"
   inkscape:document-rotation="0"
   inkscape:pagecheckerboard="0" />
<metadata
   id="metadata2">
<vectornator:setting
   value="0"
   key="DimensionsVisible" />
<vectornator:setting
   value="0"
   key="PencilOnly" />
<vectornator:setting
   value="0"
   key="SnapToPoints" />
<vectornator:setting
   value="0"
   key="OutlineMode" />
<vectornator:setting
   value="0"
   key="CMYKEnabledKey" />
<vectornator:setting
   value="1"
   key="RulersVisible" />
<vectornator:setting
   value="0"
   key="SnapToEdges" />
<vectornator:setting
   value="1"
   key="GuidesVisible" />
<vectornator:setting
   value="0"
   key="DisplayWhiteBackground" />
<vectornator:setting
   value="0"
   key="doHistoryDisabled" />
<vectornator:setting
   value="1"
   key="SnapToGuides" />
<vectornator:setting
   value="0"
   key="TimeLapseWatermarkDisabled" />
<vectornator:setting
   value="Points"
   key="Units" />
<vectornator:setting
   value="1"
   key="DynamicGuides" />
<vectornator:setting
   value="0"
   key="IsolateActiveLayer" />
<vectornator:setting
   value="0"
   key="SnapToGrid" />
<rdf:RDF><cc:Work
     rdf:about=""><dc:format>image/svg+xml</dc:format><dc:type
       rdf:resource="http://purl.org/dc/dcmitype/StillImage" /></cc:Work></rdf:RDF></metadata>
<defs
   id="defs4" />


<g
   transform="translate(-0.1675,-0.3002)"
   vectornator:layerName="racó illeta"
   id="racó illeta">


<path
   id="path78"
   stroke-linejoin="round"
   opacity="1"
   fill-opacity="0"
   stroke-linecap="round"
   fill="#23518c"
   d="m 59.0219,-32.4532 c -0.1018,-0.1018 -0.2036,-0.2036 -0.3054,-0.3054"
   stroke-width="1"
   stroke="#000000" />



</g>
<g
   id="g227"
   transform="matrix(3.2935513,0,0,3.2210546,6.5600476,-59.982002)"><g
     transform="matrix(1.9050183,0,0,1.9130139,-32.638712,-27.128252)"
     vectornator:layerName="1"
     id="1">
<path
   id="path6"
   stroke-linejoin="round"
   opacity="1"
   stroke-linecap="round"
   fill="#5fc2d9"
   d="m 30.578,105.319 c 0,-35.6917 29.1608,-64.6256 65.1325,-64.6256 35.9715,0 65.1325,28.9339 65.1325,64.6256 0,35.692 -29.161,64.626 -65.1325,64.626 -35.9717,0 -65.1325,-28.934 -65.1325,-64.626 z"
   stroke-width="0.5"
   stroke="#000000" />
</g><path
     id="path24"
     stroke-linejoin="round"
     opacity="1"
     stroke-linecap="round"
     fill="#23518c"
     d="m 113.33812,124.73773 c 4.9521,9.12049 31.64598,5.8412 48.53682,3.7233 1.72977,-0.23892 3.39285,-0.47806 6.17418,-0.61484 9.15741,-0.5123 15.77164,0.94426 24.1804,3.00554 1.68021,0.41244 3.43473,0.84879 5.29404,1.29856 2.42509,0.69709 4.86541,1.3412 7.31717,1.93175 6.69614,1.61306 13.48371,2.82743 20.32654,3.63626 3.03851,0.19704 6.08653,0.19704 9.12313,0 0.67248,-0.0761 0.90679,0.352 1.60403,0.33459 0.34672,-0.01 1.72214,0.25365 2.07266,0.2571 3.68049,0.0368 7.00857,-0.0372 10.51189,0.35908 5.59695,0.75162 12.94651,5.47102 18.17007,14.04496 4.16628,6.78681 5.68838,14.40882 6.1513,22.37462 2.37556,33.78381 -18.70156,66.77949 -19.75314,68.42085 -14.31812,20.70454 -34.37223,36.70499 -57.6611,46.0118 -38.1476,15.15872 -81.26064,10.44123 -115.284268,-12.61822 C 46.078217,253.84359 25.502687,215.39776 25.08263,174.0977"
     stroke-width="0.954507"
     stroke="#23518c"
     style="clip-rule:evenodd;fill-rule:evenodd;stroke-linecap:round;stroke-linejoin:round"
     transform="translate(-0.1675,-0.3002)" /><path
     id="path26"
     stroke-linejoin="round"
     opacity="1"
     stroke-linecap="round"
     fill="#5fc2d9"
     d="m 58.835552,112.57288 c 0,-13.717452 18.82997,-24.837806 42.058048,-24.837806 23.22807,0 42.05803,11.120354 42.05803,24.837806 0,13.71765 -18.82996,24.838 -42.05803,24.838 -23.228078,0 -42.058048,-11.12035 -42.058048,-24.838 z"
     stroke-width="0.954507"
     stroke="#5fc2d9"
     style="clip-rule:evenodd;fill-rule:evenodd;stroke-linecap:round;stroke-linejoin:round"
     transform="translate(-0.1675,-0.3002)" /><path
     id="path28"
     stroke-linejoin="round"
     opacity="1"
     stroke-linecap="round"
     fill="#f2ae30"
     d="m 33.072466,216.77705 c -0.69552,-2.94797 -0.600461,-2.42572 -1.683463,-6.43347 -2.665693,-9.8635 -5.241849,-26.42829 -5.485881,-38.4994 -0.278895,-13.79762 3.994442,-27.69108 5.156313,-31.70075 2.851621,-9.8415 4.87056,-14.62002 5.044298,-14.62002 0.259273,0 12.225074,-0.41091 25.188159,-1.79325 3.3393,-0.35622 4.9538,0 8.45675,0 9.17133,0 15.78897,-1.79346 21.69719,-1.79346 1.84692,0 21.294118,3.10386 21.938778,3.58671 4.2661,3.1955 10.68258,10.75363 51.74221,2.87067 7.73056,-1.48411 17.8862,-0.17351 24.74808,1.90785 3.17758,0.96377 4.67492,1.41524 10.65477,3.12127 1.04205,0.29709 1.16397,0.39045 3.75289,0.98521 5.94556,1.36646 14.9944,3.44437 21.46194,4.03951 4.66157,0.4291 7.98202,-0.15227 7.83533,-0.17906 -0.99251,-0.17924 -12.42643,6.01127 -28.52574,10.37887 -3.33758,0.90562 -12.50836,0.85665 -16.20981,1.89044 -7.58578,2.11867 -9.97847,1.97328 -18.45581,4.48123 -4.12245,1.21917 -9.19552,2.0915 -13.97483,3.24543 -6.5967,1.59297 -12.92155,3.48417 -18.01957,5.41421 -23.03967,8.72182 -36.30641,22.08422 -37.76795,22.7576 -5.889738,2.71073 -20.180228,4.17421 -30.877478,10.96348 -12.54988,7.96197 -24.022281,14.48916 -35.003759,22.64052"
     stroke-width="0.954507"
     stroke="#f2ae30"
     style="clip-rule:evenodd;fill-rule:evenodd;stroke-linecap:round;stroke-linejoin:round"
     transform="translate(-0.1675,-0.3002)" /><path
     id="path30"
     stroke-linejoin="round"
     opacity="1"
     stroke-linecap="round"
     fill="#d93b3b"
     d="m 120.95496,82.053805 c 1.10205,-1.837258 2.5933,-2.815191 4.91324,-3.210611 3.85347,-0.656929 8.25749,-0.718145 8.25749,-0.718145 0,0 3.24614,0.06925 4.25447,0 1.09196,-0.07499 2.09496,-0.297855 4.12856,-0.590548 0.68848,-0.0991 8.77718,-0.910977 10.26595,-1.22605 1.68499,-0.356585 2.34032,0.204119 3.30901,0.658269 0.62314,0.292116 1.41963,1.459438 1.60213,2.814425 0.25527,1.902684 -0.24974,4.175536 -0.1903,4.915107 0.15601,1.946109 -1.21008,-0.626512 -1.21008,3.038822 0,0 3.70354,10.267914 3.70354,11.058554 0,0.46621 0.70677,4.592382 1.48212,9.325752 0.53911,3.2902 1.11062,6.87384 1.50305,9.72558 0.35244,2.57683 0.80583,9.83059 0.80583,9.83059 -8.89682,1.53654 -16.40602,1.8759 -25.40704,2.10604 -4.7254,0.12089 -11.01235,1.10112 -15.46304,0.012 -4.45088,-1.09043 -10.53018,-3.55152 -9.84894,-9.49411 0.5092,-4.44298 2.30374,-10.67404 4.51299,-16.66082 0.68865,-1.86653 1.07595,-4.155832 1.85681,-5.913312 0.30024,-0.67568 1.34628,-0.89223 1.47221,-1.53922 0.36709,-1.883547 1.24169,-3.854909 1.49067,-5.730811 0.39319,-2.959624 -0.88793,-5.836413 -1.09691,-8.400235"
     stroke-width="0.954507"
     stroke="#d93b3b"
     style="clip-rule:evenodd;fill-rule:evenodd;stroke-linecap:round;stroke-linejoin:round"
     transform="translate(-0.1675,-0.3002)" /><path
     id="path32"
     stroke-linejoin="round"
     opacity="1"
     stroke-linecap="round"
     fill="#242259"
     d="m 272.98705,171.31426 c 5.33214,49.63316 -34.93995,93.05857 -37.10595,90.84521 -19.10924,-5.47696 0.49339,-46.59146 -8.75737,-70.06987 12.24165,1.05406 18.48439,1.25111 29.78687,5.59747"
     stroke-width="0.954507"
     stroke="#141414"
     style="clip-rule:evenodd;fill-rule:evenodd;stroke-linecap:round;stroke-linejoin:round"
     transform="translate(-0.1675,-0.3002)" /><path
     id="path34"
     stroke-linejoin="round"
     opacity="1"
     fill-opacity="0.00252524"
     stroke-linecap="round"
     fill="#000000"
     d="m 112.89273,125.01111 c -7.5572,-1.91206 -15.307398,-2.94355 -23.098358,-3.07441 -4.91818,0 -10.68428,0.34167 -22.21649,1.22968 -6.10541,0.47827 -8.10662,0.68334 -15.636399,1.22987 -7.529966,0.54656 -12.411385,0.92227 -16.345819,1.12716"
     stroke-width="0.954507"
     stroke="#000000"
     style="clip-rule:evenodd;fill-rule:evenodd;stroke-linecap:round;stroke-linejoin:round"
     transform="translate(-0.1675,-0.3002)" /><path
     id="path36"
     stroke-linejoin="round"
     opacity="1"
     fill-opacity="0.00252524"
     stroke-linecap="round"
     fill="#000000"
     d="m 129.9198,88.050913 c 6.55115,0.410533 13.12137,0.410533 19.67273,0 2.54378,0 4.98582,-0.341472 7.36023,-0.614842 0.26079,-0.678547 1.3998,-3.769977 1.40743,-6.568142 0.003,-1.56848 -0.34672,-3.044944 -1.40743,-3.95286 l -0.33929,-0.273179 c -2.84915,-1.673697 -6.27475,-0.649086 -10.71821,0.273179 -2.63158,0.561278 -6.25493,0.951915 -8.93281,1.20998"
     stroke-width="0.954507"
     stroke="#000000"
     style="clip-rule:evenodd;fill-rule:evenodd;stroke-linecap:round;stroke-linejoin:round"
     transform="translate(-0.1675,-0.3002)" /><path
     id="path38"
     stroke-linejoin="round"
     opacity="1"
     fill-opacity="0.00252524"
     stroke-linecap="round"
     fill="#000000"
     d="m 157.49551,88.358717 c 1.27616,2.576064 4.90712,19.748423 5.52816,26.302223 0.44197,3.41587 0.91632,7.68572 1.22112,13.01461"
     stroke-width="0.954507"
     stroke-opacity="0"
     stroke="#000000"
     style="clip-rule:evenodd;fill-rule:evenodd;stroke-linecap:round;stroke-linejoin:round"
     transform="translate(-0.1675,-0.3002)" /><path
     id="path40"
     stroke-linejoin="round"
     opacity="1"
     fill-opacity="0"
     stroke-linecap="round"
     fill="#000000"
     d="m 235.8811,138.05289 c -9.226,3.21099 -14.41527,5.33578 -19.23116,7.11201 -5.52456,2.40103 -11.34248,4.04411 -17.29948,4.88469 -3.83288,0.44401 -4.78159,0 -9.12313,0.61484 -5.17022,0.7082 -10.26043,1.92085 -15.19633,3.62095 -12.95602,3.79159 -13.29512,2.45938 -27.33796,6.62688 -4.53242,1.24881 -8.98407,2.77749 -13.32998,4.57688 -4.90352,2.17701 -9.64207,4.70984 -14.17793,7.58319 -12.88896,7.96004 -12.48185,9.76976 -19.9099,13.66466 -8.683278,4.61035 -10.786228,2.93648 -21.877428,7.24075 l -0.84793,0.308 c -8.02487,3.53333 -15.68268,7.85865 -22.86097,12.91284 -9.666826,6.4545 -14.483093,9.70089 -19.774472,13.66275"
     stroke-width="0.954507"
     stroke="#050505"
     style="clip-rule:evenodd;fill-rule:evenodd;stroke-linecap:round;stroke-linejoin:round"
     transform="translate(-0.1675,-0.3002)" /><path
     id="path42"
     stroke-linejoin="round"
     opacity="1"
     fill-opacity="0.00252524"
     stroke-linecap="round"
     fill="#000000"
     d="m 61.743942,186.59925 c 7.68122,-3.16412 15.62687,-5.63191 23.74281,-7.37849 2.88172,-0.38644 5.72839,-1.00434 8.51352,-1.84414 5.52856,-1.70833 6.444508,-3.07423 12.753348,-5.53435 5.29119,-2.04885 5.6983,-1.53615 11.53221,-3.68831 5.01992,-1.87857 7.32633,-3.41663 10.92168,-4.91892 5.05496,-2.29696 10.29795,-4.14838 15.67029,-5.53378 3.04137,-0.77611 6.12082,-1.39191 9.22581,-1.84453 5.8187,-0.82221 11.7071,-1.03973 17.56885,-0.64908"
     stroke-width="0.954507"
     stroke="#000000"
     style="clip-rule:evenodd;fill-rule:evenodd;stroke-linecap:round;stroke-linejoin:round"
     transform="translate(-0.1675,-0.3002)" /><path
     id="path44"
     stroke-linejoin="round"
     opacity="1"
     fill-opacity="0.00252524"
     stroke-linecap="round"
     fill="#000000"
     d="m 127.17237,163.67904 c 0.25089,-2.53282 0.25089,-5.08459 0,-7.61742 0.12611,-2.14526 -0.36881,-4.28114 -1.42458,-6.14862 -2.44871,-1.80933 -5.51331,-2.55942 -8.51351,-2.08365 -4.57892,0.20488 -3.83271,0 -9.22583,0 H 82.739332"
     stroke-width="0.954507"
     stroke="#050505"
     style="clip-rule:evenodd;fill-rule:evenodd;stroke-linecap:round;stroke-linejoin:round"
     transform="translate(-0.1675,-0.3002)" /><path
     id="path46"
     stroke-linejoin="round"
     opacity="1"
     fill-opacity="0"
     stroke-linecap="round"
     fill="#000000"
     d="m 100.24131,174.67735 c 0,0 1.76367,-11.78398 -0.508824,-16.15636 -1.356764,-2.6302 -3.934624,-2.35683 -8.106634,-2.45937 -3.15431,0 -30.11946,0 -30.11946,0 h -4.30763"
     stroke-width="0.954507"
     stroke="#050505"
     style="clip-rule:evenodd;fill-rule:evenodd;stroke-linecap:round;stroke-linejoin:round"
     transform="translate(-0.1675,-0.3002)" /><path
     id="path48"
     stroke-linejoin="round"
     opacity="1"
     stroke-linecap="round"
     fill="#242259"
     d="m 234.76095,262.15947 -20.35132,-8.47083 c -5.0864,-2.15214 -10.78431,-4.7481 -13.29512,-10.24802 0,-0.30799 -0.23813,-0.64851 -0.33909,-0.9565 -1.96788,-7.65205 8.58211,-11.13564 8.17443,-21.45254 -0.27241,-7.24075 -5.63123,-8.02701 -6.10558,-17.07939 -0.4172,-5.23783 1.10491,-10.44505 4.27296,-14.61924 3.39283,-4.78254 8.41255,-6.49086 14.89152,-8.8477 5.29976,-1.84605 10.7805,-3.11629 16.34887,-3.79159 6.07129,-0.92207 15.46684,-2.08327 28.62671,-4.40567 l 6.00272,-1.0598"
     stroke-width="0.954507"
     stroke="#000000"
     style="clip-rule:evenodd;fill-rule:evenodd;stroke-linecap:round;stroke-linejoin:round"
     transform="translate(-0.1675,-0.3002)" /><path
     id="path50"
     stroke-linejoin="round"
     opacity="1"
     stroke-linecap="round"
     fill="#000000"
     d="m 86.572042,164.87505 h 2.3405 v 4.03074 h -6.74986 v -4.03074 h 4.40936"
     stroke-width="0.954507"
     stroke="#000000"
     style="clip-rule:evenodd;fill-rule:evenodd;stroke-linecap:round;stroke-linejoin:round"
     transform="translate(-0.1675,-0.3002)" /><path
     id="path52"
     stroke-linejoin="miter"
     opacity="1"
     stroke-linecap="butt"
     fill="#f2ae30"
     d="m 162.68458,224.03884 c 1.63451,3.87386 4.49583,7.09347 8.14015,9.15378 2.13742,1.12676 3.69763,1.29893 14.17905,1.63945 11.93874,0.37686 14.10856,0.27355 17.19659,-0.30799 3.43856,-0.41321 6.75901,-1.51703 9.76703,-3.24448 3.5281,-2.15979 6.44849,-5.19383 8.48115,-8.81325 z"
     stroke-width="0.954507"
     stroke="#141414"
     style="clip-rule:evenodd;fill-rule:evenodd;stroke-linecap:round;stroke-linejoin:round"
     transform="translate(-0.1675,-0.3002)" /><path
     id="path54"
     stroke-linejoin="miter"
     opacity="1"
     stroke-linecap="butt"
     fill="#f2ae30"
     d="m 134.12569,238.65809 c 1.52401,4.31385 4.37601,8.02319 8.14032,10.58854 2.13687,1.29893 3.69708,1.50362 14.17792,1.913 11.93856,0.47827 14.11028,0.37687 17.1964,-0.27355 3.47477,-0.51651 6.79521,-1.78676 9.73464,-3.72272 3.63288,-2.63806 6.53994,-6.16564 8.44496,-10.24802 z"
     stroke-width="0.954507"
     stroke="#141414"
     style="clip-rule:evenodd;fill-rule:evenodd;stroke-linecap:round;stroke-linejoin:round"
     transform="translate(-0.1675,-0.3002)" /><path
     id="path56"
     stroke-linejoin="miter"
     opacity="1"
     stroke-linecap="butt"
     fill="#f2ae30"
     d="m 150.67782,258.12876 c 1.74385,3.98097 4.71817,7.28858 8.47867,9.42732 2.13742,1.09425 3.66334,1.19564 13.83995,1.02537 11.63394,-0.23912 13.56754,-0.44381 16.68797,-1.19563 7.66198,-1.4118 14.06666,-6.6879 16.95847,-13.97074 z"
     stroke-width="0.954507"
     stroke="#141414"
     style="clip-rule:evenodd;fill-rule:evenodd;stroke-linecap:round;stroke-linejoin:round"
     transform="translate(-0.1675,-0.3002)" /><path
     id="path58"
     stroke-linejoin="round"
     opacity="1"
     stroke-linecap="round"
     fill="#000000"
     d="m 70.867842,164.97645 h 2.6796 v 4.26986 h -7.5976 v -4.26986 h 4.918"
     stroke-width="0.954507"
     stroke="#000000"
     style="clip-rule:evenodd;fill-rule:evenodd;stroke-linecap:round;stroke-linejoin:round"
     transform="translate(-0.1675,-0.3002)" /><path
     id="path60"
     stroke-linejoin="round"
     opacity="1"
     stroke-linecap="round"
     fill="#000000"
     d="m 114.21558,156.74476 h 1.96732 v 3.04016 h -5.59658 v -3.04016 h 3.62926"
     stroke-width="0.954507"
     stroke="#000000"
     style="clip-rule:evenodd;fill-rule:evenodd;stroke-linecap:round;stroke-linejoin:round"
     transform="translate(-0.1675,-0.3002)" /><path
     id="path62"
     stroke-linejoin="round"
     opacity="1"
     fill-opacity="0"
     stroke-linecap="round"
     fill="#000000"
     d="m 28.673399,202.58631 c 1.901209,2.66291 3.219291,5.70077 3.866806,8.91465 l 4.104172,-1.12678 c -0.225364,-1.23962 -0.73648,-2.41039 -1.492582,-3.41472 -0.501401,-0.79008 -1.452577,-1.16311 -2.351555,-0.92017 -0.899169,0.24104 -1.539254,1.0426 -1.582879,1.97806 v 4.91837 l 4.13808,-0.57966 -1.221116,-5.84235 -3.866616,1.63947 c 1.70061,2.69734 3.153758,5.54391 4.341536,8.50716 l 3.120421,-2.42569 -1.695848,-1.26451 c -1.899493,-1.40032 -3.697069,1.23007 -2.916963,2.93839 l 0.610367,2.04884 c 0.02686,0.84556 0.541788,1.59544 1.316558,1.91875 0.774962,0.32521 1.666129,0.16261 2.278783,-0.41512 3.731169,-2.93839 7.360419,-6.01261 11.193126,-8.81325 3.188429,-2.32241 6.783763,-4.20098 9.836363,-6.83137 6.78359,-5.29523 12.9229,-11.23896 19.33348,-17.07939 l -2.84916,-2.66484 c -2.61178,2.39128 -6.4784,2.8351 -9.46318,4.6448 -2.92648,1.95128 -5.61332,4.24498 -8.00469,6.83328 C 51.57553,201.6011 44.5683,206.34156 36.813924,209.4521 l 2.611589,1.46921 c -0.50864,-1.57249 6.78377,-1.63946 7.767331,-1.94745 1.645745,-0.66955 3.152615,-1.64327 4.443455,-2.86952 1.492391,-1.23008 0.203456,-3.62134 -1.492582,-3.65386 -5.053822,0 -12.346233,-1.5725 -16.789498,1.43285 -1.356754,0.92399 -1.424572,3.41664 0.508831,3.8949 3.285014,0.21234 6.548501,-0.66382 9.293631,-2.49267 l 11.973041,-5.6032 c 2.17077,-1.02538 0.64446,-4.61037 -1.628029,-3.89299 -6.641085,2.06987 -13.451525,3.5448 -20.350929,4.40567 l 2.06904,2.69926 c 0.610368,-2.05075 4.884086,-2.97282 6.78358,-3.72464 l 4.68082,-1.94553 c 3.391694,-1.50363 6.987035,-3.00727 10.582378,-4.30428 3.59534,-1.29894 6.98722,-2.08519 10.17565,-3.41664 2.84763,-1.57633 5.86269,-2.82554 8.98827,-3.72273 l -1.59413,-4.0996 c -5.46092,2.59596 -11.63395,3.96186 -16.51822,7.6865 -2.34032,1.80971 -4.070263,4.30237 -6.444488,6.01069 -3.064031,1.95892 -6.557644,3.1316 -10.175464,3.41663 l 0.542549,4.20099 c 6.972938,-0.84556 13.811193,-2.57875 20.351123,-5.15749 2.37422,-1.02538 0.54273,-4.26984 -1.62804,-3.8949 -6.764902,0.99669 -13.460088,2.42188 -20.045737,4.26986 l 2.068849,3.41665 c 4.78255,-4.40568 11.193126,-5.22637 17.366338,-6.07958 5.90956,-0.74607 11.6469,-2.5156 16.95905,-5.22634 10.7521,-5.53435 24.116008,-6.08148 33.104438,-14.72256 1.79759,-1.74275 -0.47492,-4.44202 -2.57786,-3.41664 -9.525478,4.97001 -19.869348,8.15327 -30.526578,9.3929 -2.67942,0.30799 -2.71332,4.54341 0,4.26984 4.96579,-0.48207 9.80969,-1.83457 14.31352,-3.99628 0.81593,-0.49357 1.20969,-1.4692 0.96586,-2.3951 -0.24366,-0.92781 -1.06605,-1.58015 -2.01724,-1.60119 -6.56106,-0.36538 -12.86189,2.62848 -16.75557,7.96006 -1.88501,2.87716 -4.31752,5.34877 -7.15677,7.27519 -3.23014,1.52275 -6.28903,3.38986 -9.12409,5.56687 -0.51968,0.70016 -0.5675,1.6471 -0.12097,2.39701 0.44635,0.74989 1.29828,1.15162 2.1561,1.01962 1.70595,-0.40746 3.31074,-1.1631 4.71455,-2.221 2.13685,-1.57058 0,-5.25889 -2.13686,-3.65387 -1.54211,1.05026 -3.15109,1.9972 -4.81647,2.83511 -0.85002,0.57389 -1.17729,1.67387 -0.7801,2.62273 0.39701,0.95077 1.40686,1.48258 2.40833,1.27023 3.07545,-1.33527 6.00766,-2.98237 8.75089,-4.91834 3.93882,-2.02205 8.06204,-3.65769 12.31232,-4.88393 3.76488,-1.2645 7.6995,-1.81163 11.43048,-3.10865 3.27283,-1.33336 6.29113,-3.22918 8.920648,-5.60322 1.66193,-1.33146 0,-4.23541 -2.069058,-3.41473 -4.52251,1.5706 -9.04502,2.93648 -13.56735,4.09959 -2.27249,0.57964 -1.86558,4.40568 0.54274,4.20099 5.68267,-0.012 11.32324,-0.98139 16.687788,-2.86953 4.27371,-1.94745 5.80002,-7.24267 9.972,-8.98352 1.28894,-0.54712 2.34032,-2.46014 0.94965,-3.41663 -5.29118,-4.26986 -10.78602,-1.2626 -15.466658,2.35684 -0.4513,0.54519 -0.60732,1.27789 -0.41758,1.96082 0.18974,0.68104 0.70104,1.22624 1.36723,1.45581 3.764898,0.88763 8.988268,2.18657 12.515798,0 1.54687,-1.2052 2.98801,-2.5424 4.30761,-3.99628 2.10467,-1.87859 4.37545,-3.56013 6.78379,-5.02167 0.85019,-0.57391 1.17729,-1.67389 0.78028,-2.62273 -0.3972,-0.95078 -1.40705,-1.4826 -2.40832,-1.27216 l -7.59778,2.1177 c -0.77725,0.10524 -1.53983,0.30034 -2.27251,0.58156 -0.47491,0.20469 -1.52629,0 -0.37319,0.23912 l 1.28894,3.14308 c -0.71228,1.23007 -0.71228,0.47827 0.27146,0.30609 1.15998,-0.308 2.29422,-0.70782 3.3917,-1.19563 l 12.10887,-4.03073 c 2.62225,-0.67338 5.19498,-1.52848 7.69951,-2.56152 1.96159,-1.34562 4.05236,-2.48998 6.24103,-3.41551 3.83271,-1.12732 7.93688,-1.50304 11.8374,-2.39126 2.6457,-0.61484 1.5263,-4.71384 -1.11919,-4.09901 -4.13808,0.92226 -8.51353,1.26393 -12.51597,2.56191 -2.78133,0.88821 -4.95209,2.76699 -7.59759,3.86008 -2.6457,1.09311 -5.90195,1.94707 -8.785,2.90415 -3.73098,1.19564 -7.46195,2.42379 -11.12512,3.75716 -1.25501,0.44381 -3.39188,0.81877 -4.00244,2.08326 -0.32823,0.572 -0.37681,1.26641 -0.13183,1.87859 0.245,0.61407 0.7563,1.07893 1.38685,1.26449 1.14683,0.14157 2.31061,0 3.3919,-0.40937 3.08651,-0.75182 6.17301,-1.6739 9.25971,-2.56344 l -1.66213,-3.89299 c -2.80894,1.66815 -5.45502,3.6022 -7.90296,5.77156 -1.66195,1.50363 -2.91697,3.41665 -5.3251,3.7916 -2.5011,0.19131 -5.01477,-0.12243 -7.394338,-0.92207 l 0.915938,3.41663 c 2.47596,-1.91301 6.34257,-4.91835 9.46318,-2.39126 l 0.94965,-3.41664 c -3.59534,1.50363 -5.18945,4.33872 -7.76733,7.0724 -4.137898,4.20099 -12.380148,4.57594 -17.976708,5.01976 l 0.57664,4.20289 c 4.52252,-1.18415 9.04484,-2.55196 13.56735,-4.09959 l -2.06904,-3.41664 c -2.99658,2.59978 -6.56697,4.43819 -10.41283,5.36409 -3.70963,0.87425 -7.36726,1.95702 -10.95574,3.24446 -2.88306,1.05982 -5.83393,2.05076 -8.58135,3.41666 -3.07794,2.00101 -6.27189,3.81454 -9.56491,5.43104 l 1.62803,3.89299 c 1.67299,-0.83599 3.28273,-1.79442 4.81646,-2.86762 l -2.13686,-3.65576 c -1.10281,0.82642 -2.36051,1.41945 -3.69707,1.74276 l 2.06904,3.41472 c 4.40936,-4.06515 10.17547,-5.19192 14.14381,-10.04141 1.58155,-2.24778 3.3275,-4.37124 5.22356,-6.35503 3.03983,-2.37021 6.85329,-3.50464 10.68429,-3.1756 l -1.08548,-3.96377 c -3.83461,1.83268 -7.95344,2.98813 -12.17668,3.41665 v 4.26984 c 11.44611,-1.27981 22.562644,-4.6601 32.799088,-9.97445 l -2.54397,-3.41665 c -5.12164,4.92028 -11.769598,6.8333 -18.383628,8.57413 -5.668,1.82884 -11.18073,4.11298 -16.4843,6.83329 -10.54866,4.95279 -23.437632,2.28797 -32.493899,10.6574 -0.559503,0.69059 -0.628656,1.66241 -0.172785,2.4257 0.455681,0.7652 1.338656,1.1612 2.207917,0.98903 6.557454,-1.93788 13.230167,-3.4549 19.977917,-4.54341 l -1.62802,-3.89298 c -6.183117,2.36448 -12.630271,3.95994 -19.197821,4.74809 -2.340315,0.34052 -1.797766,4.50898 0.576649,4.16655 6.169211,-0.45911 11.964468,-3.15265 16.314762,-7.58318 5.29119,-5.36219 12.31233,-6.83137 18.85854,-9.97446 2.30641,-1.09233 0.57666,-4.30428 -1.62803,-3.89298 -4.07692,1.28746 -8.04641,2.89821 -11.8715,4.81506 -4.51109,1.60693 -9.056265,2.97282 -13.567348,4.81697 -4.511083,1.84414 -8.615255,3.86045 -12.9907,5.7046 -2.611781,1.12676 -4.850368,2.18658 -5.698292,5.05609 -0.16688,0.63896 -0.03239,1.31999 0.365002,1.84798 0.397387,0.52608 1.013279,0.83981 1.67013,0.84938 7.231067,-0.89147 14.370124,-2.42379 21.33449,-4.57593 l -1.628028,-3.8949 -8.547437,3.96185 c -2.442042,1.1612 -6.783579,4.20289 -9.530996,3.72464 l 0.50883,3.89297 c 3.391695,-2.35682 10.582377,-0.95649 14.652638,-0.85319 l -1.492391,-3.65577 c -2.199725,1.53806 -4.860273,2.2631 -7.529775,2.05075 -1.298651,0.0402 -2.558249,0.4553 -3.629442,1.19563 -1.881395,1.18607 -2.731224,3.50081 -2.068849,5.63574 0.328235,1.12294 1.489153,1.77718 2.61159,1.4692 7.610928,-2.89439 14.541195,-7.3498 20.351118,-13.0831 2.90916,-3.16795 6.22922,-5.92462 9.87009,-8.19918 3.4416,-1.23963 6.71272,-2.91544 9.73465,-4.98723 2.03513,-1.84415 -0.94966,-4.81505 -2.98479,-3.00535 -6.51231,5.73904 -12.82115,11.9219 -19.70665,17.07939 -3.391694,2.49266 -6.783579,4.37315 -10.175464,6.83138 l -10.548658,8.36943 3.62925,1.50363 c -0.169356,-1.4558 -0.570172,-2.87526 -1.187016,-4.2029 l -2.883055,2.90396 1.661937,1.2645 c 0.748673,0.42852 1.679656,0.36157 2.361271,-0.16834 0.681615,-0.5299 0.981083,-1.41946 0.75915,-2.25736 -1.246264,-3.26169 -2.778661,-6.40477 -4.578902,-9.39289 -0.547502,-0.91251 -1.675274,-1.28363 -2.651786,-0.87424 -0.976322,0.41128 -1.507632,1.47875 -1.248739,2.51369 l 1.187017,5.94374 c 0.474921,2.39126 4.13808,1.77527 4.171989,-0.58157 v -4.91835 l -3.968343,1.09233 c 0.608844,0.62747 0.980704,1.44815 1.051379,2.32241 0.61056,2.69925 4.680821,1.57248 4.104173,-1.12678 -0.744864,-3.57543 -2.211156,-6.95763 -4.307629,-9.94002 -1.56021,-2.221 -5.22356,0 -3.66316,2.15215 z"
     stroke-width="0.954507"
     stroke-opacity="0"
     stroke="#23518c"
     style="clip-rule:evenodd;fill-rule:evenodd;stroke-linecap:round;stroke-linejoin:round"
     transform="translate(-0.1675,-0.3002)" /><path
     id="path64"
     stroke-linejoin="round"
     opacity="1"
     fill-opacity="0"
     stroke-linecap="round"
     fill="#000000"
     d="m 235.8811,140.14343 c 4.1377,18.82176 13.80376,33.61184 21.0295,33.54489"
     stroke-width="0.954507"
     stroke="#000000"
     style="clip-rule:evenodd;fill-rule:evenodd;stroke-linecap:round;stroke-linejoin:round"
     transform="translate(-0.1675,-0.3002)" /><path
     id="path66"
     stroke-linejoin="round"
     opacity="1"
     fill-opacity="0"
     stroke-linecap="round"
     fill="#000000"
     d="m 215.96984,146.46288 c 4.13961,17.07958 12.17688,30.91374 17.60428,31.05146"
     stroke-width="0.954507"
     stroke="#000000"
     style="clip-rule:evenodd;fill-rule:evenodd;stroke-linecap:round;stroke-linejoin:round"
     transform="translate(-0.1675,-0.3002)" /><path
     id="path68"
     stroke-linejoin="round"
     opacity="1"
     fill-opacity="0"
     stroke-linecap="round"
     fill="#000000"
     d="m 224.51767,143.83267 c 2.91657,17.69443 11.15959,31.90448 17.87478,32.24692"
     stroke-width="0.954507"
     stroke="#000000"
     style="clip-rule:evenodd;fill-rule:evenodd;stroke-linecap:round;stroke-linejoin:round"
     transform="translate(-0.1675,-0.3002)" /><path
     id="path70"
     stroke-linejoin="round"
     opacity="1"
     fill-opacity="0"
     stroke-linecap="round"
     fill="#000000"
     d="m 207.11723,149.74217 c 2.71464,16.49878 10.44711,29.75214 16.68795,30.06014"
     stroke-width="0.954507"
     stroke="#050505"
     style="clip-rule:evenodd;fill-rule:evenodd;stroke-linecap:round;stroke-linejoin:round"
     transform="translate(-0.1675,-0.3002)" /><path
     id="path72"
     stroke-linejoin="round"
     opacity="1"
     fill-opacity="0"
     stroke-linecap="round"
     fill="#000000"
     d="m 233.57412,155.85673 c 4.1377,11.4096 11.39582,19.84599 15.9088,19.19748"
     stroke-width="0.954507"
     stroke="#000000"
     style="clip-rule:evenodd;fill-rule:evenodd;stroke-linecap:round;stroke-linejoin:round"
     transform="translate(-0.1675,-0.3002)" /><path
     id="path74"
     stroke-linejoin="round"
     opacity="1"
     fill-opacity="0"
     stroke-linecap="round"
     fill="#000000"
     d="m 202.97953,160.63888 c 2.68035,11.98963 8.8869,21.41696 13.56753,21.35"
     stroke-width="0.954507"
     stroke="#050505"
     style="clip-rule:evenodd;fill-rule:evenodd;stroke-linecap:round;stroke-linejoin:round"
     transform="translate(-0.1675,-0.3002)" /><path
     id="path80"
     stroke-linejoin="round"
     opacity="0"
     fill-opacity="0"
     stroke-linecap="round"
     fill="#23518c"
     d="m 35.595664,125.52341 c 4.429168,-0.55592 12.676563,0.6156 17.143641,0.2705 12.239547,-0.94541 17.324997,-0.0453 29.423377,1.97959 7.99918,1.33873 23.340678,0.46485 31.221928,-2.17319"
     stroke-width="0.954507"
     stroke="#000000"
     style="clip-rule:evenodd;fill-rule:evenodd;stroke-linecap:round;stroke-linejoin:round"
     transform="translate(-0.1675,-0.3002)" /><path
     id="path82"
     stroke-linejoin="round"
     opacity="1"
     fill-opacity="0"
     stroke-linecap="round"
     fill="#000000"
     d="m 113.00837,124.75324 c 0.71895,0.72215 6.34619,4.96139 9.85504,5.54869 2.13133,0.35658 15.53066,0.88649 21.2762,0 3.95481,-0.61026 12.75124,-1.337 16.73139,-1.90785 6.69804,-0.96091 10.8529,-2.32699 17.70333,-1.34409 2.47654,0.35525 18.52822,4.81965 24.18802,5.95637 2.04218,0.41014 14.30478,3.94252 18.48821,4.40931 1.9393,0.21636 14.87819,0.30913 17.33185,0.30913"
     stroke-width="0.954507"
     stroke="#000000"
     style="clip-rule:evenodd;fill-rule:evenodd;stroke-linecap:round;stroke-linejoin:round"
     transform="translate(-0.1675,-0.3002)" /><path
     id="path84"
     stroke-linejoin="round"
     opacity="1"
     fill-opacity="0"
     stroke-linecap="round"
     fill="#000000"
     d="m 238.58241,137.77263 c 5.73601,-0.16108 10.64714,-0.0378 16.00216,2.35147 8.52496,3.8046 13.00937,13.01424 16.74511,21.86402 0.84202,1.99643 1.33922,4.42883 1.70499,6.56375"
     stroke-width="0.954507"
     stroke="#000000"
     style="clip-rule:evenodd;fill-rule:evenodd;stroke-linecap:round;stroke-linejoin:round"
     transform="translate(-0.1675,-0.3002)" /><g
     transform="matrix(1.9050183,0,0,1.9130139,-33.103537,-27.022653)"
     vectornator:layerName="Nueva línea"
     id="Nueva línea">

<path
   id="path89"
   stroke-linejoin="round"
   opacity="1"
   fill-opacity="0"
   stroke-linecap="round"
   fill="#000000"
   d="m 99.8457,59.9749 c 1.8893,5.3512 3.6603,15.3592 3.6603,20.7344"
   stroke-width="0.5"
   stroke="#000000" />
<path
   id="path91"
   stroke-linejoin="round"
   opacity="1"
   fill-opacity="0"
   stroke-linecap="round"
   fill="#000000"
   d="m 76.5499,79.2369 c -0.0047,-1.9593 0.4886,-6.0273 0.9525,-7.651 0.6421,-2.2473 2.3592,-6.4906 2.3592,-6.4906 0,0 1.3276,-2.5623 1.5131,-3.5609 0.2849,-1.5336 -0.3086,-2.8252 -0.6534,-4.618"
   stroke-width="0.5"
   stroke="#000000" />
<path
   id="path93"
   stroke-linejoin="round"
   opacity="1"
   fill-opacity="0"
   stroke-linecap="round"
   fill="#000000"
   d="m 89.3243,54.8439 c -0.3836,0 -0.3948,0.0118 -0.9021,0.0056 -2.2813,-0.0282 -6.1312,-0.2159 -7.4086,1.2528 -0.2317,0.2664 -0.3232,0.4664 -0.3082,0.8141"
   stroke-width="0.5"
   stroke="#000000" />
<path
   id="path95"
   stroke-linejoin="round"
   opacity="1"
   fill-opacity="0"
   stroke-linecap="round"
   fill="#000000"
   d="m 30.5224,105.334 c 0,-35.6914 29.2489,-64.6253 65.3292,-64.6253 36.0804,0 65.3294,28.9339 65.3294,64.6253 0,25.493 -14.921,47.538 -36.595,58.055 -5.349,2.596 -11.109,4.49 -17.158,5.56 -3.757,0.664 -7.6257,1.011 -11.5764,1.011 -36.0803,0 -65.3292,-28.934 -65.3292,-64.626 z"
   stroke-width="0.5"
   stroke="#000000" />
<path
   id="path97"
   stroke-linejoin="round"
   opacity="1"
   fill-opacity="0"
   stroke-linecap="round"
   fill="#000000"
   d="m 35.0139,127.341 c 0.3689,0.23 -0.0298,-0.149 0,0 0.048,0.241 -0.0322,0.598 -0.0196,0.89 0.0087,0.203 0.0619,0.374 0.2325,0.456"
   stroke-width="0.5"
   stroke="#f2ae30" />
</g></g>
</svg>