<?xml version="1.0" encoding="UTF-8" standalone="no"?>
<svg
   height="100%"
   style="fill-rule:evenodd;clip-rule:evenodd;stroke-linecap:round;stroke-linejoin:round;"
   xml:space="preserve"
   width="100%"
   version="1.1"
   viewBox="0 0 1000 1000"
   id="svg582"
   sodipodi:docname="senda.svg"
   inkscape:version="1.1 (c68e22c387, 2021-05-23)"
   xmlns:inkscape="http://www.inkscape.org/namespaces/inkscape"
   xmlns:sodipodi="http://sodipodi.sourceforge.net/DTD/sodipodi-0.dtd"
   xmlns="http://www.w3.org/2000/svg"
   xmlns:svg="http://www.w3.org/2000/svg"
   xmlns:rdf="http://www.w3.org/1999/02/22-rdf-syntax-ns#"
   xmlns:cc="http://creativecommons.org/ns#"
   xmlns:dc="http://purl.org/dc/elements/1.1/"
   xmlns:vectornator="http://vectornator.io"><sodipodi:namedview
   inkscape:document-rotation="0"
   pagecolor="#ffffff"
   bordercolor="#666666"
   borderopacity="1"
   objecttolerance="10"
   gridtolerance="10"
   guidetolerance="10"
   inkscape:pageopacity="0"
   inkscape:pageshadow="2"
   inkscape:window-width="1920"
   inkscape:window-height="1017"
   id="namedview584"
   showgrid="false"
   inkscape:zoom="0.50383782"
   inkscape:cx="511.07716"
   inkscape:cy="947.7256"
   inkscape:window-x="-8"
   inkscape:window-y="-8"
   inkscape:window-maximized="1"
   inkscape:current-layer="svg582"
   inkscape:pagecheckerboard="0" />
<metadata
   id="metadata2">
<vectornator:setting
   key="DimensionsVisible"
   value="1" />
<vectornator:setting
   key="PencilOnly"
   value="0" />
<vectornator:setting
   key="SnapToPoints"
   value="0" />
<vectornator:setting
   key="OutlineMode"
   value="0" />
<vectornator:setting
   key="CMYKEnabledKey"
   value="0" />
<vectornator:setting
   key="RulersVisible"
   value="1" />
<vectornator:setting
   key="SnapToEdges"
   value="0" />
<vectornator:setting
   key="GuidesVisible"
   value="1" />
<vectornator:setting
   key="DisplayWhiteBackground"
   value="0" />
<vectornator:setting
   key="doHistoryDisabled"
   value="0" />
<vectornator:setting
   key="SnapToGuides"
   value="1" />
<vectornator:setting
   key="TimeLapseWatermarkDisabled"
   value="0" />
<vectornator:setting
   key="Units"
   value="Pixels" />
<vectornator:setting
   key="DynamicGuides"
   value="0" />
<vectornator:setting
   key="IsolateActiveLayer"
   value="0" />
<vectornator:setting
   key="SnapToGrid"
   value="0" />
<rdf:RDF><cc:Work
     rdf:about=""><dc:format>image/svg+xml</dc:format><dc:type
       rdf:resource="http://purl.org/dc/dcmitype/StillImage" /></cc:Work></rdf:RDF></metadata>
<defs
   id="defs4" />

<g
   id="g256"
   transform="matrix(0.85256235,0,0,0.82719775,69.902987,83.771664)"><g
     transform="matrix(2.1099639,0,0,2.1232034,-646.81766,-550.03653)"
     id="Color"
     vectornator:layerName="Color">
<path
   stroke="#23518c"
   stroke-width="1"
   d="m 545.969,271.188 c -122.173,0 -221.219,100.956 -221.219,225.5 0,124.543 99.046,225.531 221.219,225.531 122.173,0 221.219,-100.988 221.219,-225.531 0,-124.544 -99.046,-225.5 -221.219,-225.5 z"
   fill="#23518c"
   stroke-linecap="round"
   opacity="1"
   stroke-linejoin="round"
   id="path6" />
<path
   stroke="#242259"
   stroke-width="1"
   d="m 662.944,515.666 31.649,14.408 1.631,38.845 -20.901,-2.141 -0.612,-20.493 -3.612,15.78 -15.046,-9.969 z"
   fill="#242259"
   stroke-linecap="round"
   opacity="1"
   stroke-linejoin="round"
   id="path8" />
<path
   stroke="#f2ae30"
   stroke-width="1"
   d="m 693.956,449.268 c 0,-0.031 0.216,-0.056 0.484,-0.056 0.267,0 0.484,0.025 0.484,0.056 0,0.032 -0.217,0.057 -0.484,0.057 -0.268,0 -0.484,-0.025 -0.484,-0.057 z"
   fill="#f2ae30"
   stroke-linecap="round"
   opacity="1"
   stroke-linejoin="round"
   id="path10" />
<path
   stroke="#5fc2d9"
   stroke-width="1"
   d="m 486.458,523.038 c 0,0 -11.416,8.715 -15.76,8.384 -19.011,-7.568 -35.015,-21.501 -35.015,-21.501 0,0 10.701,37.432 10.548,39.648 0.2,6.418 1.279,6.869 -2.131,13.788 -0.818,-0.383 2.874,17.882 5.825,38.571 4.16,29.173 -9.731,43.682 -6.012,58.864 0.6,2.446 -9.165,-1.344 -8.943,0.989 0.392,4.117 2.334,-20.56 2.001,-20.701 -16.984,-4.771 -40.729,7.662 -67.894,-41.763 0,0 -10.45,8.654 -10.219,-4.803 0.213,-12.493 0.753,-25.943 9.108,-32.727 1.727,-1.403 0.709,0.659 0,-0.628 -4.519,-8.205 -19.817,-22.218 -8.154,-90.106 1.043,-6.074 4.69,-13.386 6.532,-20.258 0.379,-0.278 11.392,-8.271 15.823,-7.591 2.427,0.373 3.608,-9.554 3.608,-9.554 14.453,-1.357 27.348,4.967 42.556,10.985 l 4.536,6.861 c 2.337,1.561 5.526,1.703 5.526,1.703 0,0 9.299,13.585 19.357,27.801 5.802,8.2 12.001,15.668 17.059,22.148 8.413,10.777 10.723,10.007 11.741,9.809"
   fill="#5fc2d9"
   stroke-linecap="round"
   opacity="1"
   stroke-linejoin="round"
   id="path12" />
<path
   stroke="#23518c"
   stroke-width="1"
   d="m 444.1,561.494 c -0.818,-0.384 2.874,17.882 5.825,38.57 4.64,32.538 15.07,66.267 16.991,84.643 0.292,2.795 9.258,2.633 8.295,6.888 -0.91,4.023 -0.476,-15.26 -9.64,-9.919 -9.165,5.341 -78.167,-15.181 -105.332,-64.606 0,0 -1.612,-10.962 -1.381,-24.42 0.213,-12.492 0.753,-25.943 9.108,-32.727 1.727,-1.402 0.709,0.66 0,-0.628 -4.519,-8.204 -13.207,-0.944 74.382,6.511"
   fill="#23518c"
   stroke-linecap="round"
   opacity="1"
   stroke-linejoin="round"
   id="path14" />
<path
   stroke="#f2ae30"
   stroke-width="1"
   d="m 514.953,445.667 c 0,-46.522 39.228,-84.235 87.617,-84.235 48.39,0 87.618,37.713 87.618,84.235 0,25.401 -11.898,47.565 -30.393,63.009 -15.379,12.842 -35.255,21.227 -57.225,21.227 -48.389,0 -87.617,-37.714 -87.617,-84.236 z"
   fill="#f2ae30"
   stroke-linecap="round"
   opacity="1"
   stroke-linejoin="round"
   id="path16" />
<path
   stroke="#d93b3b"
   stroke-width="1"
   d="m 590.499,466.172 17.89,0.808 20.66,105.379 -57.71,0.461 z"
   fill="#d93b3b"
   stroke-linecap="round"
   opacity="1"
   stroke-linejoin="round"
   id="path18" />
<path
   stroke="#d93b3b"
   stroke-width="1"
   d="m 593.264,475.058 0.467,6.58 -62.789,91.959 -13.966,-0.231 z"
   fill="#d93b3b"
   stroke-linecap="round"
   opacity="1"
   stroke-linejoin="round"
   id="path20" />
<path
   stroke="#d93b3b"
   stroke-width="1"
   d="m 612.584,490.347 -1.668,-8.757 46.989,56.919 -1.963,11.311 z"
   fill="#d93b3b"
   stroke-linecap="round"
   opacity="1"
   stroke-linejoin="round"
   id="path22" />
<path
   stroke="#f2ae30"
   stroke-width="1"
   d="m 736.413,346.91 c 0,-0.159 0.453,-0.289 1.011,-0.289 0.559,0 1.011,0.13 1.011,0.289 0,0.16 -0.452,0.289 -1.011,0.289 -0.558,0 -1.011,-0.129 -1.011,-0.289 z"
   fill="#f2ae30"
   stroke-linecap="round"
   opacity="1"
   stroke-linejoin="round"
   id="path24" />
<path
   stroke="#d93b3b"
   stroke-width="1"
   d="m 620.072,421.719 1.891,1.607 -17.052,23.352 c 0,0 -9.986,2.93 -6.583,-5.956 z"
   fill="#d93b3b"
   stroke-linecap="round"
   opacity="1"
   stroke-linejoin="round"
   id="path26" />
<path
   stroke="#5fc2d9"
   stroke-width="1"
   d="m 621.654,425.517 26.882,24.948 18.954,3.356 7.629,4.402 c 0,0 5.362,11.18 18.146,4.323 l 5.013,3.206 16.555,35.396 -14.045,33.057 4.547,-29.757 -7.513,-10.973 -0.374,35.761 c 0,0 -18.012,0.333 -37.52,-17.236 0,0 8.003,-39.859 4.439,-41.855 -8.291,-4.642 -21.61,-13.125 -21.61,-13.125 z"
   fill="#5fc2d9"
   stroke-linecap="round"
   opacity="1"
   stroke-linejoin="round"
   id="path28" />
<path
   stroke="#23518c"
   stroke-width="1"
   d="m 672.687,447.517 c 0,-9.054 5.146,-16.393 11.494,-16.393 6.348,0 12.542,5.586 12.542,14.64 0,9.054 -4.762,17.243 -11.111,17.243 -6.348,0 -12.925,-6.436 -12.925,-15.49 z"
   fill="#23518c"
   stroke-linecap="round"
   opacity="1"
   stroke-linejoin="round"
   id="path30" />
<path
   stroke="#f2ae30"
   stroke-width="1"
   d="m 388.888,417.216 c 0,-1.187 14.771,-25.505 27.496,-25.456 18.79,0.073 19.985,31.884 19.985,33.07 0,0.481 31.855,9.138 26.864,10.563 -2.198,0.628 -2.457,2.406 -9.373,2.078 -16.14,-0.764 -44.635,-5.026 -47.353,-5.026 -3.07,0 -47.984,-12.388 -44.138,-14.113 6.799,-3.049 26.519,-0.488 26.519,-1.116 z"
   fill="#f2ae30"
   stroke-linecap="round"
   opacity="1"
   stroke-linejoin="round"
   id="path32" />
</g><g
     transform="matrix(2.1099639,0,0,2.1481488,-647.68908,-560.41542)"
     id="Se単or"
     vectornator:layerName="Se単or">
<path
   stroke="#000000"
   stroke-width="1"
   d="m 383.936,442.727 c 0,0 -15.71,1.251 -19.212,10.299 -7.104,18.356 -11.873,54.541 -7.868,84.584 1.486,11.149 11.433,23.749 11.433,23.749 l 76.082,2.134 c 0,0 5.26,-5.176 0.632,-20.986 -8.526,-29.126 -14.019,-56.083 -10.03,-78.8 1.569,-8.929 4.174,-11.069 4.174,-11.069 z"
   fill="none"
   stroke-linecap="round"
   opacity="1"
   stroke-linejoin="round"
   id="path366" />
<path
   stroke="#000000"
   stroke-width="1"
   d="m 88.1835,112.978 c 0,0 -8.7638,0.707 -10.717,5.823 -3.9627,10.381 -6.623,30.844 -4.3891,47.833 0.8289,6.305 6.3775,13.43 6.3775,13.43 l 40.7661,1.859 c 0,0 4.608,-3.579 2.027,-12.52 -4.756,-16.471 -7.821,-31.715 -5.595,-44.561 0.875,-5.05 2.328,-6.26 2.328,-6.26 z"
   fill="none"
   stroke-linecap="round"
   opacity="0"
   stroke-linejoin="round"
   id="path368" />
<path
   stroke="#000000"
   stroke-width="1"
   d="m 439.667,453.606 c 0,0 24.177,36.539 35.945,50.205 6.056,7.032 10.744,8.595 10.744,8.595 l 0.391,10.353 c 0,0 -8.791,9.963 -15.824,8.596 -12.097,-2.352 -33.868,-20.065 -33.868,-20.065"
   fill="none"
   stroke-linecap="round"
   opacity="1"
   stroke-linejoin="round"
   id="path370" />
<path
   stroke="#000000"
   stroke-width="1"
   d="m 119.271,119.129 c 0,0 13.487,20.664 20.051,28.391 3.378,3.977 5.993,4.861 5.993,4.861 l 0.218,5.855 c 0,0 -4.903,5.634 -8.826,4.861 -6.748,-1.331 -18.893,-11.347 -18.893,-11.347"
   fill="none"
   stroke-linecap="round"
   opacity="0"
   stroke-linejoin="round"
   id="path372" />
<path
   stroke="#000000"
   stroke-width="1"
   d="m 368.366,561.612 c 0,0 -7.819,1.274 -9.416,23.04 -0.736,10.038 -0.27,19.496 0.45,30.695"
   fill="none"
   stroke-linecap="round"
   opacity="1"
   stroke-linejoin="round"
   id="path374" />
<path
   stroke="#000000"
   stroke-width="1"
   d="m 79.498,180.207 c 0,0 -4.3618,0.721 -5.2524,13.029 -0.4108,5.677 -0.1509,11.025 0.2512,17.358"
   fill="none"
   stroke-linecap="round"
   opacity="0"
   stroke-linejoin="round"
   id="path376" />
<path
   stroke="#000000"
   stroke-width="1"
   d="m 444.566,562.99 c 0.854,5.642 1.961,14.743 3.443,24.102 3.721,23.495 11.488,83.233 15.92,118.67"
   fill="none"
   stroke-linecap="round"
   opacity="1"
   stroke-linejoin="round"
   id="path378" />
<path
   stroke="#000000"
   stroke-width="1"
   d="m 120.186,182.042 c 0,0 1.079,7.468 1.905,12.761 2.076,13.286 5.904,45.155 8.376,65.195"
   fill="none"
   stroke-linecap="round"
   opacity="0"
   stroke-linejoin="round"
   id="path380" />
<path
   stroke="#000000"
   stroke-width="1"
   d="m 394.181,621.953 c 0,0 0.466,38.718 0.525,37.057"
   fill="none"
   stroke-linecap="round"
   opacity="1"
   stroke-linejoin="round"
   id="path382" />
<path
   stroke="#000000"
   stroke-width="1"
   d="m 93.8984,214.33 c 0,0 0.2596,21.895 0.2928,20.955"
   fill="none"
   stroke-linecap="round"
   opacity="0"
   stroke-linejoin="round"
   id="path384" />
<path
   stroke="#000000"
   stroke-width="1"
   d="m 394.168,621.508 0.176,13.125"
   fill="none"
   stroke-linecap="round"
   opacity="1"
   stroke-linejoin="round"
   id="path386" />
<path
   stroke="#000000"
   stroke-width="1"
   d="m 93.891,214.078 0.0983,7.423"
   fill="none"
   stroke-linecap="round"
   opacity="0"
   stroke-linejoin="round"
   id="path388" />
<path
   stroke="#000000"
   stroke-width="1"
   d="m 361.525,418.432 c 0.62,-3.59 24.131,-2.682 52.513,2.027 28.383,4.71 50.888,11.438 50.268,15.028 -0.619,3.591 -24.13,2.683 -52.513,-2.027 -28.382,-4.709 -50.888,-11.438 -50.268,-15.028 z"
   fill="none"
   stroke-linecap="round"
   opacity="1"
   stroke-linejoin="round"
   id="path390" />
<path
   stroke="#000000"
   stroke-width="1"
   d="m 75.6821,99.2387 c 0.3458,-2.0302 13.4607,-1.517 29.2929,1.1463 15.832,2.663 28.387,6.468 28.041,8.498 -0.346,2.031 -13.461,1.517 -29.293,-1.146 -15.8325,-2.663 -28.3867,-6.468 -28.0409,-8.4983 z"
   fill="none"
   stroke-linecap="round"
   opacity="0"
   stroke-linejoin="round"
   id="path392" />
<path
   stroke="#000000"
   stroke-width="1"
   d="m 388.697,416.977 c 0,0 14.454,-27.986 29.14,-25.35 15.495,2.78 16.889,17.68 18.922,32.502"
   fill="none"
   stroke-linecap="round"
   opacity="1"
   stroke-linejoin="round"
   id="path394" />
<path
   stroke="#000000"
   stroke-width="1"
   d="m 90.8389,98.4159 c 0,0 8.0628,-15.8261 16.2551,-14.3357 8.644,1.5724 9.421,9.998 10.555,18.3798"
   fill="none"
   stroke-linecap="round"
   opacity="0"
   stroke-linejoin="round"
   id="path396" />
<path
   stroke="#000000"
   stroke-width="1"
   d="m 382.877,442.441 c 0,0 3.007,-9.155 3.214,-9.213 7.712,-2.142 29.137,5.785 29.137,5.785 l 13.483,5.494 4.279,6.438"
   fill="none"
   stroke-linecap="round"
   opacity="1"
   stroke-linejoin="round"
   id="path398" />
<path
   stroke="#000000"
   stroke-width="1"
   d="m 87.5925,112.816 c 0,0 1.6775,-5.178 1.7926,-5.21 4.3024,-1.212 16.2539,3.271 16.2539,3.271 l 7.521,3.107 2.387,3.641"
   fill="none"
   stroke-linecap="round"
   opacity="0"
   stroke-linejoin="round"
   id="path400" />
<path
   stroke="#000000"
   stroke-width="1"
   d="m 391.215,429.614 -0.754,3.191"
   fill="none"
   stroke-linecap="round"
   opacity="1"
   stroke-linejoin="round"
   id="path402" />
<path
   stroke="#000000"
   stroke-width="1"
   d="m 92.2437,105.562 -0.4205,1.805"
   fill="none"
   stroke-linecap="round"
   opacity="0"
   stroke-linejoin="round"
   id="path404" />
</g><g
     transform="matrix(2.1099639,0,0,2.1481488,-647.68908,-560.41542)"
     id="Cuerda"
     vectornator:layerName="Cuerda">
<path
   stroke="#000000"
   stroke-width="1"
   d="m 449.958,541.905 c 0.264,-1.092 8.837,-11.5 12.627,-13.683"
   fill="none"
   stroke-linecap="round"
   opacity="1"
   stroke-linejoin="round"
   id="path407" />
<path
   stroke="#000000"
   stroke-width="1"
   d="m 125.012,169.063 c 0.147,-0.618 4.929,-6.503 7.043,-7.738"
   fill="none"
   stroke-linecap="round"
   opacity="0"
   stroke-linejoin="round"
   id="path409" />
<path
   stroke="#000000"
   stroke-width="1"
   d="M 482.437,509.884 601.88,442.736"
   fill="none"
   stroke-linecap="round"
   opacity="1"
   stroke-linejoin="round"
   id="path411" />
<path
   stroke="#000000"
   stroke-width="1"
   d="m 143.129,150.955 66.629,-37.973"
   fill="none"
   stroke-linecap="round"
   opacity="0"
   stroke-linejoin="round"
   id="path413" />
<path
   stroke="#000000"
   stroke-width="1"
   d="m 361.724,552.176 c -3.056,-0.401 -14.427,1.637 -8.228,7.697 0.862,0.844 1.56,1.208 2.677,1.668 2.786,1.149 5.495,1.412 8.44,1.899 7.574,1.252 15.12,2.337 22.779,2.991 16.78,1.432 33.473,2.239 50.313,1.867 7.142,-0.157 15.724,2.985 22.332,-1.326 1.76,-1.148 0.556,-8.088 -1.657,-13.163 -1.169,-2.68 -3.484,-5.1 -3.907,-5.305 -4.404,-2.14 -2.862,7.613 -7.605,6.336"
   fill="none"
   stroke-linecap="round"
   opacity="1"
   stroke-linejoin="round"
   id="path415" />
<path
   stroke="#000000"
   stroke-width="1"
   d="m 75.7931,174.871 c -1.7047,-0.227 -8.0478,0.926 -4.5902,4.353 0.4813,0.477 0.8707,0.683 1.4935,0.943 1.554,0.65 3.0654,0.798 4.7082,1.074 4.225,0.708 8.4339,1.321 12.7068,1.691 9.3598,0.81 18.6716,1.266 28.0656,1.056 3.984,-0.089 8.771,1.688 12.457,-0.75 0.982,-0.649 0.31,-4.574 -0.924,-7.443 -0.652,-1.516 -1.944,-2.885 -2.179,-3.001 -2.457,-1.21 -1.597,4.306 -4.243,3.583"
   fill="none"
   stroke-linecap="round"
   opacity="0"
   stroke-linejoin="round"
   id="path417" />
<path
   stroke="#000000"
   stroke-width="1"
   d="m 455.553,568.169 c 0.939,-0.96 4.392,-21.583 3.637,-23.118 -2.105,-4.276 -10.409,-2.623 -14.135,-2.646 -1.241,-0.008 -6.686,-0.088 -6.056,-0.005"
   fill="none"
   stroke-linecap="round"
   opacity="1"
   stroke-linejoin="round"
   id="path419" />
<path
   stroke="#000000"
   stroke-width="1"
   d="m 128.133,183.915 c 0.523,-0.543 2.45,-12.205 2.028,-13.073 -1.174,-2.418 -5.806,-1.483 -7.884,-1.497 -0.693,-0.004 -3.73,-0.049 -3.378,-0.003"
   fill="none"
   stroke-linecap="round"
   opacity="0"
   stroke-linejoin="round"
   id="path421" />
<path
   stroke="#000000"
   stroke-width="1"
   d="m 364.322,552.95 c 4.685,5.075 17.627,8.845 24.183,9.706 18.94,2.488 51.323,2.724 62.995,-3.223"
   fill="none"
   stroke-linecap="round"
   opacity="1"
   stroke-linejoin="round"
   id="path423" />
<path
   stroke="#000000"
   stroke-width="1"
   d="m 77.2419,175.309 c 2.6135,2.87 9.8327,5.002 13.4899,5.489 10.5652,1.406 32.1602,-0.674 32.8422,-0.895 0.783,-0.253 1.522,-0.775 2.298,-0.928"
   fill="none"
   stroke-linecap="round"
   opacity="0"
   stroke-linejoin="round"
   id="path425" />
<path
   stroke="#000000"
   stroke-width="1"
   d="m 445.178,543.474 c -7.599,5.835 -19.164,5.496 -28.179,6.043 -8.156,0.495 -16.343,-0.079 -24.516,0.203 -7.28,0.252 -14.574,0.574 -21.858,0.026 -4.228,-0.318 -2.917,-0.663 -6.979,-1.196"
   fill="none"
   stroke-linecap="round"
   opacity="1"
   stroke-linejoin="round"
   id="path427" />
<path
   stroke="#000000"
   stroke-width="1"
   d="m 122.345,169.95 c -4.238,3.3 -10.69,3.108 -15.719,3.417 -4.549,0.28 -9.1159,-0.044 -13.6748,0.115 -4.0612,0.143 -8.1297,0.325 -12.1934,0.015 -2.358,-0.18 -1.6271,-0.375 -3.893,-0.677"
   fill="none"
   stroke-linecap="round"
   opacity="0"
   stroke-linejoin="round"
   id="path429" />
<path
   stroke="#000000"
   stroke-width="1"
   d="m 441.859,540.669 c -1.202,-0.158 -4.419,2.089 -5.326,2.46 -4.274,1.75 -8.741,3.096 -13.207,4.322 -12.573,3.452 -25.428,5.673 -38.355,7.339 -7.84,1.011 -16.007,1.511 -23.908,1.6 -2.291,0.026 -4.771,0.608 -7.014,-0.155"
   fill="none"
   stroke-linecap="round"
   opacity="1"
   stroke-linejoin="round"
   id="path431" />
<path
   stroke="#000000"
   stroke-width="1"
   d="m 120.494,168.364 c -0.671,-0.09 -2.465,1.181 -2.971,1.391 -2.384,0.989 -4.876,1.751 -7.367,2.444 -7.014,1.952 -14.1842,3.208 -21.3952,4.15 -4.3736,0.572 -8.9295,0.855 -13.3369,0.905 -1.2776,0.015 -2.6614,0.344 -3.9122,-0.088"
   fill="none"
   stroke-linecap="round"
   opacity="0"
   stroke-linejoin="round"
   id="path433" />
<path
   stroke="#000000"
   stroke-width="1"
   d="m 358.327,557.826 c 1.866,0.438 6.156,0.593 6.932,0.695 7.104,0.933 13.749,1.272 20.912,1.167 16.12,-0.238 32.466,-0.918 48.527,-2.581 1.591,-0.164 10.013,-2.325 13.23,-3.629 1.229,-0.499 -0.013,-2.281 -1.378,-2.48"
   fill="none"
   stroke-linecap="round"
   opacity="1"
   stroke-linejoin="round"
   id="path435" />
<path
   stroke="#000000"
   stroke-width="1"
   d="m 73.8979,178.066 c 1.0409,0.248 3.4338,0.336 3.867,0.393 3.9628,0.528 7.6697,0.72 11.6654,0.66 8.9918,-0.134 18.1097,-0.519 27.0687,-1.459 0.888,-0.094 5.586,-1.315 7.38,-2.053 0.686,-0.282 -0.007,-1.29 -0.768,-1.402"
   fill="none"
   stroke-linecap="round"
   opacity="0"
   stroke-linejoin="round"
   id="path437" />
<path
   stroke="#000000"
   stroke-width="1"
   d="m 444.023,537.54 c 7.288,1.114 -5.392,1.342 -9.377,1.918 -2.131,0.308 -4.28,0.477 -6.417,0.737 -15.129,1.842 -30.608,2.239 -45.836,2.144 -7.128,-0.044 -14.147,-0.093 -21.239,-0.682 -0.576,-0.048 -1.144,-0.083 -1.71,-0.117 -1.077,-0.065 -2.146,-0.127 -3.242,-0.271 -0.867,-0.113 -2.623,-0.081 -2.623,-0.081"
   fill="none"
   stroke-linecap="round"
   opacity="1"
   stroke-linejoin="round"
   id="path439" />
<path
   stroke="#000000"
   stroke-width="1"
   d="m 121.701,166.594 c 4.065,0.631 -3.008,0.759 -5.231,1.085 -1.188,0.174 -2.387,0.27 -3.579,0.417 -8.439,1.041 -17.0741,1.266 -25.5683,1.212 -3.9765,-0.025 -7.8915,-0.052 -11.8477,-0.386 -0.3214,-0.027 -0.6384,-0.047 -0.9541,-0.066 -0.6008,-0.036 -1.1967,-0.071 -1.8083,-0.153 -0.4837,-0.064 -1.4629,-0.045 -1.4629,-0.045"
   fill="none"
   stroke-linecap="round"
   opacity="0"
   stroke-linejoin="round"
   id="path441" />
<path
   stroke="#000000"
   stroke-width="1"
   d="m 362.478,542.878 c -9.218,-1.21 -13.809,22.861 -13.809,22.861"
   fill="none"
   stroke-linecap="round"
   opacity="1"
   stroke-linejoin="round"
   id="path443" />
<path
   stroke="#000000"
   stroke-width="1"
   d="m 76.2135,169.613 c -5.1418,-0.684 -7.7029,12.928 -7.7029,12.928"
   fill="none"
   stroke-linecap="round"
   opacity="0"
   stroke-linejoin="round"
   id="path445" />
<path
   stroke="#000000"
   stroke-width="1"
   d="m 348.912,562.694 c 0.828,1.682 3.104,2.23 4.905,2.751 5.156,1.491 10.878,2.218 16.206,2.918 13.65,1.793 39.57,3.397 41.171,3.3"
   fill="none"
   stroke-linecap="round"
   opacity="1"
   stroke-linejoin="round"
   id="path447" />
<path
   stroke="#000000"
   stroke-width="1"
   d="m 68.6461,180.819 c 0.4618,0.951 1.7317,1.261 2.7362,1.556 2.8761,0.843 6.0678,1.254 9.04,1.65 7.6145,1.014 22.0727,1.921 22.9657,1.866"
   fill="none"
   stroke-linecap="round"
   opacity="0"
   stroke-linejoin="round"
   id="path449" />
<path
   stroke="#000000"
   stroke-width="1"
   d="m 451.589,569.438 c -3.511,1.728 -7.638,2.552 -11.87,2.971 -4.861,0.482 -9.859,0.431 -14.22,0.606 -1.758,0.071 -4.084,-0.122 -5.843,-0.061"
   fill="none"
   stroke-linecap="round"
   opacity="1"
   stroke-linejoin="round"
   id="path451" />
<path
   stroke="#000000"
   stroke-width="1"
   d="m 125.922,184.633 c -1.959,0.977 -4.261,1.443 -6.622,1.68 -2.711,0.272 -5.499,0.243 -7.932,0.343 -0.981,0.039 -2.278,-0.069 -3.259,-0.035"
   fill="none"
   stroke-linecap="round"
   opacity="0"
   stroke-linejoin="round"
   id="path453" />
<path
   stroke="#000000"
   stroke-width="1"
   d="m 441.062,564.789 c -0.866,0.197 -1.771,0.124 -2.657,0.178 -10.296,0.634 -20.475,0.612 -30.762,-0.353 -3.48,-0.327 -6.688,-1.668 -9.993,-2.102"
   fill="none"
   stroke-linecap="round"
   opacity="1"
   stroke-linejoin="round"
   id="path455" />
<path
   stroke="#000000"
   stroke-width="1"
   d="m 120.049,182.004 c -0.482,0.111 -0.987,0.07 -1.482,0.1 -5.743,0.359 -11.421,0.346 -17.159,-0.199 -1.9417,-0.185 -3.7313,-0.944 -5.5748,-1.189"
   fill="none"
   stroke-linecap="round"
   opacity="0"
   stroke-linejoin="round"
   id="path457" />
<path
   stroke="#000000"
   stroke-width="1"
   d="m 454.575,561.94 c 0,0 -2.607,1.273 -2.776,1.314 -5.01,1.214 -5.71,0.395 -10.737,1.535"
   fill="none"
   stroke-linecap="round"
   opacity="1"
   stroke-linejoin="round"
   id="path459" />
<path
   stroke="#000000"
   stroke-width="1"
   d="m 127.587,180.393 c 0,0 -1.454,0.719 -1.548,0.743 -2.795,0.686 -3.185,0.223 -5.99,0.868"
   fill="none"
   stroke-linecap="round"
   opacity="0"
   stroke-linejoin="round"
   id="path461" />
<path
   stroke="#000000"
   stroke-width="1"
   d="m 453.473,555 c -4.43,1.179 -11.285,3.06 -15.839,3.809 -6.754,1.111 -13.74,1.304 -20.544,2.042 -8.069,0.876 -16.803,2.534 -24.944,1.464"
   fill="none"
   stroke-linecap="round"
   opacity="1"
   stroke-linejoin="round"
   id="path463" />
<path
   stroke="#000000"
   stroke-width="1"
   d="m 128.47,176.459 c -1.176,-0.156 -1.798,0.169 -2.916,0.47 -2.471,0.667 -4.877,1.27 -7.417,1.693 -3.767,0.628 -7.664,0.738 -11.46,1.155 -4.501,0.495 -9.3727,1.432 -13.914,0.828"
   fill="none"
   stroke-linecap="round"
   opacity="0"
   stroke-linejoin="round"
   id="path465" />
<path
   stroke="#000000"
   stroke-width="1"
   d="m 455.859,544.35 c -4.076,0.789 -7.7,2.988 -11.62,4.267 -10.035,3.276 -20.959,4.569 -31.353,6.153 -6.242,0.951 -13.124,2.489 -19.44,1.66"
   fill="none"
   stroke-linecap="round"
   opacity="1"
   stroke-linejoin="round"
   id="path467" />
<path
   stroke="#000000"
   stroke-width="1"
   d="m 128.303,170.446 c -2.273,0.446 -4.295,1.689 -6.481,2.413 -5.598,1.852 -11.692,2.583 -17.49,3.479 -3.482,0.537 -7.3206,1.408 -10.8441,0.939"
   fill="none"
   stroke-linecap="round"
   opacity="0"
   stroke-linejoin="round"
   id="path469" />
<path
   stroke="#000000"
   stroke-width="1"
   d="m 446.736,540.585 c -5.684,1.286 -23.304,4.421 -24.897,4.761"
   fill="none"
   stroke-linecap="round"
   opacity="1"
   stroke-linejoin="round"
   id="path471" />
<path
   stroke="#000000"
   stroke-width="1"
   d="m 123.215,168.316 c -3.171,0.727 -13,2.5 -13.889,2.693"
   fill="none"
   stroke-linecap="round"
   opacity="0"
   stroke-linejoin="round"
   id="path473" />
<path
   stroke="#000000"
   stroke-width="1"
   d="m 362.571,542.896 c 5.056,0.664 9.794,2.907 14.742,4.042 14.226,3.264 28.777,5.623 43.25,7.523 5.196,0.683 10.459,1.096 15.701,0.745 0.811,-0.054 10.1,-2.044 10.145,-2.392"
   fill="none"
   stroke-linecap="round"
   opacity="1"
   stroke-linejoin="round"
   id="path475" />
<path
   stroke="#000000"
   stroke-width="1"
   d="m 76.2656,169.623 c 2.8203,0.376 5.4629,1.644 8.2232,2.286 7.9359,1.846 16.0522,3.179 24.1252,4.254 2.899,0.386 5.835,0.62 8.759,0.422 0.452,-0.031 5.634,-1.156 5.659,-1.353"
   fill="none"
   stroke-linecap="round"
   opacity="0"
   stroke-linejoin="round"
   id="path477" />
<path
   stroke="#000000"
   stroke-width="1"
   d="m 441.206,541.636 c -7.935,-1.042 -16.368,0.51 -24.325,0.756 -10.328,0.318 -20.407,2.309 -30.686,3.08 -7.097,0.532 -14.255,0.235 -21.341,0.094 -1.68,-0.034 -3.08,1.129 -4.656,1.538 -2.189,0.568 -4.542,0.413 -6.883,0.106"
   fill="none"
   stroke-linecap="round"
   opacity="1"
   stroke-linejoin="round"
   id="path479" />
<path
   stroke="#000000"
   stroke-width="1"
   d="m 120.13,168.911 c -4.426,-0.59 -9.131,0.288 -13.569,0.427 -5.761,0.18 -11.3838,1.306 -17.1176,1.742 -3.9589,0.3 -7.9518,0.133 -11.9045,0.053 -0.9374,-0.019 -1.7181,0.639 -2.5971,0.87 -1.2213,0.321 -2.5337,0.234 -3.8395,0.06"
   fill="none"
   stroke-linecap="round"
   opacity="0"
   stroke-linejoin="round"
   id="path481" />
<path
   stroke="#000000"
   stroke-width="1"
   d="m 353.007,539.533 c -6.252,2.163 -5.103,16.467 -3.857,21.349"
   fill="none"
   stroke-linecap="round"
   opacity="1"
   stroke-linejoin="round"
   id="path483" />
<path
   stroke="#000000"
   stroke-width="1"
   d="m 70.9302,167.722 c -3.4876,1.223 -2.8466,9.312 -2.1514,12.072"
   fill="none"
   stroke-linecap="round"
   opacity="0"
   stroke-linejoin="round"
   id="path485" />
<path
   stroke="#000000"
   stroke-width="1"
   d="m 356.555,536.576 c -2.488,-0.327 -4.443,5.053 -5.094,6.704 -2.66,6.747 -0.721,13.515 -1.616,20.327"
   fill="none"
   stroke-linecap="round"
   opacity="1"
   stroke-linejoin="round"
   id="path487" />
<path
   stroke="#000000"
   stroke-width="1"
   d="m 72.9095,166.049 c -1.3881,-0.185 -2.4782,2.858 -2.8413,3.791 -1.4839,3.816 -0.4024,7.643 -0.9014,11.495"
   fill="none"
   stroke-linecap="round"
   opacity="0"
   stroke-linejoin="round"
   id="path489" />
<path
   stroke="#000000"
   stroke-width="1"
   d="m 349.621,563.314 c -1.63,1.251 -0.128,4.599 0.512,6.124 1.706,4.063 7.899,7.093 12.161,7.653"
   fill="none"
   stroke-linecap="round"
   opacity="1"
   stroke-linejoin="round"
   id="path491" />
<path
   stroke="#000000"
   stroke-width="1"
   d="m 69.0413,181.17 c -0.9089,0.707 -0.0711,2.601 0.2859,3.462 0.9518,2.299 4.4063,4.012 6.7836,4.328"
   fill="none"
   stroke-linecap="round"
   opacity="0"
   stroke-linejoin="round"
   id="path493" />
<path
   stroke="#000000"
   stroke-width="1"
   d="m 355.128,570.417 c -0.809,-0.106 3.998,1.949 4.896,1.899 1.858,-0.101 3.722,-0.126 5.572,-0.321 5.376,-0.567 14.514,-1.442 19.915,-1.804"
   fill="none"
   stroke-linecap="round"
   opacity="1"
   stroke-linejoin="round"
   id="path495" />
<path
   stroke="#000000"
   stroke-width="1"
   d="m 72.1136,185.187 c -0.4515,-0.061 2.2303,1.101 2.7312,1.073 1.0362,-0.057 2.0761,-0.071 3.1082,-0.181 2.9989,-0.321 8.0959,-0.816 11.1086,-1.02"
   fill="none"
   stroke-linecap="round"
   opacity="0"
   stroke-linejoin="round"
   id="path497" />
<path
   stroke="#000000"
   stroke-width="1"
   d="m 352.094,566.535 c 6.339,0.833 12.895,-0.451 19.27,-0.366 4.373,0.059 8.711,0.578 13.079,0.665"
   fill="none"
   stroke-linecap="round"
   opacity="1"
   stroke-linejoin="round"
   id="path499" />
<path
   stroke="#000000"
   stroke-width="1"
   d="m 70.4211,182.991 c 3.5363,0.471 7.193,-0.255 10.7494,-0.207 2.4393,0.034 4.8588,0.327 7.2956,0.376"
   fill="none"
   stroke-linecap="round"
   opacity="0"
   stroke-linejoin="round"
   id="path501" />
<path
   stroke="#000000"
   stroke-width="1"
   d="m 362.453,577.092 c 2.754,0.361 5.738,-0.583 8.501,-0.742 6.236,-0.36 7.457,-1.235 13.696,-1.063 17.944,0.493 52.749,-4.659 52.749,-4.659 l 10.029,-2.279 2.456,-0.558"
   fill="none"
   stroke-linecap="round"
   opacity="1"
   stroke-linejoin="round"
   id="path503" />
<path
   stroke="#000000"
   stroke-width="1"
   d="m 76.1995,188.961 c 1.5361,0.204 3.2008,-0.329 4.7424,-0.42 3.4783,-0.203 4.1593,-0.698 7.6394,-0.601 10.0096,0.279 29.4247,-2.634 29.4247,-2.634 l 5.595,-1.289 1.369,-0.316"
   fill="none"
   stroke-linecap="round"
   opacity="0"
   stroke-linejoin="round"
   id="path505" />
<path
   stroke="#000000"
   stroke-width="1"
   d="m 442.514,533.489 c 2.698,2.36 8.047,6.536 7.046,8.366"
   fill="none"
   stroke-linecap="round"
   opacity="1"
   stroke-linejoin="round"
   id="path507" />
<path
   stroke="#000000"
   stroke-width="1"
   d="m 120.859,164.304 c 1.505,1.334 4.489,3.695 3.931,4.73"
   fill="none"
   stroke-linecap="round"
   opacity="0"
   stroke-linejoin="round"
   id="path509" />
<path
   stroke="#000000"
   stroke-width="1"
   d="m 442.21,533.367 c -6.279,-0.825 -7.907,-0.59 -14.357,-0.331 -15.487,0.623 -27.851,3.808 -43.339,3.711 -4.192,-0.026 -23.702,-2.002 -27.863,-2.548"
   fill="none"
   stroke-linecap="round"
   opacity="1"
   stroke-linejoin="round"
   id="path511" />
<path
   stroke="#000000"
   stroke-width="1"
   d="m 120.69,164.234 c -3.503,-0.466 -4.411,-0.333 -8.009,-0.187 -8.639,0.352 -15.5358,2.154 -24.1752,2.099 -2.3385,-0.015 -13.2214,-1.132 -15.5425,-1.441"
   fill="none"
   stroke-linecap="round"
   opacity="0"
   stroke-linejoin="round"
   id="path513" />
<path
   stroke="#000000"
   stroke-width="1"
   d="m 356.257,535.503 c 1.782,0.866 4.239,0.82 6.179,1.075 4.997,0.656 30.555,5.671 38.658,6.393 4.841,0.432 16.897,2.901 20.96,2.39"
   fill="none"
   stroke-linecap="round"
   opacity="1"
   stroke-linejoin="round"
   id="path515" />
<path
   stroke="#000000"
   stroke-width="1"
   d="m 72.7433,165.442 c 0.9942,0.49 2.3644,0.464 3.4465,0.608 2.7877,0.371 17.0444,3.207 21.5645,3.616 2.7007,0.244 9.4257,1.64 11.6917,1.351"
   fill="none"
   stroke-linecap="round"
   opacity="0"
   stroke-linejoin="round"
   id="path517" />
</g><g
     transform="matrix(2.1099639,0,0,2.1481488,-647.68908,-560.41542)"
     id="Ni単o"
     vectornator:layerName="Ni単o">
<path
   stroke="#000000"
   stroke-width="1"
   d="m 620.613,423.889 28.42,26.035 17.903,3.565 8.685,4.878 c 0,0 6.279,10.43 17.392,3.91 0.073,-0.042 5.678,2.898 5.678,2.898 l 16.478,36.068 -12.535,29.207 -0.192,0.453 -1.89,4.471 3.919,-31.427 -9.522,-13.755"
   fill="none"
   stroke-linecap="round"
   opacity="1"
   stroke-linejoin="round"
   id="path520" />
<path
   stroke="#000000"
   stroke-width="1"
   d="m 220.207,102.324 15.853,14.723 9.987,2.017 4.845,2.758 c 0,0 3.502,5.898 9.702,2.211 0.04,-0.024 3.167,1.639 3.167,1.639 l 9.191,20.396 -6.992,16.517 -0.107,0.256 -1.054,2.529 2.186,-17.773 -5.312,-7.778"
   fill="none"
   stroke-linecap="round"
   opacity="0"
   stroke-linejoin="round"
   id="path522" />
<path
   stroke="#000000"
   stroke-width="1"
   d="m 620.723,424.261 c 0,0 20.595,32.562 23.447,34.596 5.239,3.735 17.858,8.404 19.831,12.557 2.234,4.703 -4.265,40.807 -4.265,40.807 0,0 18.954,17.378 37.646,17.495 2.119,0.014 0.638,-33.74 0.638,-33.74"
   fill="none"
   stroke-linecap="round"
   opacity="1"
   stroke-linejoin="round"
   id="path524" />
<path
   stroke="#000000"
   stroke-width="1"
   d="m 220.269,102.535 c 0,0 11.488,18.414 13.079,19.564 2.922,2.112 9.961,4.752 11.062,7.101 1.246,2.659 -2.379,23.076 -2.379,23.076 0,0 10.573,9.828 21,9.894 1.182,0.008 0.355,-19.08 0.355,-19.08"
   fill="none"
   stroke-linecap="round"
   opacity="0"
   stroke-linejoin="round"
   id="path526" />
<path
   stroke="#000000"
   stroke-width="1"
   d="m 672.355,446.927 c 0,-8.977 5.598,-16.255 12.503,-16.255 6.906,0 12.503,7.278 12.503,16.255 0,8.978 -5.597,16.255 -12.503,16.255 -6.905,0 -12.503,-7.277 -12.503,-16.255 z"
   fill="none"
   stroke-linecap="round"
   opacity="1"
   stroke-linejoin="round"
   id="path528" />
<path
   stroke="#000000"
   stroke-width="1"
   d="m 249.07,115.353 c 0,-5.077 3.123,-9.193 6.975,-9.193 3.852,0 6.974,4.116 6.974,9.193 0,5.076 -3.122,9.192 -6.974,9.192 -3.852,0 -6.975,-4.116 -6.975,-9.192 z"
   fill="none"
   stroke-linecap="round"
   opacity="0"
   stroke-linejoin="round"
   id="path530" />
<path
   stroke="#000000"
   stroke-width="1"
   d="m 662.532,515.014 -6.912,37.194 15.768,9.718 3.569,-15.951 0.346,20.979 21.279,1.741 -1.808,-38.605"
   fill="none"
   stroke-linecap="round"
   opacity="1"
   stroke-linejoin="round"
   id="path532" />
<path
   stroke="#000000"
   stroke-width="1"
   d="m 243.591,153.856 -3.856,21.033 8.795,5.495 1.991,-9.02 0.193,11.864 11.87,0.985 -1.008,-21.831"
   fill="none"
   stroke-linecap="round"
   opacity="0"
   stroke-linejoin="round"
   id="path534" />
<path
   stroke="#000000"
   stroke-width="1"
   d="m 657.677,553.984 c 0,0 -2.618,31.967 -2.601,32.191 0.396,5.499 -6.786,9.408 -6.786,9.408 l -7.805,6.031 c 0,0 1.582,4.112 3.84,4.132 2.382,0.021 19.069,-6.738 19.069,-6.738 l 0.684,-6.415 3.474,-32.566"
   fill="none"
   stroke-linecap="round"
   opacity="1"
   stroke-linejoin="round"
   id="path536" />
<path
   stroke="#000000"
   stroke-width="1"
   d="m 240.882,175.893 c 0,0 -1.46,18.078 -1.451,18.204 0.221,3.11 -3.785,5.32 -3.785,5.32 l -4.354,3.411 c 0,0 0.883,2.326 2.142,2.337 1.329,0.012 10.637,-3.811 10.637,-3.811 l 0.382,-3.627 1.938,-18.416"
   fill="none"
   stroke-linecap="round"
   opacity="0"
   stroke-linejoin="round"
   id="path538" />
<path
   stroke="#000000"
   stroke-width="1"
   d="m 680.909,567.53 c 0,0 -0.785,28.065 -0.754,28.288 0.775,5.459 -12.298,17.534 -12.298,17.534 0,0 2.72,3.273 4.974,3.137 2.378,-0.143 16.026,-7.884 16.508,-8.443 0.482,-0.558 0.24,-6.446 0.24,-6.446 l 1.22,-32.728"
   fill="none"
   stroke-linecap="round"
   opacity="1"
   stroke-linejoin="round"
   id="path540" />
<path
   stroke="#000000"
   stroke-width="1"
   d="m 253.841,183.554 c 0,0 -0.438,15.871 -0.42,15.996 0.432,3.088 -6.86,9.916 -6.86,9.916 0,0 1.517,1.851 2.774,1.774 1.327,-0.081 8.94,-4.459 9.209,-4.774 0.269,-0.316 0.134,-3.645 0.134,-3.645 l 0.68,-18.508"
   fill="none"
   stroke-linecap="round"
   opacity="0"
   stroke-linejoin="round"
   id="path542" />
</g><g
     transform="matrix(2.1099639,0,0,2.1481488,-647.68908,-560.41542)"
     id="Rueda"
     vectornator:layerName="Rueda">
<path
   stroke="#000000"
   stroke-width="1"
   d="m 516.108,573.749 77.695,-99.526 -0.409,8.047 -62.061,91.315 z"
   fill="none"
   stroke-linecap="round"
   opacity="1"
   stroke-linejoin="round"
   id="path545" />
<path
   stroke="#000000"
   stroke-width="1"
   d="m 161.912,187.071 43.34,-56.283 -0.228,4.551 -34.619,51.639 z"
   fill="none"
   stroke-linecap="round"
   opacity="0"
   stroke-linejoin="round"
   id="path547" />
<path
   stroke="#000000"
   stroke-width="1"
   d="m 657.996,538.643 -0.697,-0.7 -52.762,-64.517 0.437,8.198 50.847,68.437"
   fill="none"
   stroke-linecap="round"
   opacity="1"
   stroke-linejoin="round"
   id="path549" />
<path
   stroke="#000000"
   stroke-width="1"
   d="m 241.06,167.218 -0.389,-0.396 -29.432,-36.484 0.244,4.636 28.364,38.701"
   fill="none"
   stroke-linecap="round"
   opacity="0"
   stroke-linejoin="round"
   id="path551" />
<path
   stroke="#000000"
   stroke-width="1"
   d="m 660.005,509.076 c -15.376,13.27 -34.789,21.14 -56.938,21.14 -48.584,0 -87.97,-37.861 -87.97,-84.566 0,-46.705 39.386,-84.566 87.97,-84.566 44.099,0 80.179,29.768 86.547,70.454"
   fill="none"
   stroke-linecap="round"
   opacity="1"
   stroke-linejoin="round"
   id="path553" />
<path
   stroke="#000000"
   stroke-width="1"
   d="m 242.181,150.498 c -8.577,7.504 -19.406,11.955 -31.761,11.955 -27.102,0 -49.072,-21.411 -49.072,-47.823 0,-26.4111 21.97,-47.8218 49.072,-47.8218 24.599,0 44.725,16.834 48.277,39.8418"
   fill="none"
   stroke-linecap="round"
   opacity="0"
   stroke-linejoin="round"
   id="path555" />
<path
   stroke="#000000"
   stroke-width="1"
   d="m 336.415,569.79 c 5.312,16.538 14.943,34.125 23.311,48.822"
   fill="none"
   stroke-linecap="round"
   opacity="1"
   stroke-linejoin="round"
   id="path557" />
<path
   stroke="#000000"
   stroke-width="1"
   d="m 473.415,709.676 c 22.698,8.004 47.071,12.352 72.441,12.352 122.28,0 221.41,-101.002 221.41,-225.595 0,-124.592 -99.13,-225.594 -221.41,-225.594 -122.281,0 -221.41,101.002 -221.41,225.594 0,25.681 4.211,50.359 11.969,73.357"
   fill="none"
   stroke-linecap="round"
   opacity="0"
   stroke-linejoin="round"
   id="path559" />
<path
   stroke="#000000"
   stroke-width="1"
   d="m 463.954,705.927 c 3.245,1.325 6.143,2.579 9.461,3.749"
   fill="none"
   stroke-linecap="round"
   opacity="1"
   stroke-linejoin="round"
   id="path561" />
<path
   stroke="#000000"
   stroke-width="1"
   d="m 93.5102,235.165 c 8.5328,8.53 18.3098,15.802 29.0318,21.516 17.059,9.092 36.513,14.241 57.162,14.241 67.549,0 122.309,-55.104 122.309,-123.079 0,-67.9745 -54.76,-123.0784 -122.309,-123.0785 -67.549,0 -122.3085,55.104 -122.3085,123.0785 0,23.417 6.4986,45.307 17.78,63.942 0.8173,1.35 1.6597,2.683 2.5265,3.998 4.6105,6.995 9.9126,13.489 15.8082,19.382"
   fill="none"
   stroke-linecap="round"
   opacity="0"
   stroke-linejoin="round"
   id="path563" />
<path
   stroke="#000000"
   stroke-width="1"
   d="m 585.47,493.823 -14.158,78.422 h 57.874 L 614.029,494.3"
   fill="none"
   stroke-linecap="round"
   opacity="1"
   stroke-linejoin="round"
   id="path565" />
<path
   stroke="#000000"
   stroke-width="1"
   d="m 200.603,141.872 -7.897,44.348 h 32.284 l -8.456,-44.078"
   fill="none"
   stroke-linecap="round"
   opacity="0"
   stroke-linejoin="round"
   id="path567" />
<path
   stroke="#000000"
   stroke-width="1"
   d="m 611.628,482.254 -2.785,-15.675 -18.577,-0.408 -2.793,15.957"
   fill="none"
   stroke-linecap="round"
   opacity="1"
   stroke-linejoin="round"
   id="path569" />
<path
   stroke="#000000"
   stroke-width="1"
   d="m 215.195,135.33 -1.553,-8.864 -10.363,-0.231 -1.558,9.024"
   fill="none"
   stroke-linecap="round"
   opacity="0"
   stroke-linejoin="round"
   id="path571" />
<path
   stroke="#000000"
   stroke-width="1"
   d="m 605.578,446.71 c -0.848,0.549 -2.487,1.297 -3.614,1.297 -2.842,0 -5.146,-2.058 -5.146,-4.595 0,-0.752 0.874,-2.441 1.495,-3.038"
   fill="none"
   stroke-linecap="round"
   opacity="1"
   stroke-linejoin="round"
   id="path573" />
<path
   stroke="#000000"
   stroke-width="1"
   d="m 211.82,115.23 c -0.473,0.311 -1.387,0.733 -2.016,0.733 -1.585,0 -2.87,-1.163 -2.87,-2.598 0,-0.425 0.487,-1.381 0.834,-1.718"
   fill="none"
   stroke-linecap="round"
   opacity="0"
   stroke-linejoin="round"
   id="path575" />
<path
   stroke="#000000"
   stroke-width="1"
   d="m 598.114,440.536 21.824,-19.316 2.757,2.045 -17.248,23.565"
   fill="none"
   stroke-linecap="round"
   opacity="1"
   stroke-linejoin="round"
   id="path577" />
<path
   stroke="#000000"
   stroke-width="1"
   d="m 207.657,111.739 12.174,-10.923 1.537,1.155 -9.621,13.327"
   fill="none"
   stroke-linecap="round"
   opacity="0"
   stroke-linejoin="round"
   id="path579" />
</g></g>
</svg>