<svg xmlns="http://www.w3.org/2000/svg" viewBox="0 0 313.32 63.15"><defs><style>.cls-1{fill: #fff;}.cls-2{fill:transparent; stroke: transparent; stroke-width: 2;stroke-miterlimit:10;}.cls-4{stroke: #fff; stroke-width: 2.1;stroke-miterlimit:10}.cls-3{fill:transparent;}</style></defs><g id="Capa_2" data-name="Capa 2"><g id="Capa_1-2" data-name="Capa 1"><path class="cls-1" d="M294.43,62.66H269.91l-1-1V39.05l-13.6-4.68-.7-1V1.09l1.44-1,52.24,21.2.65,1V51.37l-1.38,1-12-4.15v13.4ZM271,60.57h22.43V46.75l1.38-1,12,4.15V23L256.66,2.64v30l13.59,4.68.71,1Z"/><polygon class="cls-1" points="88.48 62.65 0 62.65 0 32.47 88.48 21.33 88.48 31.28 86.4 31.28 86.4 23.69 2.09 34.31 2.09 60.56 86.4 60.56 86.4 48.17 88.48 48.17 88.48 62.65"/><path class="cls-2 cls-4" d="M85.43,31.63V22.51S102-2,153.45,14v35l29.36-1.28v14H85.43V48.17"/><path class="cls-2" d="M183.85,62.65H84.39V48.17h2.09V60.56h95.28V48.74L152.4,50V14.73c-46.74-14.26-64,5.68-65.92,8.12v8.78H84.39V22.19l.18-.26c.69-1,17.54-25,69.19-9l.73.23V47.84l29.36-1.28Z"/><path class="cls-1" d="M255.61,62.65H190.23a1,1,0,0,1-1-1V37.93a1,1,0,0,1,1-1l43.7-3V20.58l-43.5,5.21a1,1,0,0,1-1.17-1V9.31a1,1,0,0,1,.91-1L255.48.07a1,1,0,0,1,.82.25,1,1,0,0,1,.36.78V61.61A1,1,0,0,1,255.61,62.65Zm-64.33-2.09h63.29V2.28l-63.29,8V23.58l43.5-5.21a1,1,0,0,1,1.17,1V34.83a1,1,0,0,1-1,1l-43.69,3Z"/><polygon class="cls-3" points="171.55 25.93 235.95 18.23 235.95 35.8 171.55 40.27 171.55 25.93"/><path class="cls-1" d="M234.9,19.41V34.83l-44.67,3.1-17.64,1.22V26.86l17.64-2.11,44.67-5.34M237,17.05l-2.33.28L190,22.68l-17.64,2.1L170.5,25V41.39l2.23-.15L190.38,40l44.67-3.11,1.94-.13V17.05Z"/><polygon class="cls-3" points="34.79 37.06 83.32 32.43 83.32 45.12 34.6 47.87 34.79 37.06"/><path class="cls-1" d="M82.27,33.58V44.14l-46.6,2.62L35.82,38l46.45-4.43m2.09-2.3L33.76,36.1,33.54,49l50.82-2.86V31.28Z"/></g></g></svg>