<svg xmlns="http://www.w3.org/2000/svg" viewBox="0 0 668.19 62.66"><defs><style>.cls-1{fill:#1e1e1c;}.cls-2{fill:#fff;}.cls-3{fill:#e5432c;}.cls-4{fill:#010101;}</style></defs><g id="Capa_2" data-name="Capa 2"><g id="Capa_1-2" data-name="Capa 1"><path class="cls-1" d="M294.43,62.66H269.91l-1-1V39.05l-13.6-4.68-.7-1V1.09l1.44-1,52.24,21.2.65,1V51.37l-1.38,1-12-4.15v13.4ZM271,60.57h22.43V46.75l1.38-1,12,4.15V23L256.66,2.64v30l13.59,4.68.71,1Z"/><polygon class="cls-1" points="88.48 62.65 0 62.65 0 32.47 88.48 21.33 88.48 31.28 86.4 31.28 86.4 23.69 2.09 34.31 2.09 60.56 86.4 60.56 86.4 48.17 88.48 48.17 88.48 62.65"/><path class="cls-2" d="M85.43,31.63V22.51S102-2,153.45,14v35l29.36-1.28v14H85.43V48.17"/><path class="cls-1" d="M183.85,62.65H84.39V48.17h2.09V60.56h95.28V48.74L152.4,50V14.73c-46.74-14.26-64,5.68-65.92,8.12v8.78H84.39V22.19l.18-.26c.69-1,17.54-25,69.19-9l.73.23V47.84l29.36-1.28Z"/><path class="cls-1" d="M255.61,62.65H190.23a1,1,0,0,1-1-1V37.93a1,1,0,0,1,1-1l43.7-3V20.58l-43.5,5.21a1,1,0,0,1-1.17-1V9.31a1,1,0,0,1,.91-1L255.48.07a1,1,0,0,1,.82.25,1,1,0,0,1,.36.78V61.61A1,1,0,0,1,255.61,62.65Zm-64.33-2.09h63.29V2.28l-63.29,8V23.58l43.5-5.21a1,1,0,0,1,1.17,1V34.83a1,1,0,0,1-1,1l-43.69,3Z"/><polygon class="cls-3" points="171.55 25.93 235.95 18.23 235.95 35.8 171.55 40.27 171.55 25.93"/><path class="cls-2" d="M234.9,19.41V34.83l-44.67,3.1-17.64,1.22V26.86l17.64-2.11,44.67-5.34M237,17.05l-2.33.28L190,22.68l-17.64,2.1L170.5,25V41.39l2.23-.15L190.38,40l44.67-3.11,1.94-.13V17.05Z"/><polygon class="cls-3" points="34.79 37.06 83.32 32.43 83.32 45.12 34.6 47.87 34.79 37.06"/><path class="cls-2" d="M82.27,33.58V44.14l-46.6,2.62L35.82,38l46.45-4.43m2.09-2.3L33.76,36.1,33.54,49l50.82-2.86V31.28Z"/><path class="cls-4" d="M345.55.47h2.14V18.85h-2.14Z"/><path class="cls-4" d="M356,15.89a1.45,1.45,0,0,1,1.09.46,1.5,1.5,0,0,1,.45,1.1A1.59,1.59,0,0,1,356,19a1.59,1.59,0,0,1-1.52-1.56,1.49,1.49,0,0,1,.44-1.1A1.44,1.44,0,0,1,356,15.89Z"/><path class="cls-4" d="M364.38.47h11.35v2h-9.21V8.26h8.6v2h-8.6v6.55h9.67v2H364.38Z"/><path class="cls-4" d="M383.35,15.89a1.45,1.45,0,0,1,1.09.46,1.53,1.53,0,0,1,.44,1.1,1.45,1.45,0,0,1-.47,1.1,1.47,1.47,0,0,1-1.06.46,1.59,1.59,0,0,1-1.53-1.56,1.5,1.5,0,0,1,.45-1.1A1.44,1.44,0,0,1,383.35,15.89Z"/><path class="cls-4" d="M400.27,3.71a3.27,3.27,0,0,0-1.43-1.28A4.48,4.48,0,0,0,397,2a5.56,5.56,0,0,0-1.41.18,4,4,0,0,0-1.23.54,2.71,2.71,0,0,0-.88,1,2.78,2.78,0,0,0-.34,1.41,2.92,2.92,0,0,0,.2,1.1,2.23,2.23,0,0,0,.62.87,4.82,4.82,0,0,0,1.17.73,16.41,16.41,0,0,0,1.82.67c.69.23,1.37.47,2,.73a6.85,6.85,0,0,1,1.74,1,4.3,4.3,0,0,1,1.2,1.49,5.15,5.15,0,0,1,.44,2.25,5.09,5.09,0,0,1-.53,2.38A4.94,4.94,0,0,1,400.38,18a5.9,5.9,0,0,1-2,1,8.48,8.48,0,0,1-2.37.33,9.37,9.37,0,0,1-1.58-.14,8.57,8.57,0,0,1-1.52-.44,6.14,6.14,0,0,1-1.36-.78,4.77,4.77,0,0,1-1.1-1.18l1.84-1.54a3.79,3.79,0,0,0,1.63,1.54,5,5,0,0,0,2.22.51,4.82,4.82,0,0,0,1.39-.2,4.1,4.1,0,0,0,1.26-.61,3.51,3.51,0,0,0,.92-1A2.63,2.63,0,0,0,400,14.1a3.09,3.09,0,0,0-.28-1.39,2.61,2.61,0,0,0-.87-.92,6.61,6.61,0,0,0-1.48-.7l-2.09-.73a14.83,14.83,0,0,1-1.79-.71,5.57,5.57,0,0,1-1.41-1,4.28,4.28,0,0,1-.95-1.4,5.05,5.05,0,0,1-.34-2A4.92,4.92,0,0,1,391.34,3a4.8,4.8,0,0,1,1.38-1.65,6.06,6.06,0,0,1,2-1A7.62,7.62,0,0,1,397,0a7.78,7.78,0,0,1,2.79.48A5.51,5.51,0,0,1,402,2.16Z"/><path class="cls-4" d="M409.73,15.89a1.45,1.45,0,0,1,1.09.46,1.53,1.53,0,0,1,.44,1.1,1.48,1.48,0,0,1-.47,1.1,1.47,1.47,0,0,1-1.06.46,1.59,1.59,0,0,1-1.53-1.56,1.5,1.5,0,0,1,.45-1.1A1.43,1.43,0,0,1,409.73,15.89Z"/><path class="cls-4" d="M363.79,41.63a7.13,7.13,0,0,0-2.77-2.3,8.1,8.1,0,0,0-3.44-.77,8.45,8.45,0,0,0-3.8.86,9.54,9.54,0,0,0-3,2.3,10.71,10.71,0,0,0-2,3.36,11.38,11.38,0,0,0-.7,4,11.8,11.8,0,0,0,.7,4.12,10.33,10.33,0,0,0,1.95,3.32,9.12,9.12,0,0,0,3,2.23,9.53,9.53,0,0,0,7.91-.08A9.38,9.38,0,0,0,364.77,56L367,57.91a10.15,10.15,0,0,1-4.05,3.36,12.91,12.91,0,0,1-5.35,1.07,12.38,12.38,0,0,1-5-1,12.1,12.1,0,0,1-4-2.77,12.62,12.62,0,0,1-2.67-4.19,15.14,15.14,0,0,1,0-10.53,12.56,12.56,0,0,1,2.61-4.22,12.26,12.26,0,0,1,9.08-3.85,13,13,0,0,1,4.86.93,8.86,8.86,0,0,1,3.91,3Z"/><path class="cls-4" d="M374.59,36.42h3V58.91H388.9V61.7H374.59Z"/><path class="cls-4" d="M407.18,62.34a13.15,13.15,0,0,1-5.21-1,12.42,12.42,0,0,1-4.11-2.77,12.68,12.68,0,0,1-2.7-4.21,15.11,15.11,0,0,1,0-10.6,12.73,12.73,0,0,1,2.7-4.22A12.39,12.39,0,0,1,402,36.78a14,14,0,0,1,10.41,0,12.23,12.23,0,0,1,6.81,7,15.11,15.11,0,0,1,0,10.6,12.3,12.3,0,0,1-6.81,7A13.17,13.17,0,0,1,407.18,62.34Zm0-2.79a9.48,9.48,0,0,0,4-.82,9.26,9.26,0,0,0,3.1-2.25,10.39,10.39,0,0,0,2-3.33,12,12,0,0,0,0-8.18,10.44,10.44,0,0,0-2-3.34,9.37,9.37,0,0,0-7.08-3.07,9.68,9.68,0,0,0-4,.82,9.44,9.44,0,0,0-3.1,2.25,10.26,10.26,0,0,0-2,3.34,12.14,12.14,0,0,0,0,8.18,10.22,10.22,0,0,0,2,3.33,9.16,9.16,0,0,0,3.1,2.25A9.53,9.53,0,0,0,407.18,59.55Z"/><path class="cls-4" d="M445.06,39.21h-8.21V61.7h-3V39.21h-8.2V36.42h19.36Z"/><path class="cls-4" d="M464.84,36.42h9.54a12.68,12.68,0,0,1,2.59.29,12.68,12.68,0,0,1,5.32,2.53,10.78,10.78,0,0,1,2.19,2.41A12.32,12.32,0,0,1,486,44.9a15.73,15.73,0,0,1,0,8.32,12.47,12.47,0,0,1-1.51,3.25,10.78,10.78,0,0,1-2.19,2.41,12.6,12.6,0,0,1-2.6,1.62,12.26,12.26,0,0,1-2.72.91,12.68,12.68,0,0,1-2.59.29h-9.54Zm2.94,22.49h5.61a13.27,13.27,0,0,0,4-.57,8.08,8.08,0,0,0,5.26-4.82,11.68,11.68,0,0,0,.77-4.46,11.64,11.64,0,0,0-.77-4.46,8,8,0,0,0-5.26-4.82,13.27,13.27,0,0,0-4-.57h-5.61Z"/><path class="cls-4" d="M494.79,36.42H510.4v2.79H497.74v7.92h11.82v2.78H497.74v9H511V61.7H494.79Z"/><path class="cls-4" d="M532.36,36.42h2.94V58.91h11.37V61.7H532.36Z"/><path class="cls-4" d="M552.49,45h-2.67l2.35-8.57h3.19Z"/><path class="cls-4" d="M564.06,36.42h3V61.7h-3Z"/><path class="cls-4" d="M576.69,36.42h2.94V58.91H591V61.7H576.69Z"/><path class="cls-4" d="M597.73,36.42h2.95V58.91h11.37V61.7H597.73Z"/><path class="cls-4" d="M630.32,62.34a13.19,13.19,0,0,1-5.21-1A12.42,12.42,0,0,1,621,58.57a12.68,12.68,0,0,1-2.7-4.21,15.11,15.11,0,0,1,0-10.6,12.73,12.73,0,0,1,2.7-4.22,12.39,12.39,0,0,1,4.11-2.76,14.07,14.07,0,0,1,10.42,0,12.25,12.25,0,0,1,6.8,7,15.11,15.11,0,0,1,0,10.6,12.33,12.33,0,0,1-6.8,7A13.22,13.22,0,0,1,630.32,62.34Zm0-2.79a9.48,9.48,0,0,0,4-.82,9.26,9.26,0,0,0,3.1-2.25,10.39,10.39,0,0,0,2-3.33,12,12,0,0,0,0-8.18,10.44,10.44,0,0,0-2-3.34,9.37,9.37,0,0,0-7.08-3.07,9.68,9.68,0,0,0-4,.82,9.55,9.55,0,0,0-3.1,2.25,10.44,10.44,0,0,0-2,3.34,12.14,12.14,0,0,0,0,8.18,10.39,10.39,0,0,0,2,3.33,9.26,9.26,0,0,0,3.1,2.25A9.53,9.53,0,0,0,630.32,59.55Z"/><path class="cls-4" d="M668.19,39.21H660V61.7h-3V39.21h-8.2V36.42h19.35Z"/></g></g></svg>