<svg xmlns="http://www.w3.org/2000/svg" viewBox="0 0 550.26 193.07"><defs><style>.cls-1{fill:#ffffff;}.cls-2{fill:#efd93c;}</style></defs><g id="Capa_2" data-name="Capa 2"><g id="Capa_1-2" data-name="Capa 1"><path class="cls-1" d="M32.09,148.45a37,37,0,0,1-12.46-1.95,37.75,37.75,0,0,1-9.42-4.77,42.92,42.92,0,0,1-6.49-5.55Q1.18,133.44,0,131.86L6.26,123c.86,1,2,2.41,3.5,4.06a39.09,39.09,0,0,0,5.41,5,30.63,30.63,0,0,0,7.5,4.17,26.21,26.21,0,0,0,9.7,1.69,23.32,23.32,0,0,0,9.31-1.8,15.58,15.58,0,0,0,6.68-5.36,16.74,16.74,0,0,0,.7-16.39,16.85,16.85,0,0,0-5-5.38,43.85,43.85,0,0,0-7.5-4.14q-4.27-1.89-9.25-3.81-3.49-1.41-7.1-3.3A32.49,32.49,0,0,1,13.53,93a21.39,21.39,0,0,1-4.9-6.52,19.94,19.94,0,0,1-1.86-8.91,24.63,24.63,0,0,1,2-9.81,25.73,25.73,0,0,1,5.58-8.2A26.33,26.33,0,0,1,22.92,54,28.7,28.7,0,0,1,34,51.9a30.64,30.64,0,0,1,10.24,1.69,35.68,35.68,0,0,1,8.6,4.31,27.92,27.92,0,0,1,6,5.5l-5.36,8.41a24.49,24.49,0,0,0-4.74-4.6,25.35,25.35,0,0,0-6.6-3.53,23.29,23.29,0,0,0-8-1.35,17.05,17.05,0,0,0-8.89,2.17,15.07,15.07,0,0,0-5.55,5.61,14.85,14.85,0,0,0-1.92,7.34,11.44,11.44,0,0,0,1.44,5.92,13.36,13.36,0,0,0,3.86,4.11,29.94,29.94,0,0,0,5.47,3q3,1.29,6.26,2.48c3.84,1.51,7.47,3,10.89,4.65a42.66,42.66,0,0,1,9,5.59,23.24,23.24,0,0,1,6.12,7.64,23.94,23.94,0,0,1,2.23,10.77,24.64,24.64,0,0,1-15.06,23.68A38.31,38.31,0,0,1,32.09,148.45Z"/><path class="cls-2" d="M137.77,148.45a45.16,45.16,0,0,1-18.27-3.73,46.48,46.48,0,0,1-14.94-10.35,49.23,49.23,0,0,1,0-68.4A46.48,46.48,0,0,1,119.5,55.62a46.72,46.72,0,0,1,36.54,0A46.63,46.63,0,0,1,171,66a49.31,49.31,0,0,1,0,68.4,46.63,46.63,0,0,1-15,10.35A45.09,45.09,0,0,1,137.77,148.45Zm0-11.06a32.88,32.88,0,0,0,13.62-2.82,33.8,33.8,0,0,0,11-7.87,36.29,36.29,0,0,0,7.33-11.84,42.49,42.49,0,0,0,0-29.38,36.44,36.44,0,0,0-7.33-11.85,33.92,33.92,0,0,0-11-7.86,34.3,34.3,0,0,0-27.24,0,33.77,33.77,0,0,0-11,7.86,36.27,36.27,0,0,0-7.33,11.85,42.34,42.34,0,0,0,0,29.38,36.12,36.12,0,0,0,7.33,11.84,33.65,33.65,0,0,0,11,7.87A32.92,32.92,0,0,0,137.77,137.39Z"/><path class="cls-1" d="M291.48,149.34l22.1-55.83H320l22.1,55.83h-7.41l-6.2-16.28H305.08l-6.23,16.28ZM307.42,127h18.71l-9.37-24.33Z"/><path class="cls-1" d="M360.27,149.34V93.51h15.84a22.25,22.25,0,0,1,9.6,1.92A14.51,14.51,0,0,1,392,101a16.14,16.14,0,0,1,2.22,8.64,17.11,17.11,0,0,1-1.73,7.82,14.54,14.54,0,0,1-4.92,5.58,18.27,18.27,0,0,1-7.63,2.84l18.47,23.49h-8.73l-17.29-22.78h-5.24v22.78Zm6.87-28.63h7.1a16.35,16.35,0,0,0,6.87-1.32,10.12,10.12,0,0,0,4.44-3.77,10.74,10.74,0,0,0,1.55-5.84,9.69,9.69,0,0,0-3.4-7.88q-3.4-2.85-9.46-2.84h-7.1Z"/><path class="cls-1" d="M415.46,149.34V93.51h15.83a22.3,22.3,0,0,1,9.61,1.92,14.51,14.51,0,0,1,6.28,5.54,16.14,16.14,0,0,1,2.22,8.64,17.11,17.11,0,0,1-1.73,7.82,14.54,14.54,0,0,1-4.92,5.58,18.27,18.27,0,0,1-7.63,2.84l18.47,23.49h-8.73l-17.29-22.78h-5.24v22.78Zm6.87-28.63h7.1a16.38,16.38,0,0,0,6.87-1.32,10,10,0,0,0,4.43-3.77,10.66,10.66,0,0,0,1.56-5.84,9.72,9.72,0,0,0-3.4-7.88q-3.4-2.85-9.46-2.84h-7.1Z"/><path class="cls-1" d="M470.65,149.34V93.51h29v6H477.51v18.78h21.32v6H477.51v18.92h22.14v6.06Z"/><path class="cls-1" d="M521,149.34V93.51h6.87v49.77h22.43v6.06Z"/><path class="cls-2" d="M235.39,58.61A95,95,0,0,0,183.77,7.33,98.78,98.78,0,0,0,146.43,0V11.51A84.08,84.08,0,0,1,205.07,36a82.45,82.45,0,0,1,18.09,27,86.29,86.29,0,0,1,6.44,33.49A85.51,85.51,0,0,1,223.1,130,83.62,83.62,0,0,1,178,175.15a84.67,84.67,0,0,1-31.54,6.41v11.51a99.13,99.13,0,0,0,37.34-7.27,94.42,94.42,0,0,0,51.68-51.22,97.17,97.17,0,0,0,7.38-38A96.19,96.19,0,0,0,235.39,58.61Z"/><path class="cls-2" d="M274.91,91.73l-3.45-2.86A25.77,25.77,0,0,0,274.52,84a36.84,36.84,0,0,0,2.32-6.12A31.09,31.09,0,0,0,278,71.3a9.57,9.57,0,0,1-5.62-3.1,8.73,8.73,0,0,1-2.27-6.07,8.94,8.94,0,0,1,2.66-6.72,10.69,10.69,0,0,1,14.27.35q2.81,2.91,2.81,8.34,0,7-4.3,14.85A40.52,40.52,0,0,1,274.91,91.73Z"/></g></g></svg>